<mxfile host="65bd71144e" scale="10" border="0">
    <diagram id="1e6Y6ggb2SgKe9F8GC6v" name="Page-1">
        <mxGraphModel dx="4423" dy="2753" grid="1" gridSize="10" guides="1" tooltips="1" connect="1" arrows="1" fold="1" page="1" pageScale="1" pageWidth="1169" pageHeight="827" math="0" shadow="0">
            <root>
                <mxCell id="0"/>
                <mxCell id="1" parent="0"/>
                <mxCell id="48" value="" style="shape=cube;whiteSpace=wrap;html=1;boundedLbl=1;backgroundOutline=1;darkOpacity=0.05;darkOpacity2=0.1;size=130;fillColor=#f5f5f5;gradientColor=#b3b3b3;strokeColor=#666666;" parent="1" vertex="1">
                    <mxGeometry x="-610" y="-250" width="3090" height="1170" as="geometry"/>
                </mxCell>
                <mxCell id="29" value="" style="shape=loopLimit;whiteSpace=wrap;html=1;size=153;rotation=90;strokeColor=#9673a6;fillColor=#e1d5e7;" parent="1" vertex="1">
                    <mxGeometry x="188.32" y="-167.56" width="761.12" height="1140" as="geometry"/>
                </mxCell>
                <mxCell id="44" value="" style="shape=delay;whiteSpace=wrap;html=1;fillColor=#e1d5e7;strokeColor=#9673a6;" parent="1" vertex="1">
                    <mxGeometry x="1630" y="-1" width="822" height="781" as="geometry"/>
                </mxCell>
                <mxCell id="2" value="" style="ellipse;whiteSpace=wrap;html=1;aspect=fixed;fillColor=#dae8fc;strokeColor=#6c8ebf;gradientColor=#7ea6e0;" parent="1" vertex="1">
                    <mxGeometry x="-150" y="191" width="80" height="80" as="geometry"/>
                </mxCell>
                <mxCell id="3" value="" style="ellipse;whiteSpace=wrap;html=1;aspect=fixed;fillColor=#dae8fc;strokeColor=#6c8ebf;gradientColor=#7ea6e0;" parent="1" vertex="1">
                    <mxGeometry x="-150" y="311" width="80" height="80" as="geometry"/>
                </mxCell>
                <mxCell id="4" value="" style="ellipse;whiteSpace=wrap;html=1;aspect=fixed;fillColor=#dae8fc;strokeColor=#6c8ebf;gradientColor=#7ea6e0;" parent="1" vertex="1">
                    <mxGeometry x="-150" y="424" width="80" height="80" as="geometry"/>
                </mxCell>
                <mxCell id="5" value="" style="ellipse;whiteSpace=wrap;html=1;aspect=fixed;fillColor=#dae8fc;strokeColor=#6c8ebf;gradientColor=#7ea6e0;" parent="1" vertex="1">
                    <mxGeometry x="-153" y="541" width="86" height="86" as="geometry"/>
                </mxCell>
                <mxCell id="10" value="" style="rounded=1;whiteSpace=wrap;html=1;fillColor=#b0e3e6;strokeColor=#0e8088;" parent="1" vertex="1">
                    <mxGeometry x="607" y="26" width="120" height="230" as="geometry"/>
                </mxCell>
                <mxCell id="6" value="" style="ellipse;whiteSpace=wrap;html=1;aspect=fixed;fillColor=#dae8fc;gradientColor=#7ea6e0;strokeColor=#6c8ebf;" parent="1" vertex="1">
                    <mxGeometry x="627" y="36" width="80" height="80" as="geometry"/>
                </mxCell>
                <mxCell id="7" value="" style="ellipse;whiteSpace=wrap;html=1;aspect=fixed;fillColor=#dae8fc;gradientColor=#7ea6e0;strokeColor=#6c8ebf;" parent="1" vertex="1">
                    <mxGeometry x="627" y="156" width="80" height="80" as="geometry"/>
                </mxCell>
                <mxCell id="15" value="" style="rounded=1;whiteSpace=wrap;html=1;fillColor=#b0e3e6;strokeColor=#0e8088;" parent="1" vertex="1">
                    <mxGeometry x="607" y="280" width="120" height="230" as="geometry"/>
                </mxCell>
                <mxCell id="13" value="" style="ellipse;whiteSpace=wrap;html=1;aspect=fixed;fillColor=#dae8fc;gradientColor=#7ea6e0;strokeColor=#6c8ebf;" parent="1" vertex="1">
                    <mxGeometry x="627" y="290" width="80" height="80" as="geometry"/>
                </mxCell>
                <mxCell id="14" value="" style="ellipse;whiteSpace=wrap;html=1;aspect=fixed;fillColor=#dae8fc;gradientColor=#7ea6e0;strokeColor=#6c8ebf;" parent="1" vertex="1">
                    <mxGeometry x="627" y="410" width="80" height="80" as="geometry"/>
                </mxCell>
                <mxCell id="18" value="" style="rounded=1;whiteSpace=wrap;html=1;fillColor=#b0e3e6;strokeColor=#0e8088;" parent="1" vertex="1">
                    <mxGeometry x="607" y="538" width="120" height="230" as="geometry"/>
                </mxCell>
                <mxCell id="16" value="" style="ellipse;whiteSpace=wrap;html=1;aspect=fixed;fillColor=#dae8fc;gradientColor=#7ea6e0;strokeColor=#6c8ebf;" parent="1" vertex="1">
                    <mxGeometry x="627" y="551" width="80" height="80" as="geometry"/>
                </mxCell>
                <mxCell id="17" value="" style="ellipse;whiteSpace=wrap;html=1;aspect=fixed;fillColor=#dae8fc;gradientColor=#7ea6e0;strokeColor=#6c8ebf;" parent="1" vertex="1">
                    <mxGeometry x="627" y="671" width="80" height="80" as="geometry"/>
                </mxCell>
                <mxCell id="19" value="" style="ellipse;whiteSpace=wrap;html=1;aspect=fixed;fillColor=#dae8fc;gradientColor=#7ea6e0;strokeColor=#6c8ebf;" parent="1" vertex="1">
                    <mxGeometry x="952" y="163.5" width="80" height="80" as="geometry"/>
                </mxCell>
                <mxCell id="20" value="" style="ellipse;whiteSpace=wrap;html=1;aspect=fixed;fillColor=#dae8fc;gradientColor=#7ea6e0;strokeColor=#6c8ebf;" parent="1" vertex="1">
                    <mxGeometry x="952" y="283.5" width="80" height="80" as="geometry"/>
                </mxCell>
                <mxCell id="21" value="" style="ellipse;whiteSpace=wrap;html=1;aspect=fixed;fillColor=#dae8fc;gradientColor=#7ea6e0;strokeColor=#6c8ebf;" parent="1" vertex="1">
                    <mxGeometry x="952" y="396.5" width="80" height="80" as="geometry"/>
                </mxCell>
                <mxCell id="22" value="" style="ellipse;whiteSpace=wrap;html=1;aspect=fixed;fillColor=#dae8fc;gradientColor=#7ea6e0;strokeColor=#6c8ebf;" parent="1" vertex="1">
                    <mxGeometry x="952" y="516.5" width="80" height="80" as="geometry"/>
                </mxCell>
                <mxCell id="24" value="" style="ellipse;whiteSpace=wrap;html=1;aspect=fixed;fillColor=#dae8fc;gradientColor=#7ea6e0;strokeColor=#6c8ebf;" parent="1" vertex="1">
                    <mxGeometry x="1504" y="180" width="80" height="80" as="geometry"/>
                </mxCell>
                <mxCell id="25" value="" style="ellipse;whiteSpace=wrap;html=1;aspect=fixed;fillColor=#dae8fc;gradientColor=#7ea6e0;strokeColor=#6c8ebf;" parent="1" vertex="1">
                    <mxGeometry x="1504" y="300" width="80" height="80" as="geometry"/>
                </mxCell>
                <mxCell id="26" value="" style="ellipse;whiteSpace=wrap;html=1;aspect=fixed;fillColor=#dae8fc;gradientColor=#7ea6e0;strokeColor=#6c8ebf;" parent="1" vertex="1">
                    <mxGeometry x="1504" y="413" width="80" height="80" as="geometry"/>
                </mxCell>
                <mxCell id="27" value="" style="ellipse;whiteSpace=wrap;html=1;aspect=fixed;fillColor=#dae8fc;gradientColor=#7ea6e0;strokeColor=#6c8ebf;" parent="1" vertex="1">
                    <mxGeometry x="1504" y="533" width="80" height="80" as="geometry"/>
                </mxCell>
                <mxCell id="31" value="" style="ellipse;whiteSpace=wrap;html=1;aspect=fixed;fillColor=#dae8fc;gradientColor=#7ea6e0;strokeColor=#6c8ebf;" parent="1" vertex="1">
                    <mxGeometry x="1921" y="179" width="80" height="80" as="geometry"/>
                </mxCell>
                <mxCell id="32" value="" style="ellipse;whiteSpace=wrap;html=1;aspect=fixed;fillColor=#dae8fc;gradientColor=#7ea6e0;strokeColor=#6c8ebf;" parent="1" vertex="1">
                    <mxGeometry x="1921" y="299" width="80" height="80" as="geometry"/>
                </mxCell>
                <mxCell id="33" value="" style="ellipse;whiteSpace=wrap;html=1;aspect=fixed;fillColor=#dae8fc;gradientColor=#7ea6e0;strokeColor=#6c8ebf;" parent="1" vertex="1">
                    <mxGeometry x="1921" y="409" width="83" height="83" as="geometry"/>
                </mxCell>
                <mxCell id="34" value="" style="ellipse;whiteSpace=wrap;html=1;aspect=fixed;fillColor=#dae8fc;gradientColor=#7ea6e0;strokeColor=#6c8ebf;" parent="1" vertex="1">
                    <mxGeometry x="1921" y="532" width="80" height="80" as="geometry"/>
                </mxCell>
                <mxCell id="35" value="" style="ellipse;whiteSpace=wrap;html=1;aspect=fixed;fillColor=#dae8fc;gradientColor=#7ea6e0;strokeColor=#6c8ebf;" parent="1" vertex="1">
                    <mxGeometry x="1921" y="59" width="80" height="80" as="geometry"/>
                </mxCell>
                <mxCell id="36" value="" style="ellipse;whiteSpace=wrap;html=1;aspect=fixed;fillColor=#dae8fc;gradientColor=#7ea6e0;strokeColor=#6c8ebf;" parent="1" vertex="1">
                    <mxGeometry x="1924" y="652" width="80" height="80" as="geometry"/>
                </mxCell>
                <mxCell id="37" value="" style="ellipse;whiteSpace=wrap;html=1;aspect=fixed;fillColor=#dae8fc;gradientColor=#7ea6e0;strokeColor=#6c8ebf;" parent="1" vertex="1">
                    <mxGeometry x="2289" y="179" width="80" height="80" as="geometry"/>
                </mxCell>
                <mxCell id="38" value="" style="ellipse;whiteSpace=wrap;html=1;aspect=fixed;fillColor=#dae8fc;gradientColor=#7ea6e0;strokeColor=#6c8ebf;" parent="1" vertex="1">
                    <mxGeometry x="2289" y="299" width="80" height="80" as="geometry"/>
                </mxCell>
                <mxCell id="39" value="" style="ellipse;whiteSpace=wrap;html=1;aspect=fixed;fillColor=#dae8fc;gradientColor=#7ea6e0;strokeColor=#6c8ebf;" parent="1" vertex="1">
                    <mxGeometry x="2289" y="412" width="80" height="80" as="geometry"/>
                </mxCell>
                <mxCell id="40" value="" style="ellipse;whiteSpace=wrap;html=1;aspect=fixed;fillColor=#dae8fc;gradientColor=#7ea6e0;strokeColor=#6c8ebf;" parent="1" vertex="1">
                    <mxGeometry x="2289" y="532" width="80" height="80" as="geometry"/>
                </mxCell>
                <mxCell id="42" value="" style="shape=step;perimeter=stepPerimeter;whiteSpace=wrap;html=1;fixedSize=1;" parent="1" vertex="1">
                    <mxGeometry x="13.29" y="275.5" width="576.71" height="230" as="geometry"/>
                </mxCell>
                <mxCell id="46" value="" style="shape=step;perimeter=stepPerimeter;whiteSpace=wrap;html=1;fixedSize=1;" parent="1" vertex="1">
                    <mxGeometry x="1178" y="329.5" width="270" height="121" as="geometry"/>
                </mxCell>
                <mxCell id="47" value="" style="shape=step;perimeter=stepPerimeter;whiteSpace=wrap;html=1;fixedSize=1;" parent="1" vertex="1">
                    <mxGeometry x="1662" y="329.5" width="150" height="120.5" as="geometry"/>
                </mxCell>
                <mxCell id="49" value="&lt;font style=&quot;font-size: 40px;&quot;&gt;Token&lt;/font&gt;" style="rounded=1;whiteSpace=wrap;html=1;fillColor=#fff2cc;gradientColor=#ffd966;strokeColor=#d6b656;" parent="1" vertex="1">
                    <mxGeometry x="-1150" y="360" width="120" height="60" as="geometry"/>
                </mxCell>
                <mxCell id="54" value="" style="ellipse;whiteSpace=wrap;html=1;aspect=fixed;fillColor=#dae8fc;gradientColor=#7ea6e0;strokeColor=#6c8ebf;" parent="1" vertex="1">
                    <mxGeometry x="-770" y="173.5" width="76.5" height="76.5" as="geometry"/>
                </mxCell>
                <mxCell id="55" value="" style="ellipse;whiteSpace=wrap;html=1;aspect=fixed;fillColor=#dae8fc;gradientColor=#7ea6e0;strokeColor=#6c8ebf;" parent="1" vertex="1">
                    <mxGeometry x="-770" y="290" width="83.5" height="83.5" as="geometry"/>
                </mxCell>
                <mxCell id="56" value="" style="ellipse;whiteSpace=wrap;html=1;aspect=fixed;fillColor=#dae8fc;gradientColor=#7ea6e0;strokeColor=#6c8ebf;" parent="1" vertex="1">
                    <mxGeometry x="-770" y="406.5" width="80" height="80" as="geometry"/>
                </mxCell>
                <mxCell id="57" value="" style="ellipse;whiteSpace=wrap;html=1;aspect=fixed;fillColor=#dae8fc;gradientColor=#7ea6e0;strokeColor=#6c8ebf;" parent="1" vertex="1">
                    <mxGeometry x="-770" y="526.5" width="80" height="80" as="geometry"/>
                </mxCell>
                <mxCell id="60" value="" style="ellipse;whiteSpace=wrap;html=1;aspect=fixed;fillColor=#dae8fc;gradientColor=#7ea6e0;strokeColor=#6c8ebf;" parent="1" vertex="1">
                    <mxGeometry x="2864" y="173.5" width="76.5" height="76.5" as="geometry"/>
                </mxCell>
                <mxCell id="61" value="" style="ellipse;whiteSpace=wrap;html=1;aspect=fixed;fillColor=#dae8fc;gradientColor=#7ea6e0;strokeColor=#6c8ebf;" parent="1" vertex="1">
                    <mxGeometry x="2864" y="290" width="83.5" height="83.5" as="geometry"/>
                </mxCell>
                <mxCell id="62" value="" style="ellipse;whiteSpace=wrap;html=1;aspect=fixed;fillColor=#dae8fc;gradientColor=#7ea6e0;strokeColor=#6c8ebf;" parent="1" vertex="1">
                    <mxGeometry x="2864" y="406.5" width="80" height="80" as="geometry"/>
                </mxCell>
                <mxCell id="63" value="" style="ellipse;whiteSpace=wrap;html=1;aspect=fixed;fillColor=#dae8fc;gradientColor=#7ea6e0;strokeColor=#6c8ebf;" parent="1" vertex="1">
                    <mxGeometry x="2864" y="526.5" width="80" height="80" as="geometry"/>
                </mxCell>
                <mxCell id="66" value="" style="ellipse;whiteSpace=wrap;html=1;aspect=fixed;fillColor=#dae8fc;gradientColor=#7ea6e0;strokeColor=#6c8ebf;" parent="1" vertex="1">
                    <mxGeometry x="3364" y="171.75" width="76.5" height="76.5" as="geometry"/>
                </mxCell>
                <mxCell id="67" value="" style="ellipse;whiteSpace=wrap;html=1;aspect=fixed;fillColor=#dae8fc;gradientColor=#7ea6e0;strokeColor=#6c8ebf;" parent="1" vertex="1">
                    <mxGeometry x="3360.5" y="290" width="83.5" height="83.5" as="geometry"/>
                </mxCell>
                <mxCell id="68" value="" style="ellipse;whiteSpace=wrap;html=1;aspect=fixed;fillColor=#dae8fc;gradientColor=#7ea6e0;strokeColor=#6c8ebf;" parent="1" vertex="1">
                    <mxGeometry x="3362.25" y="420" width="80" height="80" as="geometry"/>
                </mxCell>
                <mxCell id="69" value="" style="ellipse;whiteSpace=wrap;html=1;aspect=fixed;fillColor=#dae8fc;gradientColor=#7ea6e0;strokeColor=#6c8ebf;" parent="1" vertex="1">
                    <mxGeometry x="3362.25" y="667" width="80" height="80" as="geometry"/>
                </mxCell>
                <mxCell id="70" value="" style="ellipse;whiteSpace=wrap;html=1;aspect=fixed;fillColor=#dae8fc;gradientColor=#7ea6e0;strokeColor=#6c8ebf;" parent="1" vertex="1">
                    <mxGeometry x="3364" y="53.5" width="76.5" height="76.5" as="geometry"/>
                </mxCell>
                <mxCell id="71" value="" style="ellipse;whiteSpace=wrap;html=1;aspect=fixed;fillColor=#dae8fc;gradientColor=#7ea6e0;strokeColor=#6c8ebf;" parent="1" vertex="1">
                    <mxGeometry x="3362.25" y="536.5" width="80" height="80" as="geometry"/>
                </mxCell>
                <mxCell id="72" value="" style="shape=image;verticalLabelPosition=bottom;labelBackgroundColor=default;verticalAlign=top;aspect=fixed;imageAspect=0;image=data:image/png,iVBORw0KGgoAAAANSUhEUgAABU8AAAE9CAQAAACR91sxAAAABGdBTUEAALGPC/xhBQAAACBjSFJNAAB6JgAAgIQAAPoAAACA6AAAdTAAAOpgAAA6mAAAF3CculE8AAAAAmJLR0QA/4ePzL8AAAAJcEhZcwAADsQAAA7EAZUrDhsAAAAHdElNRQfpAhYBBhpY148CAABANklEQVR42u3d+3XiVtvG4Xt/KwUokwoid8DMVDC4AyapILgDvKaCLKYDPBUkuAOYChLTAbwVZKwO9vcHQtZhAzqf+F1aKzGM2UjisXi0j8YKwDiZiT7ovT7I0zt5kg4KdNAPre22630DAOAcQ3oKjI+Z6XdN5V34la3W9qnr/QTyMzN9k6dAPyQFZ37pdCv2cC26zVxLeQok/ciU5svTo/3a9RHj1hhPL/IvxHhU1WDvcpc51frM342nd5I+97O64qeudwBAnYyvR81jTwTa6qD/FMjTnXxNw+enmpqlHklRMRi/y5PkXbztOnl/9Tc+h6XpTHkfuz5c3KAP8pUnxn3j20POMj9f+bvxuz5oN2pPgdEwvlZR+inttNLfNsj81lSPsd8K2rt3Np6+aSrpyT52fa4wPMbXTL/oWOfjahvY6RDWEP2np2zkZ0p70Mz51XzQThvX306FfSf2kYuZ606epOmZ2DzooECb/Fdt42muj2f/Yv6p0krQaFxbNja2EWzytI49XMu/+NsTvcQeLlrZw0nswbLr88U29E37xMO9vBpKedG8XDlX3oXYZyu8aZ56Yq9JpfI2ibIW1SO92bim9hQYATPXKnqw1UOeZh+zinUCeLafG9/Hfaw2oEDPKcAlEU/Se7srVcprVKe002NT7QjEPspIJWj31eLTTPQS/vhkH2rZv0bj+v/qLQ5A24xnNrHk9MHe5+uTZB/01qgzM+uG99JPJBNBm2cI42O8ZDyVTE6XYXIa6LN931hySuyjnLy9S/N5F/7/a03JacNxTXoKDJrx9b+oJ+lBd0WGOtlHPUcPZmbR6I56iUe9HCmKAZkmHpWKJ7PUMea/2p/tc5kScvKq7ytuUvKma1KxtGMLWX29RL3Eo9rjmvQUGDAz1T66SDzbu9xjOUP2c+z+fGmmxV5d6J12sbvrHcNDUNF94tGmeAFmo4Wkg943HY3EPkr6J/GoUuO58TSXtKun5lRqPq5JT4HBMvPY1/JTyd6j8YtKsw38n3SQFOirvT7pD3BZpdpTMzH7cLzxXbluAQUR+ygjWd3woVJZx6t7vWMMGo1rhkYBAxU1TUqVuronurczFTkGwHh6jT0M7M+FXr3QUq1OqQaUYXztYw8LxnmipJnWyrFYRZ9QewoMklnFktNtpQabZeznL10fF5BD6bpT45mNlpK2+pXkFP2W6qzlGa9cOcbTN0nbISWnpKfAIJl5bFKog72vUJT0d+xnr+EBUkAdSvY8NdNwIOGDva9z0n2gIckEtez6Tt/kqe6G/caRngKDY6axiaTSX9WF2SBxCfy966MDripVe2qW2sgrOr8F0KEaep+aqWaSHoZ2Q0Z6CgyM8RNDmHJNwX9F/Ot9UrYBCWhHZs7TPItQeOZFCx0HQ9U7myTQnOTAvXJj99eSdsO7JSM9BQbFeNrE5pur56KTbBxtcHopoAaF607NTP/TRIE+1zetDtCCfeJRiZlPzWqIDfsS6SkwNOtEzVE9F50g8ahiZwGgYQV7npqV1vK006+NTr4P1O/fxKPCfU/NVHNJj0NsMSA9BQbEzBI1R081XXR+JB6V7X4PtCPZA+9i7anxzV5zSV/t+6H1vQMqD41aSdoNc7pA0tObYWZmb5bVy0F3wulB3tS1TkeQeER6ih4zXqKJ82LPUzPXXr4C3bNWE4bIBsmrsynUvG+W8iX90fVRSJLZmJdie096eiPMSmv5JB4Dt0yscvy1ttqgZO3pu64PE7ggWXf67/lfNGutxAynGLbS9admooWkr62si3adr4leikxcSHp6A4xnNuFquwPsHo0T48fmOpWkP2srOpmQerXtsWeWZmNezavZmCUzAqAWuXqemonZaybpsZsZTol91CR5A/axwCvXkg71thtUiOt7BZKWZpX7FZZt5Js87WVlte96T9gqfpLrxMN1jSVPkk/UVOoi89Si63PINvxNL4mHE+fvLC79awv7SOyz1bRpnniY+7ofxmCtfwHV4lq+XoscQz27PNWrrF7ld/1BsmU+m1Ny+iqv631hq/RJ+qknarzsaJZ8opYyj8n0ixaaaBZelqzmXZ9HtqFvyYeOf/e0iR508p1E7LPVt2maeJizmin8vljVuieV4zr6Ftvk+u1adnof/lDrqWCr9bPpqBaBrbZPcpV4WGtdePqeuIYSjxey6M5ay+ifuIllq7Clvqw3jn9/jT2ssY0h9x4S+2w1bvKST+R81Yvq/paoJa6jv98cf5k19D0106iz7rxSQaid2YSfzeeedI5Geb8lHuXvv5NHci2SypNVmXm4iN7bdCZvk0szghpVXOx5Gi5b+mZmWh4OSuyjXume03ki2iw0kVTjEhR1xbXdhns1u94H9aca9js23MbMh7dw1niZdThH5mPVyaiNp5cw0Q10HOcd/7+n0+Ca5E/S0+U1Wswm3MN0qVIQleWF/5UCfXKn2WYV3hpl9+64H6cS4j/t7Psze3W+NMX2KlWaPl0egGEW+hIehWsf38VKduyZmaUGLNU7vXhyLHTF9NT4Wkl6SlwL3vZ+AGtSEe9dx/sFZ1eMMp6+O1bVeazzS/qaocd+3yP/RmN/l4hr/9oV2vhaSnqqb76KOuPaPpk7LSTNzf7KfKw1VPm+xh7k6lHA1sYWNdjW8Jk4OkTn214vljotXJ6zG3a68SP35tVa2pXuE9XKSg2LqnmYW+phxU46Wmc/+XjXhHr3vYmNeM+xNRrvecuNPX/qCzfLfHpekV2ptg099vsd+bca+6mr/9XBSNqo5tEmdcd1NLxxeum3Kjfum2miVmfKBBr9YCY6TsEf1LLsZVDydX9f/NcfOUt5U+fshbtap5s5XO0+kf/dXGXNGjsP2caiq4tEXixtcpzOJ/X02/31EBbXC0q+jnh/k//drpcVMWfqTqNlS+/ss/2aeu8vNR735b0bfuwHJV/X58gffuz/k3h0d/mXzVxTSX/Ud8wNxPUpK1lfyhirN+6nq/R/E837nTOevoc/1hKk9slso6YXXx81TTU1p2210z/aXn5vuzN3muhev10sbaeDDvrn/B+yDczP8qO9+13nV6bYaqe9fijQj5yl3V9ouMhRWsyv+iBfd5qdnVh5p632+jdbVmatjUoJZEbqCCt2BfkiKUh28jFe7JgHMEE68V62tJgK8X6Bo+ep8XXsY/81muHxSfHJvxfmz5ZmPh187Pc78m829pPp34dLv2o8rSQ9V+3Ql1B7XNuDedRSkqfvOt+9oXKlb/qJl/oqlNlKfyqniVUa62yRam6Ib8uijQryUjMZnraNZpWOPrmVnNYlNWL+tFWYxVCTaD6FnGet2ebK1GdZ6S84bC5bXtj/Up9p1xvxXuHcFY73C2Vl5jwNZ4V8jTcTZhptl2Xeq/C+jTL2+xz5txL76UkFr56Rehv2G4rrKBbO/nVW3fGZ48kaTwxbqU/lbRrfBj+LMxeaUhNYZeb0tFqV3/f0JPOyutLHpXBplafYTly0Xq5NzNFqz9NKxxZeEVLHEzva1yqld7kR75XOXqF4v1BO8qEX/mVs0mcvNumNlW2nz+dYY7+/kX87sZ96ePaMhTFY621QU3Edi4UzsVR1x113VqyO0ekmr51poJ3d3UvXvCUebKrND+jq8F6pvOxTlecvjN1C5BiIlPqCqLVOPPM5Vjv362wUJC76g50bmXivVGaheM/5GbyGX5GOb5zMOWnhW2mssd/fyL+d2E/VwZ5JwMPv/prbTJuL66i2+kyFS9Uddz3ZcPO+vLrrBOsvscstumVo/F7d0WxRsr42cU9dQ1Kdfare0qrHS9TukG/1jNfEw1qbKuud7l8z7dP37ol3GPDyEMR7pbg4/lDpqzNdJyqr/dmal2Rct1BzOd7Y72/k30rspzoxnDlz4Xd/5T3O7H9DcR27uXB+p1Xb7fmZf2hwbYywx0ON71B/iV1usTvdxpfQc05CUip1eruLqudzSKVztuIlK1NaDZes4xdtzlu51MNaP9nU0TXQOy72Y83dEtrdiPcKZRaK97OlpJuZL6w800X9qWMv3n4ccOz3N/JvJfZTN2bO+srwu7+VpXNjP1aK68srT1Xbxc2Zf2jwQhAeTp3pae0ldrlF97lt1Ba4Zo0r8b5RSr2v677PcbdfoWRH36vqDT6vRcpJPSzdt8pRcvIWs4Gv0MQ7DLrjD/FeoczXOspJPbxyK9V+/WlmD0YS+/2N/FuJ/dR1enP2fVoZml5fXMciy3GrWWHeU+OdnYahyVU6vAGU2BkzjyZ7aGH5PBs4JhHzzKxYKcbXWpJ00Pvapn/JlvOuQmnZWfu8artnFvIkfbXl5kEsPovgeck4WdZY8kn8ajDoSeeI97IqxvuplOT3zfWpc5LR7Jn2F90eSez3OPJvJPb1b+KRY2ops5In1TLL+XW1xbUNom+gmclOElZDBu2q+G+sl03Yu6LO2tPaS+xui5omWqopcIzDLHj/Jj/c5xrvp531+hVqHB0DACvVX4Z3jAVqKlMPa4vV9FCThiNk8GvKEe+lyisc72fKSTZw5mjEbHbGi0LRMvDY72vk30rsn18tLfzX41ClVmro643rWP1pJp6qrBp1zKCfndnz743l7ZPqRTReYkfMPLrT+7Odd7QHZacVnpjcZ9R42oRrE9d5P+1axcIrXkgke0ftlyjlzbFWp0gbQ1D9lDgl607/aOAd4ke5augoWkO8l1I83t2S5znPVODJ+PaL1vdVNKLY723k30rsp74DMmd+LWl3ZQX7utQa1zbQqRVkkmofKZ+eGi+8WPxlA8eForlmlGrB0k6JXXlrzGqvIcmVCOf8YzSeXuSriUtWtrQqDT77zDNe+cKMr7mkrS2y0kbyElzh3RN7Mk10z9nWus7IyduVIGik/LYR7wWVine3eLQGeRpL7UHJmGui88p544r9fkb+rcR+unk/kbWYpXy11bBff1y/pbipv8/ytafhLtpnKexREuflv68qwtSeStZfYldidafblpbwk2SfHZeH+aV1dGO+R5esutei/i/zTL49csu2BfxSobTjX0ux++nk+aly+Y2L3/kGTVzczCx23v8uX05/EO+FlYl3B1O87lRKJ1Ut1p+OLfZ7Gvk3EfuS0t8BH99+NBMtVL13a071x7XdRseWqo8vn56emvbP7WQzw6Om1YtovMSuvJ3xdhuSXHfVOWrPzSasf//UwJ9VkHmm9EXGzBzdP7yKpRW9lGzqeffEniwTd+B/NHJLM6LmzQjxXry0Or46k1fqTb4X2V0qkW2v/nR8sd/HyL+N2Jekl8Sj+H6uJR1sC4OhJTUT12/lfEk8X7Fz7PRs9+RGBudEHZfrGxxSe4ndbLFVHFqeQKXcpCPRea9xkqRY6dnFdtely3p1PFm+tH2ZTyg1MKGGaflTJZY+ntyRMeBZHy8c1Wkj3s+VVirenSUlv2NyX68zC1U28glcjJKRxH4fI/82Yt8qM4w1iqlwaHpLSz40E9eJUr23H8vWnh4z6CDqU5HNoj3TRL1k/U0z7XaWb87bXUfLDUmxrs1vrnz6ZhWe98+19MrJCrJ7VK6gcFqQtJJdQsxCvkpM+mUPiaadKx1njJejyS3eIWdnm+m1FL8TTl0hzMK85GwY7BnivVBppeLdqXDP0yO7Sw3qaaf+dISx38vIv43Yl870PTW+lpK+2l3xAktpJK5tEPsbjdfHV7gvSKxd4Pil2lcYjt0n1bXiRO0ldrXFfmx96bxM/YTVxQknogliGlvfwjENSqnpik/TgmT+odR9Y5VJRpKT6lw47nVUA7A5P215YsLyxup2EnURnuNMtFKP1cBxEe+FSmvgnBeq0cqsGd9C3I0z9vsX+bcQ+1GZyYe+VbiMQIu1803FdWx60tjRlCvqFKSxXXHMF1ZpcTHn+76t6FBXelp7id1s8QaOTt7/xfHkmTMaBWKTa4tlm6HKXWSOUZ29KJdqsjmVVsMRORNPxwzE7sXv4mt+vNa9QnP0LvGkYO3cg4beufmNeC9SWi1HmIztgulO6vNqfA7S8cZ+3yL/FmL/zLmfRWe4tVud5uI6cd6jeCpX1DL7sWXuUMMTWOOpcR5Av0rsaov1y+pk+ufUkmvH7XJqVHvdeup90k+UWYJvctrT7D+WLq18T6Z4/anjUw4vXhtN5VlpEv5+5qsh0VfrtWjcy9NMizx/2Ykb1qljXwc8UTnxnru0mno1l+15Gr46/e1U9hbx5mO/f5E//tiPSk1WAS7CeuPK57cfcR2rl43GVlQpaHm2+NNW68eTuEDVk57WXmJXW+zHBptRcsREYnP81ik1amQozpkzcnZvrpbxorB2MXt0JUurEGepWoLUF2x44Uh8+q772URyWnj9ltiX0/7akcTOWerrIrx413rz2vZGvOcqrb52rviDMulHstG2xNcosZ85tgvR0V7kjz/2o1KTLQhrbVTD0Ku+xHWsw9nbsK8SxZzqHCdni6/wweY4iTV98PWX2NWWSDk6Oo7UgoPHLZUqR3UYLdQdOC6iXqmzOrfKfLmVOM9haZXG3Cc+50T/qvDMZi4Oekm+ZyLmC38K6SVQL53RRDKdvpFda/CjmYn3XKXVMMeEVabPY5nkMj2+u2D9KbEfHUHPIn/ssZ8pN7lVbNjvT1y7spgyxRzT0MyuOLtN13SXmOn+XDkJq7/E7rZYlXvLk0pdOJ+ZGInio1TH9cL7k+0jVfQi8/p2BI7Sin69vdbx6SS+GuJp50bORh7N4++auIEs0SSUmT7uQp+yxNVg5viXAdcfWRHvuUqrb1KdZL1Rqb6M1epPif3oGHoW+WOP/YtnvnLddH/iOpH8hntRpphXWTnvDRx3MbXcPWmSKbliMll/iV1usWNpoSnl7F5sHE9G93byw70s3KBc294UusiEieBpXt/swL9Cd61haTV8LSWOK7qUnNuj8LLhW2kSu+y+ltuTzN/MhbvlxKU0cea1V2tfXE1uxPvV0mpLw1IpQ6kao8wZKnZEr6knbjj2+xX5Y4/9RNnJhzUMa+1TXMf2ZeM83hxFnCqDHemcs9q/+gl0DbqqlEzWW6I8+ZpoqrkWWmqtjV60P3OGfM211v54f6W9XrTWouLRxIOmo56nZ8/qOtrHV1m1ecmqdJEJ7+SiZN/RcaXA5ScsraavpcTFePlW/oV3XiT+MlelR1cWqqWIXWxi7xd+LgO+GYyOhHi/XFptaVjme6VEeups2ytyhoj9t+PoVeSPO/ZTpSdbAOqo7uhRXMe/2cJnSoaCM8d2XgIqJUzyXRNWVTkVdZaopXOViTMlaua86zxu+/KTbyT6E3Y6m56j146VZyUv/JfC48Qr7Ev2IlMgEtN/cI4br+Kl1TbJSGJvXjQJ/4w95+8mH+6r7IXjLFyIt1hcRu/pGsA13I14v1halUibaqGlllpp47zGbrTWSkstrl3xNNVCK+d0SFZWe621zHNsxH7i+HoU+WOL/RylH7d6WqZ7FNeJfZlYlUlPj/87k0w5wrbUSZSvmRYX0rnL26SNEp13bfHNT7z76Z1ftdZCc821TO3NvmSjVXwvvOpBUiG8XJOOLDu6ZGX/7HLfAIS3WfG+ndkZRXN3fG9ikhHNEl/ax6/wTG9STROx8VL9bjvz933xohTF94smmmgR7vMovqCtiPeLpVWId2fvxvObd6EkL2cZOdIJYj92dD2K/HHFfoEj9WoqszdxnaiVX1gVTk+j0VXnJuKtqXm/4nFO2igxf3r6No4xM1eYl0pRSyQQsfDqbGDUhbP8GtVctLqaVaWLzEv6XDoux7mHFoXH7zVwhK+pp1600FwLrbRJ1RetL519zQpczlfay2of3updfJ28TL1GyVuwvm6Op4j3yvEepjmvYfcn17bXaxj9m1x74y5pH3azytkQTezHji/7VEeRP67Yv1L+2+j2Gm90+hLXiZvJtVXx9PSYkJ3tWeG87y3RbF3xONtKT6daaKHlmcaj0+QIs8sfYurjLvhRJz7SzjvduyYXK3dclfckOwlHzotMeHmaXSkt5x1y+MqG1k3J3R5wKTk9RpBX+L2vXsqsrDQJ/zr22oyl7ih2dMS7ez8aXSeo+43Y70/k31LsR90nG5qwq+u4jlW47K2sflIxM0nSX+f+2R7MTpPUk7/ra8F3ke4zz2wSjx50OP9iu2ulRNmttqefja915sglmanWkrb2/mzZD2YqP3q41s+FztSH2M//FnplE5aaO5+/t9uCJVUVZJ55l/sYpJ19TjyXjQ0vZ2nfJB1s8b+AXOxXfZXMVJ/1Tr48+ZIC/VCgf/WifxVoL0n6oN3ZQr5ICmyQ6w3j3sl1ltN7uNNDM8feC8R7WqPx3hvEfn8i/4Zi3+7MVlNt9bmhN+g6rg9RDuUbzwbl7lK8C7+zcDxZxyT6gywx37JjqeaEQtP5Jl7bgzt0Z21eB3UpjmF6ueqWw+4p6SUn/EqldTbPYbTfZ+//w7rTMrOgvqrjoXh92Ih3R2mDntcz13G+6uZjvy+RT+zXeCZf1WlcJ7pLTqz+r1Bue8yZtxdrWp4cz80ayrX75jnzzErSzl6517DJczZXEXexnw+FXtmMleO5jx3sR5B5xrv+IuNrIek5U1v+I/Orfu7Stvb5+u82bHr2X9aS3J/a5WPz5KkfEdct4j1dWh/ivVHEvqT+RD6xX5MexHX8vX0VSU+NF37JrS/9lg0czYjjbeJISn2wZqqpAn3K8cp4g4hnJjlecRL/0/lR4HUNsc+Oi8XMeK3vSPZc5GnwOV5y/8gcVfaY8hzRUlK30X/aS884bhGNZ140lbSzuwJlHk0lBfbWv6KJ97ju470dxL56FPnEfl26j+t97OePhdJT/Rb+/+8rv5e9q/JNjvuPEfgv8cjTStIfuXr1JdODaY5XnMTPbD8umH86nitWI1yDMhcZM9VU0mOJfpiu0iaaSXrqydfYN8f+vYQ9ff4sXNqxL3f7vcz6iHg/ltaveG8SsX/Ui8gn9mvTfVzHbzR8FRnQHo5OvzpmzDnXXKH+lM5Skw/72fc02e92rYtLhCVemex9WmBcXnxyoeb7huTaI9fnn/M81Lofr+mnrr5if35PHZODe1dKe1Ety85VOgfxXlkvianO3nqOlfpsuu6l1J+NeA9f0YN4b/FME/u9iXxiv8az2O3CPonvqwJ9T40X1rRc7aVmA0cGfhu9T4PMMT/mfGWyeaJIXbN35t2788HxnG+K1AjXI9Pkc7kO38zl6/wnlr0vfneltImkP+u5Oy8t/u4T7c2reTGvxmoTq6Ev0SBl5vIUdDBGt4+Id/Um3ltA7Ef6EvnEfg16Edepvqf589pFvrsSK+fMYZWn6k097GftaWZC39yvTK5inHt6/cQow07uWzN7NDnzD42tpHF2T7Jz0V6e/fNVF+qtHeNUL95nHqf77vrTyDHfb6nPRa8a/dyWOc8E8f4WET2I9xbO86uIffUp8on9Ws7hq3oQ1/EHRUbu/y7JNTbdwTl67fdOs/Ju5L8TSd79eblf17Oep8bX9zP/1H6n+WId5pfydKkmMcg8c+F4zLXS2hNc/NeDLTGDnlnKUzD6uS3znAni/Xge+hPvDSP2w/PQp8gn9ivrY1wbL2d6avywaf+vfL/vSGM76DLduXX1Iq7wYj8HXR+u8fQSTk3hCvO2IyB7Pryze+5rrstd2wtcAKNJRvrQAHh5IGOZ5HSqhRwjXm8P8R6V1p94bxSxH56HfkU+sV9Rj+I6iP38Lm/tadh3NPesXtk01uukT0q38odsUPId8q6O0YLokhXovXNM55eWd6hID6KVpOBiT+Eg84x3sbS+3E9f6it+X3xCKeNrLel5yPP71YN4T5TWl3hvELEfnoe+RT6xX0lv4zpv7Wl4+p9y/rZ7TrSmFuLqrx7MQ9qi7+GSmu9tYANHrDjn3mzQf5ln7ty/mGuSkWxpv1ws7Ws/JhmxuzN/tYHeF7/jN5428nToxX1214j3eGk9iffmEPuRvkU+sV9Bz+I6njPlqz01k7CPY5HG6myj4m8FXj0K5Ufy5e69E/+9TpNhc5pD81P4p+qqtWv3HjPIPOOd+c2VpIO9fPOVfyXmlaTA5p2zoXH2wdHV5km/lpiKX1rLV6D7YY9RrQPxniitR/HeGGJfUi8jn9ivor9xnbP29DisqdikA9lU9taa94MW3uOX6kXUwWzCS1bUXGx3jtXDpq0uz5CzB5FZyNf1C2qQecZ5LFemLOmE/ax7PesgKdBBX3VnH0pejHba6f2Q6wrqQbxHpfUw3htC7KunkU/sV9GvuA7iD37K9ZJjV+d/Cy226fJwU2tttF2bGXR1oGYdzqL5OXED86fjFuWxxfvq7PnwHPvu6YvydG3PdQE0npa6fnfeOrut5y9v4PUENSHeY6X1Mt6bQOz3NvKJ/Qp6FtfJc59jJqpJfdNa1TMfloYx72mBmdAS85daXV2lInrdKvag8spcJY/6tA/zzL+81hkBhffLzzz1cnbvr376jtL2Z0tjRZkRb8R7pjTi/Sa2vkY+sT+eLTHn7DxP436Nd0Gtd5lGw8wirFt/dNxFOu4rTXuTjmTvgTNNNOEkI3m6tue4ow5Lex72JCO4hHjPlEa834QeRz6xP04/8uSzrzUmx6VXlEg9pPb0+Lpl7MGqqTuaHEfsfO+u12TOPpX5jY1yr9GVs7RaIomtnxvxnimNeL+Jrd+RT+yPZUus/zW9WntqpmEvjjtrim6OKXupPR0RMwtHbT5bZw27DRxjxrtZk/nc/k+Vv2t7kHm9l3g0gklGcAnxnnhEvN+MoUc+sT9QV7PZtaxK3gk5+nA4+q3kLCv5kNrT4+s6rD3VNPxhc+F3XP2WN83sj+PdXzNPJc6r9nL2UTpT2j7zlJ/595x352zD24h34v02t/5HPrE/li1x5ifX+54e6ztXV3/PlfoeHFNO3N7k/E2KTyDc6gpSZqKNJGln78//lt055pBrb9KRi32IwklG8k9GHGSe8SqUhkEh3kW836RBRD6xP0pX0tNoKFPZyROyi5tOc085j+uCbt7WTPQiSdrZ91d+del4rq0pR7IXzOhyGU4L8lxgcvoLF8BwypJd75aFQy2Id0nE+w0aSOQT+2MUXKs9PU7Ivyu9ooArrb251aMaFP8z8tp6U+PruyTpoE/Xftc+OVLotsZ0Zt/Zi346XkyL3AFfLs0rWBoGg3h3lOYVLA0DNJjIJ/bHIt4G/ONaelqhaV+SbOBo3m/4jspsjDWv/S6xNvF7xpYaUoynF3mSDnqf67bFtSZzO5ets/fAZqK5rq28nHb2/jyaZKTMMqHoOeI9QrzflAFFPrE/Ft7bj/Zy7WnUtP93hbfLprYTmvdrE8R+bqXvaXTJyr9Kb3drMmf3zwv//01SYL8WKCvZz/fotKTs8Qi5nx4h4j2GeL8hg4p8Yn8UEplhcK3v6TG0tqWb9iV3atvmhL2jlpjYwmvlLb/LlxTkX6XXHhwLak4qL5Cbx5mLjJlpouKXmCDzjBeWNlXRu3MMBfH+xgtLI95vwZAin9gfh3gV2+Fiemq8cH3d0k37kmQDR8j+3vVZGJHg7cfma6XNRseLzadCM765Os1/aXpfdb6J5pvKdG0/13x0XHm52N05BoF4TyDeb8bAIp/YH4d4B8V/L9eehkOYKo9QW2eembQ44cTYxf8sG27eN+vwhuV9sZ43duu4eMxa6OIRZJ7xJLMo2bX9XGm+8k/3jAEh3p2lEe+jN7jIJ/bHwYv9vL+cnh6b9qtPn+Bq3mf1qLr8G/u50aTfrMJP7b5Et3BXDXzzXTwc98DhJCNPJY7Bsa5zWNqWSUbGh3jPPEO834QBRj6xPw7xDOZS477xwsr9v66VeI2zeb9qh2mv9hNTf4nt2Md+brCXj1mGF5nPdlvi5a4Jxppv9Akyz3j6JqncHXC2XuBd2JjV3ux+aAnxTrzfpkFGPrE/Dnexny/2PQ3veGq5V8jeUfkNdph+J9fdT79KrE/8zvCudClXmJUWkqTP5eLBBs5JR5quQ3fcA2umkl3bHa/xNJf0xMrLbWhzvg/inXjvk/Zif6CRT+yPQ6r29Pzapy+yqm0dd8dTy4IlvCYeTq+s2ppjdd0GSpwnHu4LHJ2fesLL/Uov9iD3msIFz/0m/GFRoQzf8WRD+xt7V9eTBT6XHKW95v+s2Eqed1+b8K/15dLfaW3vR7yfL414b3VrN/aHG/nE/hi2WE72amXP1Z6aSdhQ/FJTVpy9EyvaHyV513Kpl6WvZI/M9krsgA1izRqN9D01m7Cb/HOVEYv24FigofkhcoHjufLNM67S/mSSkWaZmfaahp1vJtqYRcPvR7xfKo14b1G7sT/oyCf2B894sS6W/0rnG/dPE0TU1aSdbd73CjbvJ/vBnF3/1+RPq+sv0St9fsq/Mp44e3U3AhkvumQF9nPFwv50PNf0KMhs/G5L9ag6VxqTjDTMeJmZP5Zm2ty7Ee8XSyPeW9Rm7A8+8on94YvfwmykM+lpOPmsJN3X877OMCl2Z5MconX+j/T4L3nCsv4Su7GJ/VzrParx9RKdl6dKRUmyz641mRvuVZV9xypd27P9jugo3zTXTIqVZmI+j3hPId671VrsjyDyif3h+xD7eSc501Mzid2z/VZbUGU/7kIBa3fJ9eXPvvZB0iFPB+b6S4wWPjsqMgtplRlL400pNd5bm4X2sXT3nxqKbH8FsfQ98NdKXduD1OMqd+fI54PjOb+JoRbEe0aQeky8t6ul2B9F5BP7wxdrwT6e7Ux6amaJZmzPMal+CcZz1usVm3Bidf21Zipf+e8w6y4x2V2hSFN7uqNDgVrQxJ/Nx/yvu8TMzD517165Xtb4p4UeEr40elcdpB79Wa6YUPoCyP1089xxV/O6c8S7E/HerRZifzSRT+wP39vt2KnKLTZqytM8HK+f3CqPGJTvLNeq4MwAqVJ8x2/sT2O+2i9Rk7JHJ0/71FObQudlE/1Y4NjPHsUqNadBWHK1KNDcWaqV1aa58ZBaJh7Oay2t4NwTbKXOufvKUTnOo/KJ97ylEe8tb83G/rgin9gf+paYgyicOeIn42siX79ocrZheKKNOWirvQ5550IzvnxJnnzd6cOF6eLn5jf9rb0O4b3PDx0ujI77nJiEfpOe59Os5UuF7poqlRgepeTpne4dK2HNzQf99XZsb6tXGC+6U/D1Xr9lhkZNzav+1ot+KLh6VqR19Nl5xi/epGE8fZCv9/L14ewgLU8b86yN/i22BoeZaqKP0ehTl6lezbP+ic5Tvo4U+fwX+/lgq/aqipdW9e4c+WydVw/PeOVH0RLvJUoj3ttXe+yPOPKJ/aGL559Ri/C6UIrr58yEF6WT6It3PZomHsbu8+SHdYiF6h2rlVjw3NnYK+fFXnn5fjYx01zhu8azNdvnttw13pqVjIF12eDJ7EH8PE9qLa3i3Tlb7rP+6ny69KdJvJcqjXjvYKs39scc+cT+0Detoh+j9oH/K5HldshudRcb0ORpY17Ni1mbF+01lbRTwUkx6i+xg7MSn2mu4FwL0eK1+eUfxlW2l5RXy2mR4j2InkusvJz2FifV786R16dUr7Lj9C4lBxMS7wUQ712rMfZHHvnE/tC91Z5GA+t+kqSwATmQlO4S/E7HEDr9P7/zZSYd/wRyv4c96M7MtYx+09Mk+rP7akvMrla5xCA8wtP/85+98q9M+yva44Jj921gdpqc2RfXZxMUmNpkE3V4eCs1fazZIz04J1QpJ4h+qmPevbf9pqN8a+zO/Kovmmqig3Z6tAezUOkvNuK9AOK9Y3XG/sgjn9gftMTg+SjujO16v8oezkS/a6Jj78+DDtroqdqaDvWX2OLZ8PQaPXhfw73jSBg/7Fv8WMeUytFZfrJcsjpkrKR7JnrJIt7Hjtg/h9gfMjOL5ogK7M/R0133OGCrqefGW7+iQrMhjH3TRnX27VvXWRpbqc/gOMKzcu+ycW7E+5g3Yv/i2SH2B7vFZh+KzZIw2NpTJJ25+wBGJqwl+XkoLRtAXYh9jFGi9TcW3QMbGoVzYgvJec2tSQ50zpckvqBxg4h9jNHbimLbeHSTno7H29xsvZ9rACjtNLwDuDXEPsbobeaHxGA50tPxeJv+4rcKpQD99lGxaZuBG0LsY3SMH807dEgO+iM9HQ0bRAmqZ+aVigL6ayZp0/VOAB0g9jE+b3MjpKYEY2jUiMQ6GB/sXaWigF4KhwDe1bocIjAAxD7G51LWQu3piNhApxnffDOrVBTQT7+r7rW6gWEg9jE+X6KfMjPMUns6MuY1XJFjZ993vS9A3YxVTRNvA8NC7GN8ohTUkbFQezo2p/H7E6aXwtiYhaT4IEDgRhD7GJ8wqiXpD8e/Uns6NmYfrl67tfdd7wtQn7CX0rNl4jTcGGIfYxS19joXj6X2dHxOF7Ap/U8xKsc58R4rlgIMD7GP0TGLMDkN3JFNejo6dhcNkPrW9b4AdTETzSV9ZWgIbg2xj/ExfjQJ/x/uldBo3B+lqIHfWWUODI/Zy1egX1nSEbeG2Mf4mJdwOv6z3RCpPR2nUwP/3EwqlQP0gtnIl/SZL2jcGmIf42PmYXIanF+EnfR0lOwumkNs3fW+AFWZpaaSvloWdMSNIfYxPsbTKvzx0/nbLtLTkbJPepYk+WZZsSigU2auhaStZWAIbgyxj1E6VZs92t35X6Lv6YhFfTs+2+eu9wUox/jai2UmcIOIfYyRWYSDoq5MlEZ6OmLG00s4ROr9pXsUoL+MpxdtGeKH20PsY3zMLKw7vTozO+npqBlfL/IkRn0CAIAumYleJEkHe3ftd+l7Omr2oE8KJHlhSAAAALTOePouSTooR4cV0tORs7swQfXNput9AQAAN+rYmnvQ+zytuaSno2d3eq9A0tQwyRQAAGhdOIPvLl9ySnp6E+xBv2onaWYWXe8LAAC4LWajqaRnmzM5JT29ETaw7/VV0seu9wQAANwYX9LD5amkkhi5f0OMx+h9AADQtqIZCOkpAAAAeoTGfQAAAPQI6SkAAAB6hPQUAAAAPUJ6CgAAgB4hPQUAAECPkJ4CAACgR0hPAQAA0COkpwAAAOgR0lMAAAD0COkpAAAAeoT0FAAAAD1CegoAAIAeIT0FAABAj5CeAgAAoEdITwEAANAjpKcAAADoEdJTAAAA9AjpKQAAAHqE9BQAAAA9QnoKAACAHiE9BQAAQI+QngIAAKBHSE8BAADQI6SnAAAA6BHSUwAAAPQI6SkAAAB6hPQUAAAAPUJ6CgAAgB4hPQUAAECPkJ4CAACgR0hPAQAA0COkpwAAAOgR0lMAAAD0COkpAAAAeoT0FAAAAD1CegoAAIAeIT0FAABAj5CeAgAAoEdITwEAANAjpKcAAADoEdJTAAAA9AjpKQAAAHqE9BQAAAA9QnoKAACAHiE9BQAAQI+QngIAAKBHSE8BAADQI6SnAAAA6BHSUwAAAPQI6SkAAAB6hPQUAAAAPUJ6CgAAgB4hPQUAAECPkJ4CAACgR0hPAQAA0COkpwAAAOgR0lMAAAD0COkpAAAAeoT0FAAAAD1CegoAAIAeIT0FAABAj5CeAgAAoEdITwEAANAjpKcAAADoEdJTAAAA9AjpKQAAAHqE9BQAAAA9QnoKAACAHiE9BQAAQI+QngIAAKBHSE8BAADQI6SnAAAA6BHSUwAAAPQI6SkAAAB6hPQUAAAAPUJ6CgAAgB4hPQUAAECPkJ4CAACgR0hPAQAA0COkpwAAAOgR0lMAAAD0COkpAAAAeoT0FAAAAD1CegoAAIAeIT0FAABAj5CeAgAAoEdITwFgFMzK2LPbvuu9GzuzvnD2N13vHTA0pKcAAADoEdJTAAAA9AjpKQAAAHrkp653AABQq60eM88FXe/U6D3qz8xzD5p3vVvAMJGeAg0wU91rKk++pED/aqeVPXS9V7gRB7vrehduj+vvmwFpQFmkp0CtjKcvWiSe8jTVVAvzpEcbdL1/AAD0HekpUCOzjKWmgZ601w/5+qipPM01N/d22/U+ArfDTPRdXvggkPQj9v9Tl4fjv79z/CQF+kRdNNA+0lOgJsbXWpPwQaA/7HP0L8voy25j3vNlB7TmS/S3d0w5vYKv9/RB/MUCrWPkPlALM9E+Sk53+jWWnK4Sjf3rrvd0GMzUrM2reTVr43e9L7fO+ObVWLOoXlIHflQugfYOoAPUngI1ML6+Rw8O+vTWx9RMUmN3fTOh/vSaWCeJmWbmjmFl3TFTHdc8+qKvXe9LcfbBrPROkuTpne7ka3b2l7fa6T8F+hE2+v+Q+FsFukF6ClRmPL3EGg3vEwOgpplfn9JYeJlZpAaXPeqh6326VWahZdf7UE06wTS+XOPpH+xT13sK4A3pKVDdt1hy+jVV0/dL1zs3NMbPJETTUgWhIjPVSqPrWmEPJvvk57fOOAD6gL6nQEVmkmguTE/Nna2poaH6smzja9D1Lt0eMzMv2owvOZXMJPNUQHIK9A3pKVDVt9jPT5mZTf9OJVd8FV7zMfMMg1NaZGZmZV5js1CMTbYu/u+udwlAGo37QCXGS3yNZ8bl28D8kXj2c9d73Hvp2uXAsVgkamJ8+XobNjQZY31pyn3mGWbTAHqH9BSo5rf4A9ek+/bZ3OlRH/SDpU1zWaUGRn1ira0GLc+MZA/0pHnhWUKHIFN7ylIZQP+QngLVxGtDz4zItwdGnudnD+Ze6zAx2uqBhL51z1rZrWRm40tPHT1PmUcD6CHSU6CaD7Gf/+16Z8bBbvWzmcjXlnrTlgQ66Id2+ke7kd8OZHueUncK9BDpKVCNF/s56HpnxsPuqNVqg721vtDZnqebrncJQBYj94EKjJd4+F/X+wPgInqeAoNAegpUkRznHHS9OwDOo+cpMBQ07gNAbsbXRB/ly5endzmHDh20sgNcr36E6HkKDATpKQDkYKZ60LTUWHZfS/M88iFHw0DPU2AgSE8B4CLj61G/VZxkqdqrUQ96ngIDQXoKAGeZiZaOJuGitpY+jp2j5ykwHKSnAOBkPH1zrqm000EH/aeDAv3IUdCB+Vt7gZ6nwGCQngKAg5lrlXrqoK3WNAcPFj1PgcEgPQWADLPSPPHEsx4Z3DRw9DwFBoP0FAASjKfvivdTfNIjzfNDR89TYEhITwEgxky1jo2zf9YfpKajQM9TYEBITwEgYqaJ/ogP9qnrPUJN6HkKDAjpKdArxtcsWpVICvRDBx3KDsgxnny9k6d3upOnd+FaR0/2MfV7Ez3og3x5CnTQX+2ucWSmetBEvjoffGT8WMqy02d6m44IPU+BASE9BXrC+JrpdyV7yHny5EuaG+lZf9nn3KXt5ef8zYm+xd7V00QT80WP7dQbGl+rWOLga6656SgxNJ5eogfP9nP7e4Cm0PMUGBbSU6AAs9Tiwj+vzMr5/Nbe66LUDJuBtjporx/ydacPYfI408wE+iNnipo3OT0d0UE7/aODlvIleVqZu3QdawPnc6Hl8Qxpo4N8fZEnaaIX86mDiey/R31OtySnI0PPU2BQSE+BzkVJmiRttUw3OhpPXzSXJ8nT2uz0R12pm1lrJumgx2PSa1axtHZhNs02f4bHHTsesw3rLz19N7+2OyTJrKM65Ku3Exgcep4Cg/J/Xe8AcNvMxLxGyelBd/Y+mxLawD7an3XqDzrRi1leLfhBj3rUVz0rOPveK80kPdm7MDmdpub6XKlBZq6lpK19/5Zs251OjfqevjT57pm9mUW11zuS0xGi5ykwKNSeAkWsUnUufiKF28ndHH524cvEOPEn+3Dpre2j2URTHi2Mf7n5Od5z1My0drz3THNJj7FhUOkSfeM31QfUTLSSq54yiH5aqPHOBdHeePp29ixg8Oh5CgwN6SlQgD0oka6lvvZ+FKuRSSyb+Xh9tLzdml/1vzBBnZkXfcrX/G2fzUO6JtR4Wkt6Srxrtr+qV/spPFlLChypYOwdzbS1Gq5l9L6sDTVG9DwFBobGfaAjieT0Od9UTjbQp+jBJDbO/Jq/M898k3RI1ddmE7Om6k6PA7BcE97HU+RJ3vIq7o0XdWrYtTulFlpCz1NgYEhPgU6EjdtHh/zjxO1Obymlb3J+yabTQONrJindmSBd2qGZwUnG00LSNjsHgfESD39p4t0d3nry0rA/Th/ST9DzFOg30lOgA8bT99jDQkNx7FOs39zULHK+LEg8epC0S39F2+dUk2dTydpx0JOrZ2myEfa/ht4/7VR3+kzD/hiZSaaTCj1PgZ4jPQW68D32hbktnBT9Gft5aaa5XhMfnnVszHakh/ZeX8NEdqf3zcw8Gtad7pyl/5541EqyaN5mK/izQjHoL3qeAoNDegq0zswTvSoLT99knxOJW/Hpn36Tp8DdvGkf7c/62RrbUHKqU12lOxWcJR61U8d16uJw6GAhALSBnqfA4JCeAu2Lz1oa5F+oNCaekvpmXvDVnlyDpSINT4f/cO6oTTI5PbTR1G686Fah0Vle0SF6ngKDQ3oKtMzMEz3h/i5VSDK5uz5Jf9a6xGvqOPqJfJ1rXE0O1WonXXxr+H2qUAp6i56nwBCRngJtSyaT+SeHiknVK3q5B0i9ldBV/dGxd6kj9TReqo9gO+niqeG3oVkK0Dl6ngIDRHoKtMrMUnU5/5YsKFkD9FDp1W2aSmeS49+Se9hSunhq+KVGbaw+Zp6h5ynQe6SnQLuSY9NVejhOMsHzjV/o1WWT4up8nasX7aJp/20ZgH86OyNoVqb2lJ6nQP+RngLtSg7/CUqXk54TdFbo1fvOjv+9PltHXa/xU2tEleuTW5Dxorpsak9Hyfj0PAWG6KeudwC4JZk5Sn+UKkbKJrb3KrIcZ2df0fZwZjbTZMr63FLT/ru3H01TS6gG+kG/1s7Q8xQYJNJToE3pGRiD0iWlk7x8k/OflE+Lm5KcHKutpn0v+qnR/ojmOf+ytahVY3OeGo+bDqA5NO4DbUr3EC2fJmZeWaj3adD1iUjt+zTRBHtorXfgu+pF5DJrrG4WlzXU89Ss9Vp4vmEAuZGeAm0qNoCpP2U3rZthUW0Kut6BW9RUz1PjaybpruvjA8aLxn2gTV7qcdBg2Zf0qnHfeKmBXe1NkN/OeTho1cYKWMhoqufpoyTpr64PDxgv0lOgTdSeuiRnPN222Kfv7Z1+pifhCDXV8/Q3SYfSk8IBuIrGfWAsful6B0pLNu23uNxqrE6z2NAyDEMjPU/DpTXG2AUF6A3SU6BLXo1l/Ve9iC6kZzy17TXtS2/1px+rFII+amzO0+PtVLtxCtwY0lOgTU32QBxq78bUjKctv/tp/SxG1o9PIz1Pja+p2u2CAtwg0lOgTUHqcfmJjbKvHGp62s2Mpyen+rQPXZ8G1K6ZnqfHYVE07QONIj0F2pROIb3SJWVfGXR9cGWkZjwNWl8P/TT62is0byyGoIGep8Y73k7Ztmv5gRtDegq0KZ2e1lh7OtCpi5JN+63354uNvn7s+lSgTg31PD3W9ZOcAg0jPQXalJ4p0StdUnpK8EGuJJ6Z8XTl+h0zM16DO3FKiVkDaFwa6HlqPC0l0bQPNI70FGiR3aWb4Es3KaeH8rQ4HVONkjOe7pw1wN+0bvToolSDRSpHpYmep8fktP0uKMDNIT0F2vV36nHZEePpoTx/lyqla3kWM52p0X61dhd1uaB5f0xq73lq/LCGnSmlgMaRngLtStcDlppv03ipbgG7IU5zk57x1JVim2Pjfz1r/ZxzSkt9s+j6nKAejfQ8Pf3t0rQPNI70FGiV3aa+JsutVpR+1TDr/ZL9Tp+dKfaxfrXRumH7HNWfLhm/PxK19zw1q/Bm6jDQQYjAoJCeAm37I/FoUiohSjaKbwfaFy55FH9lf8F4LU2B/rYnw+zDOyiNDnQ7qbnnqZlFQ+eoOwVaQHoKtMzuUvU4D0VLCJO2N4OsOzWe4ol54JxJ8jh0qvGEwG6jqYImNPA3x/hmY171aqx5MeXaDfLKlv5viVJO+z2J3bbQ8xRoAekp0L5kQlp8vHjyFc+2npXE25ZMINzN9w86l7jW7Y9o+NXSzKoUhHPMTHudlmGYaNPcjYCr52n5Gngz1Uv0gMVMgVaQngKts4dEguoVm9DI+OH0NkcH+7nr4ykp2anB0ahupppI+rONnbGB3s7jmgS1fsbLfMbLxmpQa+x5amaJbgE07QOtID0F6pN7DSj7lGgiXJki00vFvyADRx+7PPtWfrWq+iQXFnA1vS4lBfZrO7tjtySoKcko8SqWtnQ811SyV1vPU7NMJtUsZgq0g/QUqKL0F7h9SNTnfM87XMTMEzVDn3OPIvYuPOrGPvbzIdtkauaaqNV+tfY59m5rJulPR0nFIU0fHM/5Dd0GZEotM3jQzM2rkh0QSE6BlpCeAlUkaz0LjcG397EE1cs3YtzME/VNn/N+6WYSiw/5XteoeGIdOPZ4KWlnWx2IYr/GarVXZtPKGPOectToV4sa91/H7w3sefbGonDvbDM1e60yt3E07QMtIT0FSjOevqSeKfT1Ze/11nA9NftrTfxmFft6DPS+QENjumG1B/N7Jvb+R+afv8uT1Hq/WvsQS1Cn+t+tNvKbib5nnlwX6oSS5q7nr733qZk6uhEUmKnUTM3KvGrjSKdZzBRozU9d7wAwJMaLapB8vddvmdqVuflNW/2jQ1gf+EO6NK7ePpp/onpTXy/m8VxPSzPVMlZXu9OnyyOIzSTseODJ1++ZpVM97c1WO+31Q8FxP10N7A17iuYgSKUCZqOJinRdqJF9MC/RbYCntdlqOea0JEw5T9HyTp7uNHXWdXp6MQdttVcQxk14Y5Fr7oitcwFfz3hV4s748mL7/l4fnO8yNXMd5LoNOh65p3e6k6/JxRYQppQC2mPZ2Nhyb5oXfsnr1TJ9bRJPrDRJ/cZML/ESNc+xp8UPbtr62fT0Gj3wo2cn2svK5jnKxvZsEtszK6sXzbrbm9x7vQp/WBV6VR1v7eV6p1fn05Pyb6tlqyfYL/oCLcIfNl3HBhvb0DYa94GO2YO91/tY77i5Xow1e7Mxa7Mxe2O1jtUIPdqf2+2P2eCRB/oUPXgxCzMzC/OiF/mSHro8SrvTr4mhaxOtzatZmdkt90at7FOqj/GxpaDKLBJtdr3YsZgp0B4a94HiAh2bCU//z3onL/pvDnan92aqz7HuAn6mmXGrtf4u1BAa38/LDZsdjeW3O3MXJt9erMfgVg9dpwI20L2ZaRn7FDzNNZfMTlvtddAPBV3vZU2CK1HicmpQLxTl5ld90VQTHbTToz2YhapF3rbEohZlz9Eg12YDhsrYrvcAQIyZaKqP8uTrnTwdFOigH9qMeb5FM9VD2OvvoK3WferpmUpRyzlo1cbsrWYVJmtPtvBCud0wVtJ9nz7vmo9vEd50bW3e+YkBSKL2FOgZuys+Cc7Q2W35NX0a37dnPZu5HiulqL6W5nkkNa01CjtK5K2vBXBD6HsKABfZJ3un9/qanZ21AK/ro+ihYwcB0nYAGdSeAsBVdqedHo2vie71QX7BdHOba+qlW+NLUuvTmQEYANJTAMjJHnQ4LWxpvNyDgtqfUXYYJlKlGmkAo0V6CgAl2IDUqqKPUn97HQPoEn1PAQBdmEnadL0TAPqI9BQA0DpznFKf2lMADqSnAID2/S7pwHRbAFxITwEA7ZtJWnW9EwD6ifQUANAys5AkPXW9HwD6ifQUANAq42kp6ZkJtwC4kZ4CANp1XIn+sevdANBXpKcAgBaZieaSvjIsCsA5pKcAgDatJQX6s+vdANBfpKcAgNaYjXxJn+l3CuA80lMAQEvMUlNJXy3T8QO4gPQUANAKM9dC0tYyKArARaSnAIAWGF8rSTt73/WeAOg70lMAQBt+6KAn+77r3QDQfz91vQMAgFtgA911vQ8AhoHaUwAAAPQI6SkAjMvc2My273qnxs6ss2c9XB0LQGGkpwAAAOgR0lMAAAD0COkpAAAAesTYrvcAAFAD48s7+4+BPXS9f+PG2Qfq9P8KeVMZ8b6IvgAAACJ0RVh0Y29tbWVudABSZW5kZXJlZCBieSBRdWlja0xhVGVYLmNvbSBJ0LYAAAAldEVYdGRhdGU6Y3JlYXRlADIwMjUtMDItMjJUMDE6MDY6MjYrMDk6MDDsSPZoAAAAJXRFWHRkYXRlOm1vZGlmeQAyMDI1LTAyLTIyVDAxOjA2OjI2KzA5OjAwnRVO1AAAAABJRU5ErkJggg==;" parent="1" vertex="1">
                    <mxGeometry x="43.36" y="337.5" width="516.58" height="120.5" as="geometry"/>
                </mxCell>
                <mxCell id="74" value="" style="shape=step;perimeter=stepPerimeter;whiteSpace=wrap;html=1;fixedSize=1;" parent="1" vertex="1">
                    <mxGeometry x="-1000" y="290" width="200" height="80" as="geometry"/>
                </mxCell>
                <mxCell id="75" value="" style="shape=step;perimeter=stepPerimeter;whiteSpace=wrap;html=1;fixedSize=1;" parent="1" vertex="1">
                    <mxGeometry x="-1000" y="406.5" width="200" height="80" as="geometry"/>
                </mxCell>
                <mxCell id="76" value="" style="shape=image;verticalLabelPosition=bottom;labelBackgroundColor=default;verticalAlign=top;aspect=fixed;imageAspect=0;image=data:image/png,iVBORw0KGgoAAAANSUhEUgAAAfcAAABKCAQAAAAMX9WzAAAABGdBTUEAALGPC/xhBQAAACBjSFJNAAB6JgAAgIQAAPoAAACA6AAAdTAAAOpgAAA6mAAAF3CculE8AAAAAmJLR0QA/4ePzL8AAAAJcEhZcwAADsQAAA7EAZUrDhsAAAAHdElNRQfpAhYTChALFV4OAAAV70lEQVR42u1d7XXbuNJ+8J5bANep4NId0JsKlu5AdipYpQP5bAV7lA7krSCRO5BvBRupA/FWcCV2wPcHIQoYgMRgQFla2eCPRDTxNZhvDAaqwUf5KNdZVIYb5MiQ4xNyHH4Bm+bu3GM76bzbOd/gtpvzDTJUuFNhclc5lihGGkmNHWrsUGGN16Y6N2AuragMfyB/407/br6de95jFzXBH0M426hzj/Aksy7wl2Zo/sIi9wWmJxpfjVcsmtfzAOcSi1qhPEO399e2BgG0vlLprraDoqJufvk/Rivbk40vwwQrtVWnYif/vHJz7gG8i3JlzI1ZfgbZYFtUrrlGawPcovRykVcs0a+eZwBucIccv3rUjQoPzebc8Dh/UQW+dNC5Qd6rkNb4CY4pdAMYNmtfubs22KscJVqcu8WvDhSvTpvRs87wqGf9CYWjJz4139CIHuydV/OI2gXmntcRLbyXBxkWntcrUVs5Jlh6Vq5Bdu55nhiKs/c1Xz3rCXlRNJA2tSUv9tEtZB6SX54bRJf3IPO8zJNapMjfnHuOJ4ehjfjrc4/njWZdWD/3DRpwbHdfocp8tHLU1M0THsjLiVqcRQu65OKaTZu0HY3mG36xDIH63FM8efls/bpKRd5TbMz5CUBG7sr1Hq8k7TQvDsFP1ewsoLnc4sI6GV2bGncGkV//dqhtu4tw9R9YbCa3AoTkjnvnjRAFmxe8kFdz9db7zpddXFh/T2+0qfF79+P6yd1mmT/PPZyzzPoVkJI7lTh1gnr5p/PmQ6E3iyPdx/GiNy8dmV85uStbtm+a+twjeqNizrtusUZG7nRjI0G9bDYOupUf8v1QlLsRN57leWjpdHEVl1E8Uu76i/JqNAJyH8ty74orrb6+HVguvIwNa7Os9b9XLt2JOfReLHfvrCXSfTTLXRcX3SZvBpRLL2PD2iwHG/bayf3Dcu+wRkLuY1ruAPA/582HMn8oJ7LcARw34HbnnuQpy/u03FXms9xl5D6i5Q4A+OQZ7gfBw2u5jxnsqsn8ygngXVrufRpNNLmPbrnDG839Qe7ASfbcj0WT+bWr8l+sX+/acpdI9/GtyV/PA5F/QHFhPT66Xju52xrSu7bcJeQ+tuXul+TXjoS84lruI0p3lQG4ckgTXfT9WO4mTdVHf088uY9suSv/0cyrdh/xyokt98PZ+uvedbf1o3duuUeT+wksd1/2lup9cOFAOanljoNWddXSncDwnVvu8dJ9fMv93vPuvXDh4ZJkuTP2Ntov6nNP86Tlw3K3qCmW3Me33H3S/SNqHkiy3NUaWxUKVroFcNXSneii70Rn7Lfc48l9bMu98CWyurZUSpKSYrmrNukVK+/dVWcDfp+W+6P1y9Joosj9BJb7H553HxHzQJrlPmF9/x0Vns89zZOWD8udzPpfCQ0BiRxTZZ7o+M11pg2MLimW+xcwzKxmo9X56y22hvRe8GogjjCO3KmCmWq5uwmna/yWNleVocRnlDprbo0KO2zwfUwDQWV4xB1ukCNHpq/K+IkVXke0DsWWu46XHgm5VYY/UCJHhgobrJrn4Pcl7vFrB/8dNljhRxgyzsrtUGGFFymODVnuqsAXPasaFSp8b17iWh+cxyPukOv8vwcIjHSJispR4h5Fh92vWJgtk43tmuB9VLI7+iIxlaST4LJBmdTeFOveP+4xHyMDKaZYDfx5mZY2sietYIOIhIo69eR0lHGUTubafX/LKAdgMwgZFFj2/nElwwqS+nTRvZ/0YMkiFT9QYD6Agcm4wRk5pnafpIWoydBXSSjlZkSVp5528tquMccUE8ywsBB2ljRiE/n3WOo+pphZCZ2T+kiHjWaiI7CdDnUWmGJmMOeF59vCQMUVFphhginmYegjN0h9jYWG6dwSBgLMIKQx0X0d3u71GGcGi9q3Xwlxw+5v1WGHORMxxWBiwWOlx37Au/1hvQnbJP2loWACSnkSKouyp2u0PCLVHjPKpS0yXct4ODIDLRYoPF8c0TY5gbZHSjIlnF6l6ETgnpZa9r49rnI/wXfZ8NeYOtA3M+U7BN8lhfZoX1bNaJiSn5nBvtY2NFGkMWtC6muXqDHpepC0n1v4QOCkBZ0meKKNEQqN6ZSiYBJKOYr8QthOboG6txWLh0ezKWTdeLc+UjcQZ5sym/5lYUOj/Y+YdTorlBlvzHztHRSQ6RXY97EkC3NsQtPMqU/qDbOKwdGX1s9tJ/e8Ehy5lOAtMdBg268fdN8VMe0TqG99uKu/2Brr3z4OhcZ0S1+IZViHIMdHqMZbGsd+GJBGn/s4CW8Qe5CMum8jF9VqQ2i5G0ibbFBoSWiRoaWRrUmfAytokd7WeN8S4IC+RdA3YtWo5a6Jrbcvy+Zlrx3xbQwyeWT62y23dWcevdin6WBGNHCHQvndjma5I3ckuxA5LTtlG0IGawZRN4l0jIK1UBq5ExR6meVu1UpgNrq1rW++1o/cQOEALlhEoeWfJsDAzGw1VrBm5jO4JsYYmQRJ1ilID52c5rMTtjmj57seHhEffCNZ7k47WylqWojAk34me+C7vo4jZowU00Mvslk5M2ufPjU5Q47y2Ofhkfet2y0Z6DLrFP6gX8Ea36pBh8hBRm9Jtwi56Hm1jOiJIYDIKrF8K/zWDRi1TwDDifHSPnlP/9GTE1numI4m121zICjZdS1bQ+HVOaqTQXndWe4R7Q8ghfxJttzb1Q6MbKmJmIHoFintO9WZo7PYG0tMmHqQP2yGmXWC2E3oganpxnh2bJiFZ865t5GPAPRFlLKKgmzJNGiwknr2DVu6BQW7HWsMLPlucNgyOCp7hsEF6oWVrOLxSbTctY3uWn6552MWohOdbsLHIHKdI3d/gl43ytALyOwGt+SINsV2zGq8ZcyczICxQejM2dMLd5jRljsy5MgxwRwrzyXDi6RNPJuzRuyV2jUZ32f8r+nVzOLZzYQVj0+i5a4lqkNazhXCbKbvue2Xax/bfTLXmtiwTIFg/RjQBshKR/iB9D9BQUO0E5a25tCoh0K5QbTugY2F8LbWGn/iOSXYVM2t0TxHhT9uzLqqDAamHk8XhUdMEiWJJ+hGy3/tOaaaAchxi9JOAJYcMPwAeIN2P5PfVfPAaQ6+BGWymqxTfiTtMvC7IIC1N4OimpHg79+DbR1qHuYSOP2gMiytF7xDY3SOPtxmcqUV88P+Z48lpumxXoTbR3oQiCUYVMJMpS34rW07icOBXV2IUccMxEi33Htacbzd7Dk6Nfnqb7RS69tzj5j38fHiqmPQRERYHOYS/M42FbiOvcCee4MU6c45gtEeHtliN9YZdpUTvvcU2YCdA68Mfm/qAllAJ1lg3v3/WXquz5MBgNFSU+FebbUkTDzoqdNi+FqxZeZLxBxtGV03/EPOdp81q46tOUgPv5Te48FUp2VjoMrQXmYeOmQ0IedEuYeUOef/WHzDtdyTw0RlD7XJouvb0j3MZ80fYYurjStfyyOvvZY7l7sfaiYdM+osU8f+d7CA7yClAdMRrkSJ+1OqZ4VH6XgvYmT7Qf8anIMDK74eZHsUvL41XkNiFBz3cYAdPQpnJnGgH+WUGRMpjg/T8XZgZckjWMO/iROI2BpokWyLRdS0V4DF3umqsfuiarqHvTuGFndtsk5BD7m457IeHCbnZca8bDanvJgwpszJ7/hcLPSCqsEEjo7yvlBznZ39dMVxEbHNoNZQSTeacgA/PO/lN6naNWOU64FETL1F6jKluJDRD9SMvNvw1kaV+K9W0J+H8wV0Cv+hsI1gJ0Od1znJI3c3IeUZssmpKVmQF4F/ny5pyNNLe5hhr5Zqciqil1nu1lzSGfEdHry2tY0FP3iNeWrKGQWvpjRDXRH8gqZa+x5uVBVqiZVe1W9BnwXtgc8aeXfhMZQE13If4bxV/OMoUgIL2Yk8CoXO9Cdd2GOJWXpsOukv5Zz7nDMj8chsLIg75mH/jNidIWvOgrbYcqdrTQ/5ulEHgzNBYeUIYJ2llxoLPMudZbtfhuXuGUUmaIW+CIDTG4lMn9V4Nr38nHt/4Kv32zwWegT+MS4qG4YR7lVqTbPqUH8Le56OKCCM1lmbrdNzjkKnVBGd+HRwPAZWe+tnDyNio5H1jCzTRIsh0DA8QaBBSTOQjMhamHFYoGTP3arLOyo0RaR8TopklLv4BDWJDObvubvpVuSZYEy8WEQwbHEOCM6eewPevrubJPHNLXdVOFb3UtCMO5NwtNUD6xa1DHP1Ffdp6Qc99+XF5JbPwLVUnxB/e4z8nvSxXHyntdzdKDrLMajCMRrHUqHCBn9jE4MPSTjOXJ0guXuuNziHV/6L8ybGVXQod+R3Ha7SVOoO//FeW0lLjrX6LYkVpuSWb9eJ4zxqQ26jQqAJFsTdxyJnFJKaNtnymYuL5zapurtTdjBPDWCXlJvZwfGIMCYuY4xUqBqcx3KnKnWkKtqjLDENApIga/hJOfrjOgYjHG+Y8VamnUvkyOSWu+3ii7FGRWo5+ZmxewtZ5svhv6c/Do7FHL3ZWz97cTAeDOex3OkLQS44j3UWE91VMkk+Kk/O4KI16SEznj4KCfzOYrnbBMZzdsndghT21FE3Um7FgRE0wyMYqMm03Dnk7rwae5qM6YySOIsG0CJaEiPH1HucN3lsnkVrkMQ6entZimZu/8wiaorSQHj65G3CCZmLB8OKwdGMHmHpGQGbqQ7nljefQJjNhVjurhtFMgp65DLazmqq5rm5b37BLR7w3Ht3auyxnUM59X3uAFSOCRB7o0mS5W6vHfvKZXJ/LTe6zD6iy7fc4wPJxl6bFBxnuzRDUXXjXwIpKc5dZiKHCJ2L+DrEpmpemq/NLW7xzePuy1U4PstXku5zZ5aWFc0ja4mdbYErjIaK7bjiRpfZvm3+SKmbjNR0oyhHvzmX4ngdwVT56xOlirGVqpEVHZInRrTnHhkTFdGyaySIFL3TW+7aXIh2MiVY7jZsItaN/OQeRbFgyO7L9eoQF6ljaI3vqKOuQL4hwrbcw0dkLmDPHW5ku2QMVHaOdEUf0Dw7nFlws2rKnju7tFI9PgvRm++5C1V5+1gLH34UyytnC2xHv4iAQfzIAeBv4egHV2eQ3C/EcncLJ/CFlkfye/CwgspUwT8G01QErXNuTaOc3HLXdnu0EXOWPXd7dbyqvCoDRhPbT+Co8o73xZnz+ORORdqIlrsqDkFCw9L9Miz3EXirmhDu+dwv21Wptthjjb1ackm+ebXGJEGG01vuCz3zOrKeOAcf1VgiDnPafXr0EVVihbUaYqx8oUB1ibCnQCJw4gofhwIsVWVYY9XqS8Pkfinn3Clw48mJHizs9Z6rBVaddJ5EhDGaKCJBBvF97ryiJrqHeFVeHgQrle126kd/KGqbPnMIE5hYQgyHPkdmPfBrjEJEGpcpO85Qd9blERqR0v0slrsL3F1cdVWQEMmnPmCqkqBayVbpTRLnq5GHfk9suasMf7WtClbw7aPlbVXez6Ae4YNR3fP/oWKLgqonAUX0mkaWauDXUAmvzj1woNwBcr8gyz0V1Da/rppvvV+60jzeDpck/zi15T7X7OTP2IoEC+JiFUSMwjkq4jkdoUpk8J0QiBQEgMqJKOhLiG0zqyy2H6vPlSdpe2394kM5zFINxjgk3S/FckezIcCIIkFVkJncD3yZefrmlaM3XnJ456SWu5ponaWOysnfFvmeeyGz3Inj7NWribXy35XD8WaeLQq+9Y7SnvkniItaosTU0Rr5nni72KaIa7nnFmNk77ZG7H6O/5BdyaiMLSTWfaCuZwedHcZq9CLYzz/lnrsRRy443JQQBGsHtLL33El0uneXv69Fq09O9hg7dHVwta0f8svOF/6xk71/7uGtYGZlDZHCM4eB6fU09lYPCZKJQTo7s+cs4tsGbNI1Qh3GSbsxWrS8hdCZoL4IHg0cRsFmNfZP7xctCnsYtzVbBpYQUTCcjMoM9hKG2eg2vBc8WmyOd7U4jbP3YI2dV5jf1Jky1HmBwY84sk9Iha78pdKdzVYMVBBoQB6tIuIm88D89/FQ68WCqLz+5Cc/RXNwxbBHL0EY8+XcC2D+DGgDhClnAmi24mTvhwW9JZcBqT15tfB8Y73ngqLBmXLLd+MxSYKJdsgtgIQvbDaZwzLi2oQjUYhglHbOfaBdW1uRMCL58VUiLtj1bKLyMFw9qx7iNOYcuhE92JNTYxX3fc8q96wDYXSStGoOg6N6UExjJ8pxygaXKd85dlkuuN65Aesu7Z6RCVVw99UI0KIpOURjS7DchdHyBOmLnr/3zsYi4mywHxM7eNdWm21HwRO5xpHtEBlbbD8gOPTK2AzdJfctLOHY15jvjvFseACnfixgB20bQuxMRNVKeZQq3ZHEVgahFAdhT4sTj5tVdJEV+RljuYuuNWxA3JZ5T7tDRHM0rAZW3WKGfL+CuVb88+gHHWkVcWvRsNuwHf2cMGSakmNCZ+dvLHdydzQ4u3QnDrvBbCK26h+RC/TA87n3smUd2kiJ3ZfaWu73LTH3pt+Ivk1P44G4DUmGeF3TZBSErPW6hiTfoe+eERur1iBSLTfIi6UFYtKNhoFTFt72Kf0H6lw4+EMz47ffGaNUTXvdTBugn+EGtyh6b0Z9wQo7vQeeloZPumc5NWKsvjXeUFiVY2HM4Lk/hs5bu9Q73ox6atbt2m7wG6cXlSMzYH1Hb2bXpcYTKoSCRo7tZPiEAvlAPEIPrAKjnVoRbS/s29yhcivKsG5+iejVrHtn7oPr8bw294EWyi5qwTNmVWDZQapGdDJRteqwq8Jd/6qrDI940j1t8MCjFrXsdtKrxnOysluTbkXN8Zg11BwzAE92UNk0yHL6nzPcA2v5mlcO98/t7RKRe6roepj3ctgC804D2rNNhWX0YMZ6Mkkl3s0k3pr2xmkknhj9duopsr4d6x4s6fo2547MsnaXQrgc13HrU+mRYRL6htX62sZvI1/ixOrtqIt3a6QNCGISKKwYt5z3lSCfPUVROeZGLNEGr9hi58jKCvNGmK9GZfir66HGT1RYYwfgBhlucYPSiBeL0B5U8/bQAhAll63xLg041/g3X0siesFdggR9xgo5PuuRsDFOlVjqVarxA2vskOPewPUNnuSHkNQEf3U4UOEVW1QAbnCLHGYQ8Cvm8b0YWiPwgr9RIcctHnWPjqagcqy70TxjjQxfUMCrfRy3WvbYY4sttlhjjZX1rLHGGltsscdeS78Im3jsB4XHGXV8VukjQ4FFIAnlFvO4CLozSfe1NG+PJaPjJJTpdBLlbPWEPLFuWQu0ccAPkePSaX0IP9aYyfMlIe/B7y1jA/I4y4y+OpvAGaOoCe6Ra5u1xg4VNliNeXBUlSjwGQVuOkmxQ4UK6/Gy4VxyUVM8IZdIQlVijgIbvEq8BgCgMkzxBTky1PiJ1cDBpqFWJviCXLeywyvW+CG4Obiv9QJfUOBGt19hhxrVODioMjziATludNuv+D6kJakcX1EiR4YKGyx8Y/h/Hkrq4p7ZbToAAAAidEVYdGNvbW1lbnQAUmVuZGVyZWQgYnkgUXVpY2tMYVRlWC5jb20gSdC2AAAAJXRFWHRkYXRlOmNyZWF0ZQAyMDI1LTAyLTIyVDE5OjEwOjE2KzA5OjAwaVtsFwAAACV0RVh0ZGF0ZTptb2RpZnkAMjAyNS0wMi0yMlQxOToxMDoxNiswOTowMBgG1KsAAAAASUVORK5CYII=;" parent="1" vertex="1">
                    <mxGeometry x="-978.17" y="435" width="156.34" height="23" as="geometry"/>
                </mxCell>
                <mxCell id="77" value="" style="shape=image;verticalLabelPosition=bottom;labelBackgroundColor=default;verticalAlign=top;aspect=fixed;imageAspect=0;image=data:image/png,iVBORw0KGgoAAAANSUhEUgAAAUIAAABKCAQAAABkgJXOAAAABGdBTUEAALGPC/xhBQAAACBjSFJNAAB6JgAAgIQAAPoAAACA6AAAdTAAAOpgAAA6mAAAF3CculE8AAAAAmJLR0QA/4ePzL8AAAAJcEhZcwAADsQAAA7EAZUrDhsAAAAHdElNRQfpAhYTCwbm2toeAAAO1ElEQVR42u1d4XXbug7+2HMHYNMNlA2UdoLnbOC2E9TdwD2d4B3fDdw7Qetu4GzQKhvII0TeQO+HaFkASQmgZPtdu9SPRDIJkiAIgCABmhp/0nmTsbhDBosMb5Dh8AY81w+XbttJ+930+Q73bZ/vYLHDg5EQobH4iuzMbf5V/30JVJ0ymTm+Io//XptLt/Akvc7xj5tm4SQkwi1mF2j9Y/10gVpPmAaQfaWc0JS9DGxfv34lgnN36Y7cRLqyKSdMv4G/RBk/4WPLTu+QRUXKHr+xE8C7Azq6UCy9XBo/k6d7zABYAPd462Fxe+nmnSg94IPr9RvknkzdAqgTHlisA5+3SbAyzLFBFfjJpsD79zxY3lZ/Xa/n7ENepxFhDdjAx2zSIakvja4zD0dx6facqdc5ea1q1JDphH7yVc3nWiKIo6n+G6+JKN+fTVxcKr0jb7eiEVLK+Q0gmQj91fJoJNZ7PHRIbxRJ/ysS1QmvVSPkiU69LZBOhI/el+/j21fv8al9uX4ipBP596Wbc5FePwETcsL6eYoW1j9b4rtyIjSUDz7X+0u36Eyp2+99QzVJRGh8E810Gs0BUnk+vFwkBTjC9ScT5P5pnNDXCKfTaAr398o5IVNobkUjDPY6jQh9jXC6mXzQja6dCP9ohC3ViPaOefILTbf1bjIniF9fs5Zk8pbjA1e7a+z12qLqvO7r180/CZwwoBFOsihxyW3WXTMJ4kY1whj3TxHHJ7ARHpMjvmsXxh/J201rhGlE6GuE0yPx2omQSpOb1ggn4oRTnvszFsCVEyEzVNyIjdBYsmW3P1qW1UR4Yo3wcHbxuq2EVJbcuEaYwglPqhHisMF91ZyQ4fDGNcIUIhylEZphT5Umx/48eLlQ+qMREtY1ASeUa4SmQGnmA5nuAVw1J2Qa4e7WNUI1EY7RCE3jFiDyVxl3NvH/PN2mRviBvBHur+WEYzTCuSj/d+zw7Xy4uUD6oxGyXiu37QLOn2LHTFMgP27V3G5iKL/q7clOryvi1PbQFccyb7tjStYIjUWOyYSPsfiKGTJY7PCMbf1tMP8Mj3jrvP73eMEztvgxTADGYoZ3mHVK7rDFz1SFoU8jNDk+ul7tscMO3+uf0+ALMBYf8IDM+TgeMPA0jeJjMszwiNzhaIcnrLuQDfWr3LPTpyOcVFTuOc6RaTGJs8zM886r4pAxwzYKatPnnoUcm+iPW8yS2r4ir+v2+xxFsMB6rBcecqwisAcxIIIvaDkWtE4GQVWd5xGHlbhsiRojPfJYh9ZYYOngkgElA3BE0BZrLDHHAitCxMtgLVmHAAussXAly04mce87cOmAzV1dh6+Va+OyM3GqJlcSrmasvi1WgZ4kswbMCT62ru0HF97qMN5sMrP6dFX6HEXIDRz5VhOQYMONyyM5x8mw9Y4usOD8hHhOe2TYumNWWPWW3MhbHkS47UyqgmITeWeqLLX1eARY+KSGeVtDCvyM0APDk+P4jgyZ5GKsaAwCa6lvMDL3T5J7PINVHgbPI5gaNfL2q3VDUMUmCkEhHX43ZWIcop+ABwij+1q2PCLI7ZClkiEs6V0Z56VtvlwDn2G9DEk4l6PsjH/zeKxIU22iRthBZcJ8Y7AarkGIgzjiF6zOHoFJCKLsfG/IoojrYgyptq/FrCTTCB0JROsiupSYTJjOvO7Na13eUgrd60eUtbjJvGRqnCc9NBUnaYSklHK2BaCVIXSRl6yD2AFdhwyV4xWOLAZ6RgWRov0hFb5XpHfaKCQTNk6D+l7L0+RELlZIXH+L/hZpCECsEcIiwwwLvrZMITsCdyboxLIV2YP6KmnftoPeQY5NOIGChwQ+bRQ1CSQJGyWRzi6H3sFR8wzIQqZ+NE8WqT8RgbpntEbYIHigZRtHWgL0kwGuWuEn4e/U5GCF7feHZBAnpMzgwo6RoHDV6ybtWpSX4Gy452T1HOmDnABycdbYM1IjdLqfr1Fkgcwi9DPBNQ/DD5akwYykNoIV+yDgoax3vcYaJnlERNUhFEHPWQ8EpiOvz4Fa5CSwFGeNPSM1Qsd9vAH3go2JDSceguR6F61TaMdjulEls5qSlx7OycL1KaJ8uT+DEoBxcpFk85hXgD3It+38c4SfIweuLIAM95jRCEyjA4W8B4LbhO/Y+65+L4Ton25MKyk6GeQ2Lo/pU8KW2dso9CUWFLoUZHvGc+AohbHYkA+fReB5H0Mbt+LZUvFPgjJdc+Z4jTACxVtxirfTvJJyAaYWSyEboYpPHZ4g9/RUEnFPjn0ZzEeFvXQZM2AjDPQwCsrXCIVE1SqmYzXCeQwKe1XsYbCJpdjPSVqDUnEp3/CkrwtBexS2y9bKOkC2ntIjrIGVC46O9DxhevSZtfs7Vhg/hpm5d8z2ixSgsSxi9n8VraFiUXZAf5pzhNb/ZOYM9jfF8bCDiO3FmyeK5TVIYu4kzfwa4mXGwZgh5zIROEWYVw1Z43sgMoOJoiQNlizioDzAsrguLmgDHNRTlaRjY1sRO2TWX6XV4JlogsqEdGHiKcTiZUYT1mO8W2gG4EfiTJPMUc3JvZ6j6tHEfI1V/e4myzOYJfv2LBsbM8PGlfzWfx7TWCzJh5109D3PkuBSTESEJve6Lj+ceqfMH0sPyINHPOng/pABC5RMJ19ZyVTPknwwx1f2LoiZa3J8xcHl7O96SIXhNcgnrCjmjowT+hqhfCY33nOjPSnqXcggxDRCnecaLauZJinhjFJJ/l3/z2buMYheEjE5Zvjc8qc9PglOby/Yuzw0tGi6yohwjK9xDkidAEyGF6XHRXJ0K3bMfi+32bGj6iLFhIklja8x54QcP9xat6M9MY1bQoYscIHPMA9EQNzvFRZfqrjExkekXHLFV6PEV5Ae+VpAeaDIWzApTiCPWNAklGSGCrmN0L8vZsyp5MNTYa2wpvLdX7k1VWAjrCFamBj/8i+Nr7GFlEN9gT7yQnqcv6kWNKfVCP0dEsJDjebiyx12eMYv3Y0zJveWRhtxYeHoSMTxGF/jhv1LVOVmk289nJMgqJt0GmE6+aaUpMSkVGZoL8mbryjRjcc9gBeNsuGlj/yDIgabdLoKmKrvcabwM8NStlfSbKHppAoTjJqtqsDlVsKSSYKVvVpxbdw+y+rzxkapzkjHpfNoDkZU5DV6XCOJE2riEcquzjY5ckAdeSFdpKbzQcoZRMYKbxG0F9fGxTGvj3PK6YOKJNfg+RpHufHgtt0YjVCRGkvUSlnqEhohDegkM1YkGoMC9lleH9fXCkyaArGHfokLi0dneO/41PEIAZgMc0AbDWCURpiy9wuAxRST7hwE7nMTJY77YePI1GPjL4ym1wgFRHiOCNWNtepsfHAgKEVfShDG4PxK3lK+KGAljeUFJo9mds/eNaqEfHyUyqV68SBQX7M0lXqEjZB6iChOOrJX6UEBgkNxXb6NkC0IvcMN0y9L+MJHbE+V2ghrDB7lOotG2HBAlXFGOdN4StQIE4UxPXQgxx8XxjtvQfjCcyhwoG85cBKNcFgcn1wjdPqgemV8ERsh3SILCmMzM/1HDuQbdlwYe1tsXp+nJ0LuuDChRmjy1mqgZMcqG6GIbTdCVWHjc+XSt92YEEsWj6HQF7PQL+RFfMKcvZaCPKMjXHjwuZXQiktW/bhy2JzXGD5ZfdI7SzpngvXC+Pw2QnqWJLz51Thj9XEkIbfyYnuHl237nrcpEhP4UnkjsBHOjth4pQAFTKwRGot/GqgJnnjntxFSYRyeNh8QwtE+8n9fomf4dpFjp6eO/L/reetLw6PzCBxOIL1SgIqBS08rR+Qa7w4Ankao2xtNIl9vIz9wfNbMYBEyYL9AmVyQ+WOKuaLSKWS19ZA6t8afWHvyJsfy8ETvTtdeuX5SjfAYAzChbLpGyPwGxeWol0XQrOPw5elN8SB0QsxHPfNYbxKCdva3ne2Ui41Z7NXXCBu9fBnMzbJW/FN6Jz3YRzejlACNSTFXanjkK0crPVUXtErGIJI6JaEzKGn1HhkgL+qQnS2UdbjtbDEmdfOldthQ9KAGI3mgDyyjH+NFcYJCgWabUJ6+KoIQM/JNXKsGczSIDXA60lvBhGFr0t7eEW/mRGO1gxEMb0Qmnwi+56MeoBrqO9kHbOF9GsHuCeRuEMeE2Zt+ECt5z4NyhGCbUcWHqdPf4YgvLEzTQO7kgJ0thENg37znVzGm29iQx2cdyEO+94E7kUbItKuEMEkX0AjpUAe4metVhGQ6fR6K6DdYk1diq8sfGeXIOLDpNyhzAmFAvWnHZUYfOO+TnlwCKKaNTBLwIzTCxF1jNhR55Pdobwhp2d56Km3PCGwVPpE5YVv2XqTRZUYD6sshzi356BNhCcJVpcOVTDAdiPNAHIekyxHYq0YjTArqU4Mt0rII3L6hPOpuPaRFpqhcX+2OlRijrTzZ9gvxUEzw3tav+sMp+1GFYuBCYV7T114zdnPI4Um6UkJzPqOXlFSqACFfvi23kBBNW3ekxe19A82jEqzk1hMryK+6PEISvr3lqmuPfvjFHt79C38506h1W9UWd3jgkQVdmpkFdhgyvR7hWLxBjgzxO47TLlK8xDlC4EvnTHUXCswCawBPg44M753R1pqNH0HR5Nh0XNL/o9tDqh/bWwctCvMQ314zFh/wxdX0jPcSM3/9zTy2vd94ZwyPOGg9mesn89SOExkvs0IG4AtpYXABcq5HMGcDc46GWNNohIIwZaJ6WwEDG7OwBSEc+cOG3MRiiRa1ScTLcRyD95bAYj6URwS9oJKgc2nPnNQWuDHKqQBMqGOCgOipT6J4J5NGJHzaklTPVa/LO0Jv7a7Pat7kC5yjcapyV5Utif5UjLFAdIRsjdJdUNZcIbZh138l1EJsEht3gdi6rbHwlJTuVUDNFXCFaxkbM1yMExap99wRfqabzV0VW314rEYwyrX65rkAjANpJN9hR6BXPT8XWKbfL8guEjs+pcA0deyl9XKN7/b5HyxQIolrONFRpJvdYbFEgQo1KmxTT/Bhjk0LpcTav3tvFH5yrLBt4RfYYoPVRFZeiwW2KFvYq36Jggwr15ISm3Ab/geObUycbAWa8wAAACJ0RVh0Y29tbWVudABSZW5kZXJlZCBieSBRdWlja0xhVGVYLmNvbSBJ0LYAAAAldEVYdGRhdGU6Y3JlYXRlADIwMjUtMDItMjJUMTk6MTE6MDYrMDk6MDBKMwe3AAAAJXRFWHRkYXRlOm1vZGlmeQAyMDI1LTAyLTIyVDE5OjExOjA2KzA5OjAwO26/CwAAAABJRU5ErkJggg==;" parent="1" vertex="1">
                    <mxGeometry x="-962" y="311" width="124.01" height="28.5" as="geometry"/>
                </mxCell>
                <mxCell id="78" value="" style="shape=image;verticalLabelPosition=bottom;labelBackgroundColor=default;verticalAlign=top;aspect=fixed;imageAspect=0;image=data:image/png,iVBORw0KGgoAAAANSUhEUgAAAjYAAABeCAQAAACah5agAAAABGdBTUEAALGPC/xhBQAAACBjSFJNAAB6JgAAgIQAAPoAAACA6AAAdTAAAOpgAAA6mAAAF3CculE8AAAAAmJLR0QA/4ePzL8AAAAJcEhZcwAADsQAAA7EAZUrDhsAAAAHdElNRQfpAhYTDAUwkh1jAAAWfklEQVR42u1d7ZXbOLK9eGcD4HgjWDoD2RPByhnQngzkDOTjCHw0GdAbgS1noH4RzKozkDJ4JjPg+0GIQuGzAEJUa4zLH92kCIBAFQtVFyAgBoQgVvhfVPKkB/BT+Tv+B/n7K8t/QI9/D8/BYgr+RhAr7FEHb3sa3iXlvkELwNTGHhWuunfVwY/D13u3SAHwD8Y9nyezMQqvYqRRUeEtirH5tfCZYWqAtdgNnxJyv6SpwNPGN/dujgIA+B/GPT9nl/J072oWLAyuzmyScu8j7z/csykKLhDhMAoQK7wCAFR4hdeo0ThvfcIz/g89fkqF+AmUEOpXhKIzQI3XqLG23pgU4ogVXqHC71g5cgXOeMZf6HHGeTjfuzUKAKaxMRLVOFkul8i4wANxxMpy+Ty8npVrhZ3mH/X4ii9Df+/6FuhIMjbWZO+HH/euTMFLhlPV3sz1fUWrmJsnvC+G5mWCw9kYEGYP1RdTU+CD1JmzZajg8+zMd9N/P4Z3xdS8VCQZG0uc/P3eFSl44Rh15gnm6FMjqnlZT5xMP7y/dzUL3EgzNubsiP29K1LwwjHqzGF4gknXzvdtRqQMoxcshjSC2Eg0iHtXpOBlQ+rMb0M/Tcm7oh9+m5V3he6S+73rWeBGgmdjYWzK4HaBFxfGZugBy5hlJZrIDCneAgCeiql52UgJo0zGpkzaK/DjwtiM+NP4fV4gNYZoJZR/4UgxNiZjU2ZoFvghGRt51hq/r8QqIjcd1JQVvFAkcDaFsSmIxZWxkecHwz/+OnxMzHtkbGbyPgW3R7RnUxibgliojI3EzrhpkzwALhmbe9eyIIT4MKowNgWxMMIc6wB42keZeohW8GIRb2wKY1MQC5s5MHmbVJK4MDYPgmjOpjA2BbHQGRtAmRuj4t0QbTIKY/M4iPRsCmNTEAsLYwNg6GHOt0mZAVwYm4dBbBhVGJuCWLjCHDOQWgvO+n4UhbF5GMQam8LYFMTCYQ6GZ4tXHO/bFMbmYRDJ2RTGpiAWNsZG/tKYs37j9KkwNo+EKM+mMDYFsbAzNiOGH+ZqwiJuALwwNg+EuDCqMDYFsfCHOV+MK3GBVGFsHghxxqYwNgWx8JsDc0SqFmvwMX4tXrq8h0AUZ/OSGBtRY413GFfZ73HGE9o8q+iLNT5ihRrAGU/Yx8/9yFTDCh/wBjVeoUaFHj/xjAOe+LUUFT5jjRoVznjGwbcgvajR4B1q1AB6/BcHfM2xZIObsZG/7429Othb1y3B2IgKa/yONapJ037iGd/i1k1eRhIxpUx1e4e3U91GDfseLs1olZ8444AfAd0c2AdWxqUjP3XOAw2O1h9aVDNzri05H1FH5rLCHkfsY9Mp6XeOGg4YuPlijU671GHjuPNgzWI3W1KjzpyitGrgShHN2B55tUvJf+ORQocd+zkXkQS/FG9JQQ3DCnvnjwesPSkjmn6b0gTZFaDBiVRuiwZb7GVDd9dmQo0WJxzRRNfwkutFeB1Wie0UbW6w1hT8gB02aLDBTqn5JpjPRv7TYoOtkrLV7qsm1emmsrbTtdM88y3bovXeY77QTL1Cy2uLhOeusCMXjlPLtOSV3jLyWkQS3FIGDMBKafMDWmylfgVrhloxNEe0Fs30SC9GAKYlXPNTZ1GBmjyD1rNI9ZDmBuvY55QvxvFqWJRet2P3YrSnZiijkpYamqP5GqGZFGLLeIqTYnqvOSu5opb5GWWhlgo0y3uV8vKa++k1uR4dM/fxCRP9R+8TdddnwVaXPfEhjgEjsIgkLKW4jVp71S+jZq1yYmiY9CStXh1J6fA1Y0RgXMot5ED5jXJysqmYvOM0YACx0i0j99HUHLSrV5Fxe1vaI7J9P1TEkJ7cL+h0n8fbwgmagSStJ40vVrKVTPVWn4XtGTp1pgrc1RmXGN4KKgxgGyb2E9NA2qk5Sgt13qBjEUlIPXWVcu0+K1m7ztUBk/LIPfINcYZmfkOlaANDCHdmbMhLfHDeNTbIVustg1G9rJ2Rr6p4zOekQQHzRdXibX/YUcl7nUyIbIVGS3U9OckyB1jMthH7J3MiYcbGIlu2bt2CsSEhcCB4ViTt9HuXkYTU9o2zFNmak/fk6QJJRKBIToZPHj8ONTm13JcmhiH0yLkPjpNGVIC+8sFgxux/lOuXgxeM0dOKlYa2bZiPufRajpcBHSyvODlZSdUweuXJlFlVLlJqDMZmgKGm3roZOpGRsSHEZ5CtIt2vwzguIwmcgqXUSn6BFiOlSjMp/Z3AG09JDsvvbEHckbEhpibQ5xHLPAk0kGanNqyz4TlkIC2d9ZpqLRtj0uzOamOvDTlppRk1WibNy/DWjOHdWbQr7I1mZmzIM7DqTIyT7eVaRBJS5zbeUrZTewX1i9TqMGB6/8JdtvrEFt3ni6LTL+USclQVGEQt8UYYTyodzoPzF486BRSEwxXR14zZT8s6WvPHEVYmw3Jr40hND0YtvDoTlJiji/Cmy8vYTFzGeDDH4DRqwUizjCRGDQqUspcmhNGV0fdtCtI42k/Ji8r7ROxmHbAYY6O9vpxeUu8RDoH7R7tt8X4IycZr7kjGRpuxwH6tpbGx9P7SKW8d19Vj78lZPSKG/S06wwzCLOX6x9syMjaoSOkd31siXbCmH8tIQhrdPaMUZlemBfUR7ay9L4Zh4zbqnRgbrcc7sNLohtGvtKOw7A4qNQWcERJ6WgXubslphPl2y0BKyhR0o11w+ARGQJPu1zAZG3l35AB4TsZGq3PE6BtNeQ9JyHYLl8I2zJbwjdth0DL94SNbHNbq5T8Miow3c7bSLvjHFCzjBY7GCZYex9gYBpztQUy9lkUGo29lud5qF5pA3uMxw3PgMzbW1g6kzcfYxIe+zrR0qHgRSTiDKN1ksGl+y/xgpmaGBjq4D9Dpl+YLObrazAlyugMZuPsER9+i2WmGsLTG9g9g625uhJJfFMnyi8OpNgK8g/fJDujQ4TBnhk0MYyPvb41LTl8vH2OjSTkyR80fU2S4lCRceRiMD9s5MFLyg/sA5cHL5C6MjeEIVknpvKGXrJk9ZqamjsPYRLjjhq/IrJ3iudkmoo91twQX2mkiDxMhvSjGZoCDZXB4LrkYG6PMyLDM3SEtIwlZyjZYSkRLaY5FhPkNjavyMrkDY2MEQ3z7SntIP2OzszeLpXyGw66dVkElSaidIlJL/rLuxrOmDMnPlF8UY6PVLNguuRgbrReP9pR0pmlpSbgGNwz3gE9563of8cGNZqYq43dWJmYUd3PGxog5+YzGiZ/OFVcbasSZ0UoF7FUjIyzlRsXXj/XsXw07gsI5vESi/MbnjArELKSmw2TnYWyM8qK+ZBtg6Yanp11GEs7BdfpcMX6NNgkhIiU1U7whf8tNnX5pXhNFP3gMvaWlZNTMPVvlenBGotiMjaGizKBUmb7u6vFPsI9RJX1EMUuC45NWSanUwxYiZGJsjMHlyKf1dYnLSMKlv2mztyw1ijFTtHu28UiMTMxY+uaMjSFE/geNEYzNANSOcagoktkqYN9ISqdd4MxNVlcRcX/EX9l9JO20urn85BT86HRmwG6biZqFsTEG2xPyM3z+yeNfRhJO/U0uJb6TdbRFmEdiCWUJxqbTLvCDqAjGxpNLgn3nCtgSLHjDAazI+iRdfG94B8Zm1JnoIMHwaAfYiMYsjI2hYwlehuEbBeiFZSQRE9AbaelpRKCqtafljf0HY7XBm608LCr7AoRii4pc6CMWYfxAzn4kPhpdqrINJ9B2njh7llb8qJ2f6WKKYlxqsUaN13gLmu+fQ8qukVSCSyxzmrgQ+dCLH8YyoZ+MJ86wV5ShY2n56Zvq/WS1y5wSOaCrOEeUoq3/3EcsQVvT9rS+sQk9QCbGBnv4aE714I9E0fAnMarXegZWLhGMTcojdWjTSflHYWwsbT8epH/Nw9gYOsaana7lYRIMAU9gGUnMmBGdTiwzUgY9G91iIdNeUaJGA+C15ZeV0V/sOTkCmGHTCf4gZ19ZaWif5ezTo/YOOOOMZ/yF55lLuVPv6OaejdSZPmXB9OFZPEPfn+wj2eAlh18zR8f0J1GfPiSnZSSR/hYwtTgtZTiMutVeUaP6fLP88od+IWJ/g/TGUkE3SvvGSsMVsBmUvidnPYCfMQ5sCJp5O+fYM4HVFql68sV48TfE2OTYK8rQMXxPyOWNdt77b19GEhEBvYl0M8VIGTY2t2JsPgA4WyM73bzFeFIZPBuxIr4ciy/SBOzr0/Ue9Tyk8kpcPAxjM2L4IXrNm67ERtmWJMfu3rqOpb34ei7/ZbXLBS/OrzG0mM/YUJ7tbE8Z3qTOdBUzNJJoUMFFvOpONLs8LeRL9Q5or8fr8dbsNMm1SwZ9tiW2FZxrDszAdfJsRDXup5Q1sEx6VvkkKkJtu4wk0r379K6avjOu7jOaAssyx0ZSWJXlF5Mg5H83HJxWxMqFUoe8lfP4c2z0CzfYiMRbYnXz8hLn2Cg52AbA5VBqjjk2Fh1LkIJlSkiIHl5EEumlzJgKaJWVfoQ8m5swNqLGGsCT1XV9O6PEDIyNqGl/xfTjaDvFBH439mwejrEBMPSWvvGz/JuDsZmjY1e8184D3tYDMDa0XUJB4bVMPYhy6H/I2NyGsRmdYnsQpY9PxYxp5BiLSsiDH+uKSr+Sjwh2gEowy0giq8R5emLqRiPbLgdjY4yBJklB74hDo5bLSCKdsanjuUoJXhAV79nMZ2xENY72OIhRPQ5OZWwQtxvzBKoSvAFRvoBfaee3NjWPyNgAGJ4sLfM5G2NTaecpjE1jXApN/Xwsxobt10CfAuscvfUamxvNsRkHll32Ty/xL3a+eebYpDQ5X8D6DNPbG5t7zbGZW7OdcWWDPH6NafJTtFr3+Z9+1Tk23CAq5NncgLERlVQjVz+gK0JGxkasQlPqRJXkHbEFbISENzY26YOZychjDjCYQUklmiwhmolTQpoP2vlH/+3LSOIuc2xoza1OhFiLVcjY3IKxGU1Nzw7H+EIJNJaocMTB4v6qoBQZy9TMUqMUNY9BHm8vBvnMgWluPmcyZbP9Szl1Q3nWoNSXkUTyQEUqCSEqrUyLEyHWOOAo6kjPZi5jI2oZRLnJNE0RuLaZ0VhjbfxKQRmjlJGoUJrec5YfeWZUxyCTZwNbILXKwtiYJj4+v8/aefjz2GUksfwcGzrb3v5hzXsAGM4eY3MTxuZCuLrJtLPnzIdwY70Dghab1pjnd8QJOIZ4m4+FPZtsjA2A4ex43vm16LXz0Lfaei1XGv/yidEl3sOzWeKrKBpE2d/rDwCe/WFUdsZGtFJIZ48y9uSMr7ThxpJV9uKfCaXHCZg+WcWunwXiILwjII/L2EjsrFfnewVzDT59rvPwZyjBXRibuFKSzJTxQatl7rxYowLwzW9sMjM2oplcLt8rwh99oqBcjMnY1Jcqe1GRM0aPFy1g+mT/RDLEHmtszJk7Ch6ZsQEwPFnDzPnk87OWbx2TWqy0dn3HSPTC/Rrte0D+tBE6w8Y+TXf0fb7GejYzegSxUuas+KY/pX08SSNHW2M1rNx7z5kdkQLWnixKzUmNWzRwifcC+hqkmvEY8FqZjy/GlTxeAX3CV1Fp/0PO3rGeZxlJLM/YcBaZu+pp4AsX9ZjxVRRZDjG0LrD6bRJrSUPjWxfLk7rWodfuoksAcbZvoV9ScRZGVxcuTVwYUubR+b984X2xku+Q3y1l2DpuytH8SirLzhDa0qzpC4JzN05cRBLaacySnvSrKPZiuvTUeoeyCbE7m4wrD4f2APaIk6G4xia9tm3WR6UNKqr2pEGlMFqJY56oGa8S2nNsoS6wTU3CeoPzDrnkdeIHsI48mZvVRuerdhLszzq1NYS5u2cvIok5pWin/I2Fgq2BDlOX6s4o215R+k4JkVUI77B9NC4ZRsW1yXug7NDy1br3xxQw6UeivzeeJBNQCc1Ly2oCrOWtblGS4bVWmfJVuwmu3GrSrfFN1CKSmLGkp9bG7HRU/227f47vvuwg3BkZlxJF2mmXGI1ADF3ApZMvLjVohg/m3tHbuPMYUbZu5rg9nSqkqOAUteyRTwwjnOgapx2oJl8hc89NWjnjfgTEt2H4S5qpifDzl5HEjAUiEpdm0brmleP3ScN5xZMk7EdZG4tKD2D5R6QS3nKlIu60ptYUwb0jcqDm/l0tzc1i2QImpfDX67n0XQdO/66dztw9MlBWHfvqRuSthrYZ9/IkJj9oxDRTE+WPLiOJ9FLCOz45U3a+EmW+03V7FmvLzoRxW3i2lhwG8B1W9WV0hAuTgreyzOtPmkrK+ypm2SdG2ZUleEul5DqW6WimFuUZzSz7TDBLao2LWZcEU3TpTmaMBl1xhMIykphTSnjHJ2dK1Uxp2i/bTNHW8TFXWGONNRps0FpfowEdNlhjjZXluKTdYW/1Zq4Hf2fLazWsvc4k/ilH5fUlKWSIxWfY1Qj26LhjrCX1bSLVSH1en7lBhc3UqkeuQdN805m7R1paYI0Nttg7OpUBHfbYosF6fk+uBMnV3Lw8reTQTdREzm30lsI3lcT8UmaZKTXtyvI8JCQzN7q97ZHm3GmvGNaTQVR6OoU1UHpWGXrEMSNkoJ4ql9KPb9L3RTZqeLL12ajQhO5x5k29jbyeRqzOzAx+prD6BjtIEi/+YPTO1Gs7pQxa31ISOUrRRmAjtVgp99rtV/Kqxv4g4InkPSJ5H8Kvj/3kVgnQjhbVuCpOiw220iidonsjGkjusZGe28XInbCasy+yIuhrOSe02KKx+oiH2LFA4uCyArWIvGN1ZjbTImuTkbEhWqO21RE7Ke2WzvhKNRO3lESOUjSfKNqcKn5fiwbb6UkMohmWePtWR2SsKxXhYP3B2ctbel0WnWrNqXPUQ6qddj0xXHCWMx5HbFNyJv1V5p0Xpzbu0OGEE4444iCPI4444YQOnaxXN38Sm+TnbjYtESuHnl00KHk30ttKIkcpZDgmyZxb3jnrjvQ3qnrWZqywwQEndBjQ4YhdYDJbjR2O42Qi7OeoyQA0U14DTjioZefcJB4r7HCQJXU44oA9djOffWR6jvNy+ZUONGhxkP5MJ+WdofWWkUR6KZKWOM6YtlthO2nvwcWPiuFGn2n8/SFaspbHn0N4TZOCgl8YxdgkQ3TkS9k3iQusFxT8IgjviFlghfZR/rmYmoICP4qxSQVzr5yCgoIRJYxSIGpU7IWeaRD12wI7TRYUPDSKZyMhtmLACUcxiB3j7g0xNZw1aAsKfnEUzwZykxd1zbxPoVVlxUm5vx9+u3cNCgpePopnAwB7bXnOP/y3i4bc/wUFBQVBFM8GYoWjfm0Q3hSqX/M8vLl3DQoKHgHFs7H5Mb3vdrElfs37ez9+QcFjoBgb2w4H3903i5rsGvR+gb2YCgr+FijGxtworvduprpX/v86lPk1BQVMFGNj7hX1xj2QLfbKxqs/ho8oKChgohib6ya7Pc74in+5AyOxUzbl+jEUtqagIAJlNOoyGhU0HmKj7PhXTE1BQSSKZ4PhGWcAjVj77hKtYmo+FVNTUBCL4tlAmWnjWCZC1LhyNT3+Xb7wLiiIR/FsAAzPGKneo9iJiv4marHHaTI1X/GvYmoKClJQPBsJhZF5xhP+AvAKr7FWR5/wqcyqKShIRTE2E0QNdbRJRY/vaItHU1AwB8XYEIgaDX7HCq9QoccZZ5zxrZiZgoL5+H+kW57W7x4IeAAAACJ0RVh0Y29tbWVudABSZW5kZXJlZCBieSBRdWlja0xhVGVYLmNvbSBJ0LYAAAAldEVYdGRhdGU6Y3JlYXRlADIwMjUtMDItMjJUMTk6MTI6MDUrMDk6MDCQ7KYpAAAAJXRFWHRkYXRlOm1vZGlmeQAyMDI1LTAyLTIyVDE5OjEyOjA1KzA5OjAw4bEelQAAAABJRU5ErkJggg==;" parent="1" vertex="1">
                    <mxGeometry x="1201.58" y="370.5" width="234.83" height="39" as="geometry"/>
                </mxCell>
                <mxCell id="79" value="" style="shape=step;perimeter=stepPerimeter;whiteSpace=wrap;html=1;fixedSize=1;" parent="1" vertex="1">
                    <mxGeometry x="2502" y="329.5" width="270" height="121" as="geometry"/>
                </mxCell>
                <mxCell id="80" value="" style="shape=image;verticalLabelPosition=bottom;labelBackgroundColor=default;verticalAlign=top;aspect=fixed;imageAspect=0;image=data:image/png,iVBORw0KGgoAAAANSUhEUgAAAjYAAABeCAQAAACah5agAAAABGdBTUEAALGPC/xhBQAAACBjSFJNAAB6JgAAgIQAAPoAAACA6AAAdTAAAOpgAAA6mAAAF3CculE8AAAAAmJLR0QA/4ePzL8AAAAJcEhZcwAADsQAAA7EAZUrDhsAAAAHdElNRQfpAhYTDAUwkh1jAAAWfklEQVR42u1d7ZXbOLK9eGcD4HgjWDoD2RPByhnQngzkDOTjCHw0GdAbgS1noH4RzKozkDJ4JjPg+0GIQuGzAEJUa4zLH92kCIBAFQtVFyAgBoQgVvhfVPKkB/BT+Tv+B/n7K8t/QI9/D8/BYgr+RhAr7FEHb3sa3iXlvkELwNTGHhWuunfVwY/D13u3SAHwD8Y9nyezMQqvYqRRUeEtirH5tfCZYWqAtdgNnxJyv6SpwNPGN/dujgIA+B/GPT9nl/J072oWLAyuzmyScu8j7z/csykKLhDhMAoQK7wCAFR4hdeo0ThvfcIz/g89fkqF+AmUEOpXhKIzQI3XqLG23pgU4ogVXqHC71g5cgXOeMZf6HHGeTjfuzUKAKaxMRLVOFkul8i4wANxxMpy+Ty8npVrhZ3mH/X4ii9Df+/6FuhIMjbWZO+HH/euTMFLhlPV3sz1fUWrmJsnvC+G5mWCw9kYEGYP1RdTU+CD1JmzZajg8+zMd9N/P4Z3xdS8VCQZG0uc/P3eFSl44Rh15gnm6FMjqnlZT5xMP7y/dzUL3EgzNubsiP29K1LwwjHqzGF4gknXzvdtRqQMoxcshjSC2Eg0iHtXpOBlQ+rMb0M/Tcm7oh9+m5V3he6S+73rWeBGgmdjYWzK4HaBFxfGZugBy5hlJZrIDCneAgCeiql52UgJo0zGpkzaK/DjwtiM+NP4fV4gNYZoJZR/4UgxNiZjU2ZoFvghGRt51hq/r8QqIjcd1JQVvFAkcDaFsSmIxZWxkecHwz/+OnxMzHtkbGbyPgW3R7RnUxibgliojI3EzrhpkzwALhmbe9eyIIT4MKowNgWxMMIc6wB42keZeohW8GIRb2wKY1MQC5s5MHmbVJK4MDYPgmjOpjA2BbHQGRtAmRuj4t0QbTIKY/M4iPRsCmNTEAsLYwNg6GHOt0mZAVwYm4dBbBhVGJuCWLjCHDOQWgvO+n4UhbF5GMQam8LYFMTCYQ6GZ4tXHO/bFMbmYRDJ2RTGpiAWNsZG/tKYs37j9KkwNo+EKM+mMDYFsbAzNiOGH+ZqwiJuALwwNg+EuDCqMDYFsfCHOV+MK3GBVGFsHghxxqYwNgWx8JsDc0SqFmvwMX4tXrq8h0AUZ/OSGBtRY413GFfZ73HGE9o8q+iLNT5ihRrAGU/Yx8/9yFTDCh/wBjVeoUaFHj/xjAOe+LUUFT5jjRoVznjGwbcgvajR4B1q1AB6/BcHfM2xZIObsZG/7429Othb1y3B2IgKa/yONapJ037iGd/i1k1eRhIxpUx1e4e3U91GDfseLs1olZ8444AfAd0c2AdWxqUjP3XOAw2O1h9aVDNzri05H1FH5rLCHkfsY9Mp6XeOGg4YuPlijU671GHjuPNgzWI3W1KjzpyitGrgShHN2B55tUvJf+ORQocd+zkXkQS/FG9JQQ3DCnvnjwesPSkjmn6b0gTZFaDBiVRuiwZb7GVDd9dmQo0WJxzRRNfwkutFeB1Wie0UbW6w1hT8gB02aLDBTqn5JpjPRv7TYoOtkrLV7qsm1emmsrbTtdM88y3bovXeY77QTL1Cy2uLhOeusCMXjlPLtOSV3jLyWkQS3FIGDMBKafMDWmylfgVrhloxNEe0Fs30SC9GAKYlXPNTZ1GBmjyD1rNI9ZDmBuvY55QvxvFqWJRet2P3YrSnZiijkpYamqP5GqGZFGLLeIqTYnqvOSu5opb5GWWhlgo0y3uV8vKa++k1uR4dM/fxCRP9R+8TdddnwVaXPfEhjgEjsIgkLKW4jVp71S+jZq1yYmiY9CStXh1J6fA1Y0RgXMot5ED5jXJysqmYvOM0YACx0i0j99HUHLSrV5Fxe1vaI7J9P1TEkJ7cL+h0n8fbwgmagSStJ40vVrKVTPVWn4XtGTp1pgrc1RmXGN4KKgxgGyb2E9NA2qk5Sgt13qBjEUlIPXWVcu0+K1m7ztUBk/LIPfINcYZmfkOlaANDCHdmbMhLfHDeNTbIVustg1G9rJ2Rr6p4zOekQQHzRdXibX/YUcl7nUyIbIVGS3U9OckyB1jMthH7J3MiYcbGIlu2bt2CsSEhcCB4ViTt9HuXkYTU9o2zFNmak/fk6QJJRKBIToZPHj8ONTm13JcmhiH0yLkPjpNGVIC+8sFgxux/lOuXgxeM0dOKlYa2bZiPufRajpcBHSyvODlZSdUweuXJlFlVLlJqDMZmgKGm3roZOpGRsSHEZ5CtIt2vwzguIwmcgqXUSn6BFiOlSjMp/Z3AG09JDsvvbEHckbEhpibQ5xHLPAk0kGanNqyz4TlkIC2d9ZpqLRtj0uzOamOvDTlppRk1WibNy/DWjOHdWbQr7I1mZmzIM7DqTIyT7eVaRBJS5zbeUrZTewX1i9TqMGB6/8JdtvrEFt3ni6LTL+USclQVGEQt8UYYTyodzoPzF486BRSEwxXR14zZT8s6WvPHEVYmw3Jr40hND0YtvDoTlJiji/Cmy8vYTFzGeDDH4DRqwUizjCRGDQqUspcmhNGV0fdtCtI42k/Ji8r7ROxmHbAYY6O9vpxeUu8RDoH7R7tt8X4IycZr7kjGRpuxwH6tpbGx9P7SKW8d19Vj78lZPSKG/S06wwzCLOX6x9syMjaoSOkd31siXbCmH8tIQhrdPaMUZlemBfUR7ay9L4Zh4zbqnRgbrcc7sNLohtGvtKOw7A4qNQWcERJ6WgXubslphPl2y0BKyhR0o11w+ARGQJPu1zAZG3l35AB4TsZGq3PE6BtNeQ9JyHYLl8I2zJbwjdth0DL94SNbHNbq5T8Miow3c7bSLvjHFCzjBY7GCZYex9gYBpztQUy9lkUGo29lud5qF5pA3uMxw3PgMzbW1g6kzcfYxIe+zrR0qHgRSTiDKN1ksGl+y/xgpmaGBjq4D9Dpl+YLObrazAlyugMZuPsER9+i2WmGsLTG9g9g625uhJJfFMnyi8OpNgK8g/fJDujQ4TBnhk0MYyPvb41LTl8vH2OjSTkyR80fU2S4lCRceRiMD9s5MFLyg/sA5cHL5C6MjeEIVknpvKGXrJk9ZqamjsPYRLjjhq/IrJ3iudkmoo91twQX2mkiDxMhvSjGZoCDZXB4LrkYG6PMyLDM3SEtIwlZyjZYSkRLaY5FhPkNjavyMrkDY2MEQ3z7SntIP2OzszeLpXyGw66dVkElSaidIlJL/rLuxrOmDMnPlF8UY6PVLNguuRgbrReP9pR0pmlpSbgGNwz3gE9563of8cGNZqYq43dWJmYUd3PGxog5+YzGiZ/OFVcbasSZ0UoF7FUjIyzlRsXXj/XsXw07gsI5vESi/MbnjArELKSmw2TnYWyM8qK+ZBtg6Yanp11GEs7BdfpcMX6NNgkhIiU1U7whf8tNnX5pXhNFP3gMvaWlZNTMPVvlenBGotiMjaGizKBUmb7u6vFPsI9RJX1EMUuC45NWSanUwxYiZGJsjMHlyKf1dYnLSMKlv2mztyw1ijFTtHu28UiMTMxY+uaMjSFE/geNEYzNANSOcagoktkqYN9ISqdd4MxNVlcRcX/EX9l9JO20urn85BT86HRmwG6biZqFsTEG2xPyM3z+yeNfRhJO/U0uJb6TdbRFmEdiCWUJxqbTLvCDqAjGxpNLgn3nCtgSLHjDAazI+iRdfG94B8Zm1JnoIMHwaAfYiMYsjI2hYwlehuEbBeiFZSQRE9AbaelpRKCqtafljf0HY7XBm608LCr7AoRii4pc6CMWYfxAzn4kPhpdqrINJ9B2njh7llb8qJ2f6WKKYlxqsUaN13gLmu+fQ8qukVSCSyxzmrgQ+dCLH8YyoZ+MJ86wV5ShY2n56Zvq/WS1y5wSOaCrOEeUoq3/3EcsQVvT9rS+sQk9QCbGBnv4aE714I9E0fAnMarXegZWLhGMTcojdWjTSflHYWwsbT8epH/Nw9gYOsaana7lYRIMAU9gGUnMmBGdTiwzUgY9G91iIdNeUaJGA+C15ZeV0V/sOTkCmGHTCf4gZ19ZaWif5ezTo/YOOOOMZ/yF55lLuVPv6OaejdSZPmXB9OFZPEPfn+wj2eAlh18zR8f0J1GfPiSnZSSR/hYwtTgtZTiMutVeUaP6fLP88od+IWJ/g/TGUkE3SvvGSsMVsBmUvidnPYCfMQ5sCJp5O+fYM4HVFql68sV48TfE2OTYK8rQMXxPyOWNdt77b19GEhEBvYl0M8VIGTY2t2JsPgA4WyM73bzFeFIZPBuxIr4ciy/SBOzr0/Ue9Tyk8kpcPAxjM2L4IXrNm67ERtmWJMfu3rqOpb34ei7/ZbXLBS/OrzG0mM/YUJ7tbE8Z3qTOdBUzNJJoUMFFvOpONLs8LeRL9Q5or8fr8dbsNMm1SwZ9tiW2FZxrDszAdfJsRDXup5Q1sEx6VvkkKkJtu4wk0r379K6avjOu7jOaAssyx0ZSWJXlF5Mg5H83HJxWxMqFUoe8lfP4c2z0CzfYiMRbYnXz8hLn2Cg52AbA5VBqjjk2Fh1LkIJlSkiIHl5EEumlzJgKaJWVfoQ8m5swNqLGGsCT1XV9O6PEDIyNqGl/xfTjaDvFBH439mwejrEBMPSWvvGz/JuDsZmjY1e8184D3tYDMDa0XUJB4bVMPYhy6H/I2NyGsRmdYnsQpY9PxYxp5BiLSsiDH+uKSr+Sjwh2gEowy0giq8R5emLqRiPbLgdjY4yBJklB74hDo5bLSCKdsanjuUoJXhAV79nMZ2xENY72OIhRPQ5OZWwQtxvzBKoSvAFRvoBfaee3NjWPyNgAGJ4sLfM5G2NTaecpjE1jXApN/Xwsxobt10CfAuscvfUamxvNsRkHll32Ty/xL3a+eebYpDQ5X8D6DNPbG5t7zbGZW7OdcWWDPH6NafJTtFr3+Z9+1Tk23CAq5NncgLERlVQjVz+gK0JGxkasQlPqRJXkHbEFbISENzY26YOZychjDjCYQUklmiwhmolTQpoP2vlH/+3LSOIuc2xoza1OhFiLVcjY3IKxGU1Nzw7H+EIJNJaocMTB4v6qoBQZy9TMUqMUNY9BHm8vBvnMgWluPmcyZbP9Szl1Q3nWoNSXkUTyQEUqCSEqrUyLEyHWOOAo6kjPZi5jI2oZRLnJNE0RuLaZ0VhjbfxKQRmjlJGoUJrec5YfeWZUxyCTZwNbILXKwtiYJj4+v8/aefjz2GUksfwcGzrb3v5hzXsAGM4eY3MTxuZCuLrJtLPnzIdwY70Dghab1pjnd8QJOIZ4m4+FPZtsjA2A4ex43vm16LXz0Lfaei1XGv/yidEl3sOzWeKrKBpE2d/rDwCe/WFUdsZGtFJIZ48y9uSMr7ThxpJV9uKfCaXHCZg+WcWunwXiILwjII/L2EjsrFfnewVzDT59rvPwZyjBXRibuFKSzJTxQatl7rxYowLwzW9sMjM2oplcLt8rwh99oqBcjMnY1Jcqe1GRM0aPFy1g+mT/RDLEHmtszJk7Ch6ZsQEwPFnDzPnk87OWbx2TWqy0dn3HSPTC/Rrte0D+tBE6w8Y+TXf0fb7GejYzegSxUuas+KY/pX08SSNHW2M1rNx7z5kdkQLWnixKzUmNWzRwifcC+hqkmvEY8FqZjy/GlTxeAX3CV1Fp/0PO3rGeZxlJLM/YcBaZu+pp4AsX9ZjxVRRZDjG0LrD6bRJrSUPjWxfLk7rWodfuoksAcbZvoV9ScRZGVxcuTVwYUubR+b984X2xku+Q3y1l2DpuytH8SirLzhDa0qzpC4JzN05cRBLaacySnvSrKPZiuvTUeoeyCbE7m4wrD4f2APaIk6G4xia9tm3WR6UNKqr2pEGlMFqJY56oGa8S2nNsoS6wTU3CeoPzDrnkdeIHsI48mZvVRuerdhLszzq1NYS5u2cvIok5pWin/I2Fgq2BDlOX6s4o215R+k4JkVUI77B9NC4ZRsW1yXug7NDy1br3xxQw6UeivzeeJBNQCc1Ly2oCrOWtblGS4bVWmfJVuwmu3GrSrfFN1CKSmLGkp9bG7HRU/227f47vvuwg3BkZlxJF2mmXGI1ADF3ApZMvLjVohg/m3tHbuPMYUbZu5rg9nSqkqOAUteyRTwwjnOgapx2oJl8hc89NWjnjfgTEt2H4S5qpifDzl5HEjAUiEpdm0brmleP3ScN5xZMk7EdZG4tKD2D5R6QS3nKlIu60ptYUwb0jcqDm/l0tzc1i2QImpfDX67n0XQdO/66dztw9MlBWHfvqRuSthrYZ9/IkJj9oxDRTE+WPLiOJ9FLCOz45U3a+EmW+03V7FmvLzoRxW3i2lhwG8B1W9WV0hAuTgreyzOtPmkrK+ypm2SdG2ZUleEul5DqW6WimFuUZzSz7TDBLao2LWZcEU3TpTmaMBl1xhMIykphTSnjHJ2dK1Uxp2i/bTNHW8TFXWGONNRps0FpfowEdNlhjjZXluKTdYW/1Zq4Hf2fLazWsvc4k/ilH5fUlKWSIxWfY1Qj26LhjrCX1bSLVSH1en7lBhc3UqkeuQdN805m7R1paYI0Nttg7OpUBHfbYosF6fk+uBMnV3Lw8reTQTdREzm30lsI3lcT8UmaZKTXtyvI8JCQzN7q97ZHm3GmvGNaTQVR6OoU1UHpWGXrEMSNkoJ4ql9KPb9L3RTZqeLL12ajQhO5x5k29jbyeRqzOzAx+prD6BjtIEi/+YPTO1Gs7pQxa31ISOUrRRmAjtVgp99rtV/Kqxv4g4InkPSJ5H8Kvj/3kVgnQjhbVuCpOiw220iidonsjGkjusZGe28XInbCasy+yIuhrOSe02KKx+oiH2LFA4uCyArWIvGN1ZjbTImuTkbEhWqO21RE7Ke2WzvhKNRO3lESOUjSfKNqcKn5fiwbb6UkMohmWePtWR2SsKxXhYP3B2ctbel0WnWrNqXPUQ6qddj0xXHCWMx5HbFNyJv1V5p0Xpzbu0OGEE4444iCPI4444YQOnaxXN38Sm+TnbjYtESuHnl00KHk30ttKIkcpZDgmyZxb3jnrjvQ3qnrWZqywwQEndBjQ4YhdYDJbjR2O42Qi7OeoyQA0U14DTjioZefcJB4r7HCQJXU44oA9djOffWR6jvNy+ZUONGhxkP5MJ+WdofWWkUR6KZKWOM6YtlthO2nvwcWPiuFGn2n8/SFaspbHn0N4TZOCgl8YxdgkQ3TkS9k3iQusFxT8IgjviFlghfZR/rmYmoICP4qxSQVzr5yCgoIRJYxSIGpU7IWeaRD12wI7TRYUPDSKZyMhtmLACUcxiB3j7g0xNZw1aAsKfnEUzwZykxd1zbxPoVVlxUm5vx9+u3cNCgpePopnAwB7bXnOP/y3i4bc/wUFBQVBFM8GYoWjfm0Q3hSqX/M8vLl3DQoKHgHFs7H5Mb3vdrElfs37ez9+QcFjoBgb2w4H3903i5rsGvR+gb2YCgr+FijGxtworvduprpX/v86lPk1BQVMFGNj7hX1xj2QLfbKxqs/ho8oKChgohib6ya7Pc74in+5AyOxUzbl+jEUtqagIAJlNOoyGhU0HmKj7PhXTE1BQSSKZ4PhGWcAjVj77hKtYmo+FVNTUBCL4tlAmWnjWCZC1LhyNT3+Xb7wLiiIR/FsAAzPGKneo9iJiv4marHHaTI1X/GvYmoKClJQPBsJhZF5xhP+AvAKr7FWR5/wqcyqKShIRTE2E0QNdbRJRY/vaItHU1AwB8XYEIgaDX7HCq9QoccZZ5zxrZiZgoL5+H+kW57W7x4IeAAAACJ0RVh0Y29tbWVudABSZW5kZXJlZCBieSBRdWlja0xhVGVYLmNvbSBJ0LYAAAAldEVYdGRhdGU6Y3JlYXRlADIwMjUtMDItMjJUMTk6MTI6MDUrMDk6MDCQ7KYpAAAAJXRFWHRkYXRlOm1vZGlmeQAyMDI1LTAyLTIyVDE5OjEyOjA1KzA5OjAw4bEelQAAAABJRU5ErkJggg==;" parent="1" vertex="1">
                    <mxGeometry x="2525.58" y="370.5" width="234.83" height="39" as="geometry"/>
                </mxCell>
                <mxCell id="81" value="" style="shape=step;perimeter=stepPerimeter;whiteSpace=wrap;html=1;fixedSize=1;" parent="1" vertex="1">
                    <mxGeometry x="-463" y="330" width="270" height="121" as="geometry"/>
                </mxCell>
                <mxCell id="82" value="" style="shape=image;verticalLabelPosition=bottom;labelBackgroundColor=default;verticalAlign=top;aspect=fixed;imageAspect=0;image=data:image/png,iVBORw0KGgoAAAANSUhEUgAAAjYAAABeCAQAAACah5agAAAABGdBTUEAALGPC/xhBQAAACBjSFJNAAB6JgAAgIQAAPoAAACA6AAAdTAAAOpgAAA6mAAAF3CculE8AAAAAmJLR0QA/4ePzL8AAAAJcEhZcwAADsQAAA7EAZUrDhsAAAAHdElNRQfpAhYTDAUwkh1jAAAWfklEQVR42u1d7ZXbOLK9eGcD4HgjWDoD2RPByhnQngzkDOTjCHw0GdAbgS1noH4RzKozkDJ4JjPg+0GIQuGzAEJUa4zLH92kCIBAFQtVFyAgBoQgVvhfVPKkB/BT+Tv+B/n7K8t/QI9/D8/BYgr+RhAr7FEHb3sa3iXlvkELwNTGHhWuunfVwY/D13u3SAHwD8Y9nyezMQqvYqRRUeEtirH5tfCZYWqAtdgNnxJyv6SpwNPGN/dujgIA+B/GPT9nl/J072oWLAyuzmyScu8j7z/csykKLhDhMAoQK7wCAFR4hdeo0ThvfcIz/g89fkqF+AmUEOpXhKIzQI3XqLG23pgU4ogVXqHC71g5cgXOeMZf6HHGeTjfuzUKAKaxMRLVOFkul8i4wANxxMpy+Ty8npVrhZ3mH/X4ii9Df+/6FuhIMjbWZO+HH/euTMFLhlPV3sz1fUWrmJsnvC+G5mWCw9kYEGYP1RdTU+CD1JmzZajg8+zMd9N/P4Z3xdS8VCQZG0uc/P3eFSl44Rh15gnm6FMjqnlZT5xMP7y/dzUL3EgzNubsiP29K1LwwjHqzGF4gknXzvdtRqQMoxcshjSC2Eg0iHtXpOBlQ+rMb0M/Tcm7oh9+m5V3he6S+73rWeBGgmdjYWzK4HaBFxfGZugBy5hlJZrIDCneAgCeiql52UgJo0zGpkzaK/DjwtiM+NP4fV4gNYZoJZR/4UgxNiZjU2ZoFvghGRt51hq/r8QqIjcd1JQVvFAkcDaFsSmIxZWxkecHwz/+OnxMzHtkbGbyPgW3R7RnUxibgliojI3EzrhpkzwALhmbe9eyIIT4MKowNgWxMMIc6wB42keZeohW8GIRb2wKY1MQC5s5MHmbVJK4MDYPgmjOpjA2BbHQGRtAmRuj4t0QbTIKY/M4iPRsCmNTEAsLYwNg6GHOt0mZAVwYm4dBbBhVGJuCWLjCHDOQWgvO+n4UhbF5GMQam8LYFMTCYQ6GZ4tXHO/bFMbmYRDJ2RTGpiAWNsZG/tKYs37j9KkwNo+EKM+mMDYFsbAzNiOGH+ZqwiJuALwwNg+EuDCqMDYFsfCHOV+MK3GBVGFsHghxxqYwNgWx8JsDc0SqFmvwMX4tXrq8h0AUZ/OSGBtRY413GFfZ73HGE9o8q+iLNT5ihRrAGU/Yx8/9yFTDCh/wBjVeoUaFHj/xjAOe+LUUFT5jjRoVznjGwbcgvajR4B1q1AB6/BcHfM2xZIObsZG/7429Othb1y3B2IgKa/yONapJ037iGd/i1k1eRhIxpUx1e4e3U91GDfseLs1olZ8444AfAd0c2AdWxqUjP3XOAw2O1h9aVDNzri05H1FH5rLCHkfsY9Mp6XeOGg4YuPlijU671GHjuPNgzWI3W1KjzpyitGrgShHN2B55tUvJf+ORQocd+zkXkQS/FG9JQQ3DCnvnjwesPSkjmn6b0gTZFaDBiVRuiwZb7GVDd9dmQo0WJxzRRNfwkutFeB1Wie0UbW6w1hT8gB02aLDBTqn5JpjPRv7TYoOtkrLV7qsm1emmsrbTtdM88y3bovXeY77QTL1Cy2uLhOeusCMXjlPLtOSV3jLyWkQS3FIGDMBKafMDWmylfgVrhloxNEe0Fs30SC9GAKYlXPNTZ1GBmjyD1rNI9ZDmBuvY55QvxvFqWJRet2P3YrSnZiijkpYamqP5GqGZFGLLeIqTYnqvOSu5opb5GWWhlgo0y3uV8vKa++k1uR4dM/fxCRP9R+8TdddnwVaXPfEhjgEjsIgkLKW4jVp71S+jZq1yYmiY9CStXh1J6fA1Y0RgXMot5ED5jXJysqmYvOM0YACx0i0j99HUHLSrV5Fxe1vaI7J9P1TEkJ7cL+h0n8fbwgmagSStJ40vVrKVTPVWn4XtGTp1pgrc1RmXGN4KKgxgGyb2E9NA2qk5Sgt13qBjEUlIPXWVcu0+K1m7ztUBk/LIPfINcYZmfkOlaANDCHdmbMhLfHDeNTbIVustg1G9rJ2Rr6p4zOekQQHzRdXibX/YUcl7nUyIbIVGS3U9OckyB1jMthH7J3MiYcbGIlu2bt2CsSEhcCB4ViTt9HuXkYTU9o2zFNmak/fk6QJJRKBIToZPHj8ONTm13JcmhiH0yLkPjpNGVIC+8sFgxux/lOuXgxeM0dOKlYa2bZiPufRajpcBHSyvODlZSdUweuXJlFlVLlJqDMZmgKGm3roZOpGRsSHEZ5CtIt2vwzguIwmcgqXUSn6BFiOlSjMp/Z3AG09JDsvvbEHckbEhpibQ5xHLPAk0kGanNqyz4TlkIC2d9ZpqLRtj0uzOamOvDTlppRk1WibNy/DWjOHdWbQr7I1mZmzIM7DqTIyT7eVaRBJS5zbeUrZTewX1i9TqMGB6/8JdtvrEFt3ni6LTL+USclQVGEQt8UYYTyodzoPzF486BRSEwxXR14zZT8s6WvPHEVYmw3Jr40hND0YtvDoTlJiji/Cmy8vYTFzGeDDH4DRqwUizjCRGDQqUspcmhNGV0fdtCtI42k/Ji8r7ROxmHbAYY6O9vpxeUu8RDoH7R7tt8X4IycZr7kjGRpuxwH6tpbGx9P7SKW8d19Vj78lZPSKG/S06wwzCLOX6x9syMjaoSOkd31siXbCmH8tIQhrdPaMUZlemBfUR7ay9L4Zh4zbqnRgbrcc7sNLohtGvtKOw7A4qNQWcERJ6WgXubslphPl2y0BKyhR0o11w+ARGQJPu1zAZG3l35AB4TsZGq3PE6BtNeQ9JyHYLl8I2zJbwjdth0DL94SNbHNbq5T8Miow3c7bSLvjHFCzjBY7GCZYex9gYBpztQUy9lkUGo29lud5qF5pA3uMxw3PgMzbW1g6kzcfYxIe+zrR0qHgRSTiDKN1ksGl+y/xgpmaGBjq4D9Dpl+YLObrazAlyugMZuPsER9+i2WmGsLTG9g9g625uhJJfFMnyi8OpNgK8g/fJDujQ4TBnhk0MYyPvb41LTl8vH2OjSTkyR80fU2S4lCRceRiMD9s5MFLyg/sA5cHL5C6MjeEIVknpvKGXrJk9ZqamjsPYRLjjhq/IrJ3iudkmoo91twQX2mkiDxMhvSjGZoCDZXB4LrkYG6PMyLDM3SEtIwlZyjZYSkRLaY5FhPkNjavyMrkDY2MEQ3z7SntIP2OzszeLpXyGw66dVkElSaidIlJL/rLuxrOmDMnPlF8UY6PVLNguuRgbrReP9pR0pmlpSbgGNwz3gE9563of8cGNZqYq43dWJmYUd3PGxog5+YzGiZ/OFVcbasSZ0UoF7FUjIyzlRsXXj/XsXw07gsI5vESi/MbnjArELKSmw2TnYWyM8qK+ZBtg6Yanp11GEs7BdfpcMX6NNgkhIiU1U7whf8tNnX5pXhNFP3gMvaWlZNTMPVvlenBGotiMjaGizKBUmb7u6vFPsI9RJX1EMUuC45NWSanUwxYiZGJsjMHlyKf1dYnLSMKlv2mztyw1ijFTtHu28UiMTMxY+uaMjSFE/geNEYzNANSOcagoktkqYN9ISqdd4MxNVlcRcX/EX9l9JO20urn85BT86HRmwG6biZqFsTEG2xPyM3z+yeNfRhJO/U0uJb6TdbRFmEdiCWUJxqbTLvCDqAjGxpNLgn3nCtgSLHjDAazI+iRdfG94B8Zm1JnoIMHwaAfYiMYsjI2hYwlehuEbBeiFZSQRE9AbaelpRKCqtafljf0HY7XBm608LCr7AoRii4pc6CMWYfxAzn4kPhpdqrINJ9B2njh7llb8qJ2f6WKKYlxqsUaN13gLmu+fQ8qukVSCSyxzmrgQ+dCLH8YyoZ+MJ86wV5ShY2n56Zvq/WS1y5wSOaCrOEeUoq3/3EcsQVvT9rS+sQk9QCbGBnv4aE714I9E0fAnMarXegZWLhGMTcojdWjTSflHYWwsbT8epH/Nw9gYOsaana7lYRIMAU9gGUnMmBGdTiwzUgY9G91iIdNeUaJGA+C15ZeV0V/sOTkCmGHTCf4gZ19ZaWif5ezTo/YOOOOMZ/yF55lLuVPv6OaejdSZPmXB9OFZPEPfn+wj2eAlh18zR8f0J1GfPiSnZSSR/hYwtTgtZTiMutVeUaP6fLP88od+IWJ/g/TGUkE3SvvGSsMVsBmUvidnPYCfMQ5sCJp5O+fYM4HVFql68sV48TfE2OTYK8rQMXxPyOWNdt77b19GEhEBvYl0M8VIGTY2t2JsPgA4WyM73bzFeFIZPBuxIr4ciy/SBOzr0/Ue9Tyk8kpcPAxjM2L4IXrNm67ERtmWJMfu3rqOpb34ei7/ZbXLBS/OrzG0mM/YUJ7tbE8Z3qTOdBUzNJJoUMFFvOpONLs8LeRL9Q5or8fr8dbsNMm1SwZ9tiW2FZxrDszAdfJsRDXup5Q1sEx6VvkkKkJtu4wk0r379K6avjOu7jOaAssyx0ZSWJXlF5Mg5H83HJxWxMqFUoe8lfP4c2z0CzfYiMRbYnXz8hLn2Cg52AbA5VBqjjk2Fh1LkIJlSkiIHl5EEumlzJgKaJWVfoQ8m5swNqLGGsCT1XV9O6PEDIyNqGl/xfTjaDvFBH439mwejrEBMPSWvvGz/JuDsZmjY1e8184D3tYDMDa0XUJB4bVMPYhy6H/I2NyGsRmdYnsQpY9PxYxp5BiLSsiDH+uKSr+Sjwh2gEowy0giq8R5emLqRiPbLgdjY4yBJklB74hDo5bLSCKdsanjuUoJXhAV79nMZ2xENY72OIhRPQ5OZWwQtxvzBKoSvAFRvoBfaee3NjWPyNgAGJ4sLfM5G2NTaecpjE1jXApN/Xwsxobt10CfAuscvfUamxvNsRkHll32Ty/xL3a+eebYpDQ5X8D6DNPbG5t7zbGZW7OdcWWDPH6NafJTtFr3+Z9+1Tk23CAq5NncgLERlVQjVz+gK0JGxkasQlPqRJXkHbEFbISENzY26YOZychjDjCYQUklmiwhmolTQpoP2vlH/+3LSOIuc2xoza1OhFiLVcjY3IKxGU1Nzw7H+EIJNJaocMTB4v6qoBQZy9TMUqMUNY9BHm8vBvnMgWluPmcyZbP9Szl1Q3nWoNSXkUTyQEUqCSEqrUyLEyHWOOAo6kjPZi5jI2oZRLnJNE0RuLaZ0VhjbfxKQRmjlJGoUJrec5YfeWZUxyCTZwNbILXKwtiYJj4+v8/aefjz2GUksfwcGzrb3v5hzXsAGM4eY3MTxuZCuLrJtLPnzIdwY70Dghab1pjnd8QJOIZ4m4+FPZtsjA2A4ex43vm16LXz0Lfaei1XGv/yidEl3sOzWeKrKBpE2d/rDwCe/WFUdsZGtFJIZ48y9uSMr7ThxpJV9uKfCaXHCZg+WcWunwXiILwjII/L2EjsrFfnewVzDT59rvPwZyjBXRibuFKSzJTxQatl7rxYowLwzW9sMjM2oplcLt8rwh99oqBcjMnY1Jcqe1GRM0aPFy1g+mT/RDLEHmtszJk7Ch6ZsQEwPFnDzPnk87OWbx2TWqy0dn3HSPTC/Rrte0D+tBE6w8Y+TXf0fb7GejYzegSxUuas+KY/pX08SSNHW2M1rNx7z5kdkQLWnixKzUmNWzRwifcC+hqkmvEY8FqZjy/GlTxeAX3CV1Fp/0PO3rGeZxlJLM/YcBaZu+pp4AsX9ZjxVRRZDjG0LrD6bRJrSUPjWxfLk7rWodfuoksAcbZvoV9ScRZGVxcuTVwYUubR+b984X2xku+Q3y1l2DpuytH8SirLzhDa0qzpC4JzN05cRBLaacySnvSrKPZiuvTUeoeyCbE7m4wrD4f2APaIk6G4xia9tm3WR6UNKqr2pEGlMFqJY56oGa8S2nNsoS6wTU3CeoPzDrnkdeIHsI48mZvVRuerdhLszzq1NYS5u2cvIok5pWin/I2Fgq2BDlOX6s4o215R+k4JkVUI77B9NC4ZRsW1yXug7NDy1br3xxQw6UeivzeeJBNQCc1Ly2oCrOWtblGS4bVWmfJVuwmu3GrSrfFN1CKSmLGkp9bG7HRU/227f47vvuwg3BkZlxJF2mmXGI1ADF3ApZMvLjVohg/m3tHbuPMYUbZu5rg9nSqkqOAUteyRTwwjnOgapx2oJl8hc89NWjnjfgTEt2H4S5qpifDzl5HEjAUiEpdm0brmleP3ScN5xZMk7EdZG4tKD2D5R6QS3nKlIu60ptYUwb0jcqDm/l0tzc1i2QImpfDX67n0XQdO/66dztw9MlBWHfvqRuSthrYZ9/IkJj9oxDRTE+WPLiOJ9FLCOz45U3a+EmW+03V7FmvLzoRxW3i2lhwG8B1W9WV0hAuTgreyzOtPmkrK+ypm2SdG2ZUleEul5DqW6WimFuUZzSz7TDBLao2LWZcEU3TpTmaMBl1xhMIykphTSnjHJ2dK1Uxp2i/bTNHW8TFXWGONNRps0FpfowEdNlhjjZXluKTdYW/1Zq4Hf2fLazWsvc4k/ilH5fUlKWSIxWfY1Qj26LhjrCX1bSLVSH1en7lBhc3UqkeuQdN805m7R1paYI0Nttg7OpUBHfbYosF6fk+uBMnV3Lw8reTQTdREzm30lsI3lcT8UmaZKTXtyvI8JCQzN7q97ZHm3GmvGNaTQVR6OoU1UHpWGXrEMSNkoJ4ql9KPb9L3RTZqeLL12ajQhO5x5k29jbyeRqzOzAx+prD6BjtIEi/+YPTO1Gs7pQxa31ISOUrRRmAjtVgp99rtV/Kqxv4g4InkPSJ5H8Kvj/3kVgnQjhbVuCpOiw220iidonsjGkjusZGe28XInbCasy+yIuhrOSe02KKx+oiH2LFA4uCyArWIvGN1ZjbTImuTkbEhWqO21RE7Ke2WzvhKNRO3lESOUjSfKNqcKn5fiwbb6UkMohmWePtWR2SsKxXhYP3B2ctbel0WnWrNqXPUQ6qddj0xXHCWMx5HbFNyJv1V5p0Xpzbu0OGEE4444iCPI4444YQOnaxXN38Sm+TnbjYtESuHnl00KHk30ttKIkcpZDgmyZxb3jnrjvQ3qnrWZqywwQEndBjQ4YhdYDJbjR2O42Qi7OeoyQA0U14DTjioZefcJB4r7HCQJXU44oA9djOffWR6jvNy+ZUONGhxkP5MJ+WdofWWkUR6KZKWOM6YtlthO2nvwcWPiuFGn2n8/SFaspbHn0N4TZOCgl8YxdgkQ3TkS9k3iQusFxT8IgjviFlghfZR/rmYmoICP4qxSQVzr5yCgoIRJYxSIGpU7IWeaRD12wI7TRYUPDSKZyMhtmLACUcxiB3j7g0xNZw1aAsKfnEUzwZykxd1zbxPoVVlxUm5vx9+u3cNCgpePopnAwB7bXnOP/y3i4bc/wUFBQVBFM8GYoWjfm0Q3hSqX/M8vLl3DQoKHgHFs7H5Mb3vdrElfs37ez9+QcFjoBgb2w4H3903i5rsGvR+gb2YCgr+FijGxtworvduprpX/v86lPk1BQVMFGNj7hX1xj2QLfbKxqs/ho8oKChgohib6ya7Pc74in+5AyOxUzbl+jEUtqagIAJlNOoyGhU0HmKj7PhXTE1BQSSKZ4PhGWcAjVj77hKtYmo+FVNTUBCL4tlAmWnjWCZC1LhyNT3+Xb7wLiiIR/FsAAzPGKneo9iJiv4marHHaTI1X/GvYmoKClJQPBsJhZF5xhP+AvAKr7FWR5/wqcyqKShIRTE2E0QNdbRJRY/vaItHU1AwB8XYEIgaDX7HCq9QoccZZ5zxrZiZgoL5+H+kW57W7x4IeAAAACJ0RVh0Y29tbWVudABSZW5kZXJlZCBieSBRdWlja0xhVGVYLmNvbSBJ0LYAAAAldEVYdGRhdGU6Y3JlYXRlADIwMjUtMDItMjJUMTk6MTI6MDUrMDk6MDCQ7KYpAAAAJXRFWHRkYXRlOm1vZGlmeQAyMDI1LTAyLTIyVDE5OjEyOjA1KzA5OjAw4bEelQAAAABJRU5ErkJggg==;" parent="1" vertex="1">
                    <mxGeometry x="-439.41999999999996" y="371" width="234.83" height="39" as="geometry"/>
                </mxCell>
                <mxCell id="83" value="&lt;font style=&quot;font-size: 38px;&quot;&gt;+&lt;/font&gt;" style="text;html=1;align=center;verticalAlign=middle;resizable=0;points=[];autosize=1;strokeColor=none;fillColor=none;" parent="1" vertex="1">
                    <mxGeometry x="-930" y="360" width="50" height="60" as="geometry"/>
                </mxCell>
                <mxCell id="85" value="" style="shape=step;perimeter=stepPerimeter;whiteSpace=wrap;html=1;fixedSize=1;" parent="1" vertex="1">
                    <mxGeometry x="2077" y="329" width="150" height="120.5" as="geometry"/>
                </mxCell>
                <mxCell id="86" value="" style="shape=step;perimeter=stepPerimeter;whiteSpace=wrap;html=1;fixedSize=1;" parent="1" vertex="1">
                    <mxGeometry x="767" y="329.5" width="150" height="120.5" as="geometry"/>
                </mxCell>
                <mxCell id="87" value="" style="shape=step;perimeter=stepPerimeter;whiteSpace=wrap;html=1;fixedSize=1;" parent="1" vertex="1">
                    <mxGeometry x="3044" y="329.5" width="220" height="120.5" as="geometry"/>
                </mxCell>
                <mxCell id="88" value="" style="shape=image;verticalLabelPosition=bottom;labelBackgroundColor=default;verticalAlign=top;aspect=fixed;imageAspect=0;image=data:image/png,iVBORw0KGgoAAAANSUhEUgAAAJQAAABKCAQAAAD3AbUAAAAABGdBTUEAALGPC/xhBQAAACBjSFJNAAB6JgAAgIQAAPoAAACA6AAAdTAAAOpgAAA6mAAAF3CculE8AAAAAmJLR0QA/4ePzL8AAAAJcEhZcwAADsQAAA7EAZUrDhsAAAAHdElNRQfpAhYTHCAxVNt1AAAG/ElEQVR42tVc23XbOBC9cAU4TgXLdKDsVhC5AyWpYJUO5LMV5Cgd0K4gR+7ALiFyB1IHa7ID5oOwCHDwmAEoix58xAaBC2A4M5gHHdVB1VgDAFoAL86/GgBwDZCfnrtP8FIErZ/rRcPnrkWE1Ab/QQf3eG0hB3cWQNb4ik+oUKECcESLJ/zqnulIjS6raV9nNtoi/nhKLAt1hcfAowar0djMo+0DS+ehHZJHaqbDOjHpMMzBFksssMQaO6u3GsarDkqjMmJb4RsWQSl9wjMOeEGLF59onkR5QLvBsgzNQv0bFT5ihSow5BlPOOB3GgtQFerTzp5w685RFR7NKi0+n54RTvuFcZ2nUai93Zs8tA4dsLAk4bVt/YYgKEtBBTvpxbCGkSrfRujMZcGxJmWTQbVZtbcVhDF3a7EpONPa9yHEKI+VKToU7RIdzIu5Pv1YC2cOFqiJS6E1chs4x9kZpUvwOljK8yicZxuCirmG2fGVx9a1Ej8kSdOi9fRPb767G8kktTEeHgB86Y6J4baB/wqvRFFjWSAD2JOuctVr5DhYWr+wJNEdz5Oo64K3/0J6dJE0QW2gAfxMyoQ9R2Nn/fpduOQSXkbRo1VprCC1pKeE7VAaWwDH7lY0bWu9ngcJi19X9TGKwugkUpimZTuwBSCUCVVZ1gn4wWONu+fzq96B9Gg5yOjIT92TaFptn47ju5MzX/sY9f+UR8M30vOhAK23NDJ50k4gdcec5oZyR55EZR9NrTyxoy5EE5lxwFE74BdzluN6dMeUq9W3XeFFPhXaAR2aIgeFPXs8iydRmTJgLvIxZRpztUEFQHbbQWlHpvm2zZ51hNfhrEjXXvYODU4fNVL3lZkx8qOJ5y2dX5lZkNGsTcf0ozRy6B4A8IX0592hIbQUufL7mznLXecO/hwr6RDbhVOiop4myDZoGdYNm5yVHdu69/LE35mxwT1MKoMa9Ey0rCjRyRhw08RuFm0VZhQ5mjQsNjfnuoM3yBYe2KBt5WxyEnXstIyVizrZ59j7KzlaM7w/Dxq7TmKhZah/h5HqsVR3dJmZvV55TVmhOVd9CPrqP1P3UGTODdq/YjMeWj1FtgPyECwuENHrmyBrbi7y09vzFBhWYrQsB8Waz1Y9R54Og8nhSpTESbwfvZeWjJBIVI+WK0/oWitXyVnXzlvdDPVrP6Po0TR3Y2qBFdx4jAbZH4VoD8yI309D7mCRGqpqa8yNE1MmDWDf2DdO7xY4PWsyiF07MReB5o4PoAz3blTpnZ2OS+reCTQsZh7NLLVKoDEdRzOzvA44BCQRW+dU/Mi9nAKWHq2hm/EUQbn+TIPMyDDChIBuhL45iDOKHo1165jtjN5GbpBt0AQ3ZBRtuHsJq7CxXOwQI72d9GiM92pmEdnz1J4ZzqNBE5Y4o4iDBWqwxQoLLLBGbTHpMVJk93bmHa3/vENzFmGg9apQXAMcnasOPGpQx+MFdndyE71d20yEdso9TN2gscIO+z4swh47bDnudKi7ER/tgKCCyoPsIfcwl3YV8LyIb66ivrlaR9O0wmhPrbEA8CP+XecbU+SNui2iwdBoEDG8no/TosI+nVtwAYmKyoCbLaBEJUOHwVQK7SIUYpTgaKZ6exeptgnYripsIK8Fn51CjJJYlRpAGy0jtaRHR9FmJ09hRrEjfrXEEsBt1PBStA9RNGkt+A2oXPVqAMcuXtHnfx9TA2iFn/S8CRUac1O9TSlKS3q8zkbCybgsBS5omj/wXP4pt+A0jhVkG7SZuQUp94BnzLkXeUt6dAHaZSjoQo67SFhs4ntG7lOAlv2ly7mb4AEZ8Qh2tY2JNnG2YBaMsmvBjGUa0qWd571NzKoFX5pRqaMdIKi2pcrqeZ+IvWW7ChqvqINg3AJ+ta0lPboA7RIUlIFIxD+uBTMkKo7WSKRzbhIVk4H+W2+JBMTRtBDtApShemqBNVLR3ZioX2Z8c5N7KKsFvwHlSNQ9gLb7KVonHBb32YKZy1OMUYGjmW+9pQdrSY82aOncwywozKiQstwDeO4ehOuEFLn/AyCZdF6EhKpnvhyXK0oIbb7ZgjEFL3RPxG/cgoxqmwftYNAmrAWfs4UfeMrqpnqrM5bxhMWmajvb6I7LqND/iZH5EU6g+wy14PM01QWV0vvo2LG/lmOgtfhr/vddT1eRZ74j5KfVfGjzqgXHKaIsNOIvMLxT/fHQpZpMokrStNQvm2vS10sxRo2dxLJqWzv6fXa14DjxJarl/XV3kMZsf1fyFGeUKz+l8Zg7e4a14DjFGGWHxalacJpstFLpvABxVU/+l5cxtHeQLRgTz5hPkVYbVK1cOi9APImaIr4f2P7OzHhPHGN+O4nhfcW4e19uwYmi3vQjJixyYzcl2lu3P9SrHDFoRkYvAAAAInRFWHRjb21tZW50AFJlbmRlcmVkIGJ5IFF1aWNrTGFUZVguY29tIEnQtgAAACV0RVh0ZGF0ZTpjcmVhdGUAMjAyNS0wMi0yMlQxOToyODozMiswOTowMFUEaYwAAAAldEVYdGRhdGU6bW9kaWZ5ADIwMjUtMDItMjJUMTk6Mjg6MzIrMDk6MDAkWdEwAAAAAElFTkSuQmCC;" parent="1" vertex="1">
                    <mxGeometry x="797" y="364.75" width="100" height="50" as="geometry"/>
                </mxCell>
                <mxCell id="91" value="" style="shape=image;verticalLabelPosition=bottom;labelBackgroundColor=default;verticalAlign=top;aspect=fixed;imageAspect=0;image=data:image/png,iVBORw0KGgoAAAANSUhEUgAAAZIAAABKCAQAAAA7kRqHAAAABGdBTUEAALGPC/xhBQAAACBjSFJNAAB6JgAAgIQAAPoAAACA6AAAdTAAAOpgAAA6mAAAF3CculE8AAAAAmJLR0QA/4ePzL8AAAAJcEhZcwAADsQAAA7EAZUrDhsAAAAHdElNRQfpAhYTHigNuTHFAAAP2UlEQVR42u1d7XnbOBJ+kecKwDod0B3Q2QpO6UDJVRClA/nZCu5ROlBcwa7SAb0VJFIHUgdnsgPcD0IU8UUMQICivRr+sEmRGGAwwMyLjwETuNFciHHcoQBHgfcocL4DDuLh2nl7+8Rayd/hvpP8HThOeGD+RsJK/A0ubxoAL72/7X+Qv99Z/gMa/FsckhanwoLw2g/xKY84u3zssPS+1OC/4ps3pSX+QDnwwm+iyVuWfy6xEk+yM7LTA4T3wo7w0vC1GpuAkp8l+dUyJd9ouewJadWDPx9zluOffuE4+HMt8I7Q1F5GN9bnpE2/Ib/5ISlfhdiSYEVa+nM0s7Tyu1EI/QL+5X9LfGVb3AEAOO5wj2JAPZ5xwP/Q4EWq8guQ1tUCxDP7DYV06O7A8R4Lh6tyn1F4TwBOKIznB/zCvlf+RpwIqT1ggdZBvccHozRVxnLc6AGf0cr+PUrDka+AOANVWB8ndaoCc1RBQGCvPd5l47eFwM7gV6dx8LDWHvDrSfafdhnOfElztwyy9o2fxPcr9gZtjv7UXLEiIiUCsRIrNHg0evxPiaymmsrpBtonJFW3G3FAXCNhpnPTiB9XLVqLPp61IpYxSRFoB+CL0QQbkQo7qCnfEMmUpMr+FxDZSCwDsH9duWglAIiD1kjAeHpWbIMCz+IHPmaTgTorckMkU9Lvyl0FxDaSj8aT3TXLxdpG+wzgp/ZTcoeLFVgD+ApYIV4aUlO+WZIpySL7RJYkmaMRR22jraB7lDlQyQ7AozgxbjhziWTAuJLrGyKZlvq12rQYM6KRWBBJ4kHeYLpYksyNhK1Q4iC+wZyDSafMNztyNWKq7H+1f2IsiYlIrl2RZ0RiNpLfwxNzE+PYAvgCwHQ508lATfmGSKYkq+xjGomJSK5akT1EAtFkHQTeAfgmh3lviOQtkl32EdMtxqMrT/9sICCwkXfqBF+deJpJrqICN37mibioE7W3VVsTXlqtdroTbElmi0jOPbnqcPFUTBjHE9pRLeCGSN4mWRFJjLs1V0RyzoU+U5LK4XoCx4+Oyw2RvEVyyD68kcwTkVys2VF7IcmsO1tgiUZCduCGSN4mOWSfwJLMYo7kkodf2u9pLMkWwJeeS5VrjkTd/NPc5kimI21+qrmswwtsJLNHJOYgcILl8t1ClPO93lHcEMlbIAciCbckc0ckMNR1tCVhZbcQ5Uw3RPIWySn70EYyd0QC6LZkvLv1BOBR2R5wQyRvkdyyDxxJNh5deWRbmSORz6qUOcQaxi514yWeqDTqHEnCOZ7b5ZW9Y45EIHCe5BUgEkuexgwCswIboDeqhRsieaP0WblThn/C3K3ZIxIA5iDwGIdri8tClDPdEMlbpAHZhzWS14BIEq4EZisscBKP2uMbInmLNCB7QrQUZ0KY3RxJS4kGgRnHBuqoVktTzZHoawcW+IgSBe7A0eAFJxxQ5aoBxvEZDyhkLMMGLzigwjMp9gulrG1p2rKc8IxtmpTj+BmyVzveAGhTGo8IYdeygq12MePCeK7eVpGp72CJt4KF9iDZEkSslNseZxTYOsPXHVNHqUGJjREHppcvFCPTXzpS3+aJCkPh55a9RZ8Gma2NRxv611mKLyBso1daTL4oNcYCArVZbXI8rSfqZKVRI0J2qo/tpSTYYoMVllgrFV8lG19baApVSX4rbHpSjW6WWCp1U2GNJdbYyS6gvjRAFNjiiD2Wo8pD5OeSfV/PaAwr49GC/nX6S/bpFmuWYhAYNYStgoxeaVQlGhwvVyFV5Sirc6P34Ervl8CeaQ1kbzYFLLs8riPSL5R62agNW3Y+Um0Vex2pZUH8LLLvvRvA1HiUSj0ihWCZI5G/bLUHPDjtLRxumvEgOG1nlfZva4FeM3BYbKWZRDqVMiWuKNTR3fS79wLD8ClB3442l02+cRTQlDbKVofw881P0Zm+GkRicQxDK7Qtq02wEyIS2QnshzCAokzRdh0LulKCy3eDSq44qc7mLOttPYwQMvBbD/Ojs301iMSiyoE+NI5wOBTTIRIpb4+CKPmJ7LS0mvXKquujyV2PYtkHSyQ7PtWlDXbtRvIz3Uwy41eDSCyxioOas20hiibUy5ULkWz8FdyTwvniEXzVeiXVqfxDVF5FZT0N2ejeBML9gLH8DMsdW4livojEUqwAgy0bWElKNxciIedac4KDm6zWRIgWVw4mkKyoYutqv7zM00Ki9CKen2XFHJX1K0IkAkaTDsgr9nA3vakQCTltbVleoAOsuXhk11EqFqURq+4poREbDm3QgEQCfpZSUZm/IkQiEB8zBSsMqOdkiESA6GRoFigoP9oYYEhHQtQArVMhqbvRHQcgkiT8LNaUyv4VIRKLAhDdItkvO0s2GSKhOz5qFYe4ldEjgF3D9GhANw52vkgz9UawJnq+0vCzjWlGVuKsEUmsCmCHwd7YeMATlUZHJOReXTtyhmzdDY4BNuhsT0nSvFxUmK/lLCBfKfhZfQ5aQq8MkVjOK6J4p0sMQr0JEQm991Q7A7JrYngGnPzluef1NCujBogctO/IiCQRP6stpi2Vfx37SPoUs1z+CWpEFJ2m2kfyPeC8LDXWMXEdLVtqNfo9YNvY+ZCNx6GXGNcO46BziNpTk5kfqbWZsHLWiETAMJFed8K9EKV7YypEQuwDLV8S1+cazjPRcoF3muDBTMYQB902HmO+S8bPKsE4oc4ckVjy7JtUah1KPviO/oAPp0kuTXT03zj/3cBrRNe5t3jF52rpYJhcJv3LuK+i+TlGQQnulrYhBZjnznadwmKmtEfzNANSyLezXT3wO8SJi9vJ+Id2TzhnnpVsh0rqwTfx1fO6zoF+nmaaEiXmR9mZ+PoQCQCclB2EfOhVtkEhj+Zx0xx3tkd8yZaGLAZVipVY4GvXyTT4QjhCdqXdE5rhKFnk5kcwSdkQSZzDQkEkFi/V6a9Lp8Xjz78VRGKMa2muCTgKlFhija1RZtIQs+HOBYRGiipRdn7hCYlUiAQ7RO1xoyASy5Dg8BShf/ZYf8ATSUEdXo9HJETViMpkjS29YzRWQ9GXu8SVKDs/r7uVC5GwAkvEBWmgIBJzOLS0O0hshdISEUV/a46xtiKwDFtQ3jqXEScc8BOHkBANrDTwH/1k5ghZTMHPj0lyIZJWLene44UoiIQYM0WegugDovNEJP9R7miSNINCfVLuGgAvZqSW6FwhKKJOjCym4Oc1SZkQCeow56L7joRILI6FfTNuRTPPGRGJesvJ3/GYL43aTH7cnCGpkIWTtXJLQyQT8AtNSKRBJBIxxIQTICESAUrMFN9ClAExEb4hlSYekahLWahzHdH+Ozlf+oPY9WSxGCsDP888SbY5ktbB+R7xJQ2RmDk1ZkrkKYhf/OhilohEdRGpbqsuhX2ickiyRIv+GSmLX5RPEvIbkL1vMjELImEFFgCeo1SNhkgA/+mJT+D9o3kGaHaIhHEtjiR9+ixXSVr6YDzJi0gm4edrJHmi/7agfRv+oSP6r50GA2ezBZbQYauL5hf9V42BThx/Ylx/kjy0qD48EnKgXYwsJuEXbEnGx55lvJ0hJfXhOtmj/9ppeCXwFsBXokhzRf9V0w1x4uKcrTuPhMaTbq3JktIde+JK6FT8Bsfz3gUkBKRBJO0igjgHoVUrWk+ue7W9XkcuRCFhovkhEsPZomK7F70kicpxIa7dZ0AI0/N7F5BQSOadJGO1RzlbXY5IoM59eqI8BZHmas0QkWhrlQ62RstKc+LQeC99I9FtVUKEYCvRRPwGB8kyzJHI3edRR53JAVP65lbHIDBtIYrydv+6/hyJWi5b6AJuz6l2GzEEHygreplq5dbYD2IvUTJ+xRC/QEsyFpGwQvaCMYO/5/zQ82BdLs/WlIUoPZoZIjEWYvxleakF9maKzcBdCtIcOnKZ/IikrXvd9qXhZ0MkPX7vyAkBKRDJeV1NnLPVmki6W6IPAvPuFET/QpTzN7NDJFref1jz8wmwdmkkR3UEnQbuxsniI2BpPJPwe0dOyJVYALGt7JVPkUOPAYgEgDlVVqBtnt+j1/fMAZGow7+W7obxdh7K8q3KhY/JPquYybtR7ui17JfFZ9g66Wn4DXhtiRFJb/F6lC8cikgs8U2WWIG4EMXp9eZCJNT96WqZ7CFwVq6castgRgQYlNqhSTI61ol6ayKSwq43ifgVw/yGEqqNR5yaCU/1RKVDX7WlFfVybV1H85DFmWvVFj3GpBp2z7r2Cnt3ispNxKEGSi4MpdSWXRKVVg+pZHmj3VhVXoefOyEzhPOIWFtK/xd7hmENgbEqHhpbNl+sLc+ZGM7v1J2Flqggsvm54hn3G1lkac4jlLYOQxl5o8Uz1qO62c4uczb7Kfi5kzJDOEcbZ80oRjksnboGHWs51hpmjP4bFc9dU4p6IGVHObXOL0gaikxqe9geNao7ITVu1NHO8o5T9gn4bX383IklQyS6okWmcsYGYY1E39EdepzPzBCJ312SnclQsNa+TIK3T3d64TqcQnWAvOWynIxrKm1rdReZ+G18/KiVKCKP51z5+wlSOpeGFuZuRUdOt1SAwNURiWZJLAMgraMwlE/FlgRJpDvm9Dh4RF2/e/UM0cgGq3ajptIeh2SUn58rMdPZCkYkWJgHsiDKHtFOwLN+qXr+gSeQj4nDEZRySDT4QTsg680XX7Ffu+ROp8uz50BspWsZjrLZ9uobrVSa0vo26OXnZ09sYfHlQypyIceRzCtYzbAymtouYPFBHw2FHnGztDwMbGbOtCMRybCCS/tE6EZ6/Gk7M4MOp1by6HLLiv55WcoAieZuyff49fgx0c6stwvFOO7wgA8oLZMrDR5xgrmSFGiXmXHc4R4FysFoid8oy0HYAhwF7h05AYBnHPATDV6GZ8BZ0e0qOYnByCyGFBaOcvxAhRc5iRUdMoEJ5fY+KB5J3U0CPvYD6rESf4PjhAfKmgBWdZPFg18wjs94lLI44BNx58qui+VilTtbyUnQTh/6+RHqeu21XtLp+W0gJrz8wKoMTdOT3vmfQTfPckgR9YoY84vbzd19fbFwPedCOkMBE6U9X956bjs4lr53SKlrh2xj0YHnpcLt4jF0llWWihL2IyM/WHFDrotS2OBG60mPdAjmiDJFDAprAwLBKfRkVGGFVefcHgPH/pY9p/iILdZYYokVNtgpelFFIck+7tphLaNCnjka59Oj6OVmixXWUrmPxEgw2fiZB6flu2qKqFHKrNeoccQRe+xRddceexxxRN0V0BfJcYWacNRz30e38W05X3ifuQeqZcfvooJEFRhQ7/MVt9hn40CPZ9Vax+MwFA4L7bRKli6yCrCNmfhFFv92jbvkSR81tvGDylihQg2BGntsRi4Z2qDCvkutwg6bRPHVOFaocOzldPDsEBTYyJwcsQvPQw5+/wfFk8Z5ZagbpwAAACJ0RVh0Y29tbWVudABSZW5kZXJlZCBieSBRdWlja0xhVGVYLmNvbSBJ0LYAAAAldEVYdGRhdGU6Y3JlYXRlADIwMjUtMDItMjJUMTk6MzA6NDArMDk6MDAaB+6IAAAAJXRFWHRkYXRlOm1vZGlmeQAyMDI1LTAyLTIyVDE5OjMwOjQwKzA5OjAwa1pWNAAAAABJRU5ErkJggg==;" parent="1" vertex="1">
                    <mxGeometry x="3074" y="369.87" width="171.12" height="31.5" as="geometry"/>
                </mxCell>
                <mxCell id="92" value="&lt;font style=&quot;font-size: 100px;&quot;&gt;&lt;b&gt;&lt;span style=&quot;color: rgb(63, 63, 63);&quot;&gt;&amp;nbsp;n_blocks x&amp;nbsp;&lt;/span&gt;Transformer block&lt;/b&gt;&lt;/font&gt;" style="text;html=1;align=center;verticalAlign=middle;resizable=0;points=[];autosize=1;strokeColor=none;fillColor=none;" parent="1" vertex="1">
                    <mxGeometry x="114" y="-390" width="1470" height="130" as="geometry"/>
                </mxCell>
                <mxCell id="93" value="&lt;font style=&quot;font-size: 70px;&quot;&gt;&lt;b&gt;Multi-head Attention&lt;/b&gt;&lt;/font&gt;" style="text;html=1;align=center;verticalAlign=middle;resizable=0;points=[];autosize=1;strokeColor=none;fillColor=none;" parent="1" vertex="1">
                    <mxGeometry x="140" y="-100" width="700" height="100" as="geometry"/>
                </mxCell>
                <mxCell id="94" value="&lt;font style=&quot;font-size: 70px;&quot;&gt;&lt;b&gt;MLP&lt;/b&gt;&lt;/font&gt;" style="text;html=1;align=center;verticalAlign=middle;resizable=0;points=[];autosize=1;strokeColor=none;fillColor=none;" parent="1" vertex="1">
                    <mxGeometry x="1865" y="-100" width="170" height="100" as="geometry"/>
                </mxCell>
                <mxCell id="97" value="" style="shape=image;verticalLabelPosition=bottom;labelBackgroundColor=default;verticalAlign=top;aspect=fixed;imageAspect=0;image=data:image/png,iVBORw0KGgoAAAANSUhEUgAAAS0AAABhCAQAAAApBz/GAAAABGdBTUEAALGPC/xhBQAAACBjSFJNAAB6JgAAgIQAAPoAAACA6AAAdTAAAOpgAAA6mAAAF3CculE8AAAAAmJLR0QA/4ePzL8AAAAJcEhZcwAADsQAAA7EAZUrDhsAAAAHdElNRQfpAhYTMCORbOFhAAANtElEQVR42u1d7ZWjuBK9tWcD0HgzoDOgZyN4OAN6NoJxZ2CfjWAPnYF7IpixM7Angn12BmYieG0y0PthIUpYSOA2bRvrcmYaI1EIUZRK9SFIYmgggQgjCIwg8IARIggAz3J96ZbdF36/dAPODZoisxY8IbDWh+K3Szfg7Bg3HF9dumH3BhragEgREgj8AYEEESv4JItLt+2+MDjWYrcWYad/5PLh0u25NwxvQKwg2H7Qsz4cQ2atz2w/aFofjiGzFlfog9T6cAxZ19rrITFoWhfAYKUWRUzXCjLrAhgsayFh+5tLN+YeMVzWCprWhTFc1or1XiHzSzfmHjFQ1iLBLPFBZl0EA2UtQ9MKNq2LYKisFTSti2Ogdi3a6QGxkJ8u3Zr7xCClVtC0rgGDZK2gaV0DhslaQdO6Atwwa1FCc1rRjiTtaUNTVlRJrWDTuhhuUo0ngQmejRhSACjwVS4BEtjrY0v5dOnW3ituMO2CUnxTrucCr1jhDSOMMYHAgmbyJWhaVwJ5UxsEVvpHVis7lEwwZwejS7f4frebGhApwkaHyoyP8wpphQRAHmxa14DfAZrjixFHfjoKAG8okCPHv8jl9pxNpRg/dTufrAmrz9gBTAf7bw89FtAaca9ScYMM8TkIGe2cNNZaGD+nlx4U7nkj8JSqvlBgjX/eI8NI4JeWWI5ZH8VG2N/jeeXmrYAmKhPzsCjBCEJSL9cR+KKuVC6FkMtHXSpBCcZqXYTImNAvrfQiFgkFFMjxBmAEcWQMqGON7NR1F2jDrupMVuXKYz8deu0wjC+99gSlWNQObSvWOh5SJnrXOrti868M4mjQmmLnlJKbU4ZHZOyHc5CDYD9Wlx4SLrNBYI+9ebCnKyX162DDSi0nTNWORaNhj66RRZCyC8ZIMK81oKMGZGhZe0/d9PTrDGuDYEKiJ9ZSV4qYuPGwVqR2MktZ+ejmntsqZddKn7dhFTZ1eeektmI/POxi2LTOMn245a3qud6vtC+fbHXM4kPUXjeb7jRSf51WblngEQUAIKEUAORSPmKMknKMXyRajuexYV1/9VRnGdP3qcIb+Dj/6dvxIZd7WjiOeRotC5SzOL3alVzLB8w0nbYJXN/Y/ta92gwJpuyHiAeo1/tCV+ot8kGu1cONiM0o5YsOeImohX+PzPnod0/1sMrDFeFU1ipa1Jmrv3/xg3KNcnqaUOalkRq/fJIoxGldEXqM15JLxYBp7fhWD5ZT8tnCOFsWXu2JaWVB07o0+g0FLIdEYR6WS62OO+WWoTu1kUNB07oi9Mta/6q/R7JJPqud1DlT/Gz88mhPFOK0rgr9slY5j/xsKSvl1hfH+SZLBk3rptAva5X6jm11q1LJHzvON87zRrkHTeuq0G8Ac2lIE8dFcksFBGBoU3Xw8zzMYuhljrpqheYH/dGCEV7lTJemGCNSbvocW6zwo25LI4EJxvgMASBHjhwruUQnkMAXdSWhXPwrLE9LEaEET/iswgNy5KdTUvf/WbXqDTm2mJ+cuGI12xtOGqOk9C+2DAxWfxbWso3PCWFEX809V0rYD8NFBYFNdcTwMhq1MdHuKdO9mxm0KlfSjtXaI2ntFEmY02tvUNkh7eReEYZja89CAxaIuFv/BFqStcp7b/qO3D7EHljLGoOgGUc0ns1v1uc95NERyVGJdmvbWUvH3LPARX2vlSc0xh4SO0zKNiNiHs4WbIFIP4QFr49E3+umdd9Wdzyv7hgRpooxWJaAl9aE0Yo1s6WaWRee86+MtTIfLYNdPA+Ou78tJbWuQcwkYqbc6YujIKGKDaf611E8CGMu4WljGYSys7nOGZt6mZSx6MrWf0bPeVlLs+DumJam5AxRugRr7R2sVd5Q4wPhYSFe1qp2N8ZxYWcIdkaGFRqkou6yPaLD/5Y6VdBP5mxhyaiOh6QZfuKkJPSAtfBezcta+po7+5PQz8lxd9cmtRa+2zYC+9ydzYdOU9M6dLGl0/Tj2aNRk2OD4h6NYTp62Ng5WhhrOqK5FqPVqN+wkKWNkxJjLketSr41jx5lTzXH6F2MtVxqvDO4jymmrndmYvw05BsWaGLtinZjG4x3v3Ei0SYuSj8e5ytiTEdEQ41qKPdEpFV32FijkriOaZLu32YZaWGtS675cDAWuKe2Wa22bcKcaBvZAQUrE0iBowjuOpqjwBgth1NK12ryLVBWGlKkJ+JMrnWPfLNSSrRPdum13hXwobqGy+X2Q/1N20bZAT2bTLXz2cI+OtTGmSsoX3X3JPbbohSr2hV4WNoEQOF7nI5gnYpW3sq+M7IdJIFysZM2XoKyTmp13lcs4Asx8oJi/cI6704Wun8TH80K/Uqtsmts6WilF9EnUarEsL8tnZNhASDHI3to+oGQwN8A/vG2sw3TuOq8ec6d6L02vs2qznO9iMevdTXTWlDR98m/svzP9sT7ZS39TtQLSKjuLnzpY3KNF7U7NRY6AiW0wRTAGo+y0PGrPBDnGwQK+QIPWn0p8T3BwH91olLVSY/K0k6UfKj8t/96arqC2hvQr6On5PHjQa+UVT/8ROSM/qeGgYz+xBw5IsR6EaTZgXXkll7UsJNShu8YIUMMLvXeh+Id57I17DtdKSJRY/s/O1HyQei9Zxo7a0ZHZ/jR5wyxNBA2zjj2bTN7EBsZQXpWY57PTAXW2WLX+VNbmxUzfdjsXtyE0iLLSGdUWeqzXli0oKRre6/Tdpt6rvQxM0RKFY/Xhjya6hndrO1He+VWPmKMV+QocEj0n+GTfDbPly/4hJm63hav+HQGfeT96DCIADA1t/q5wlrrNAi2/yip1eZVLir0OSCWajdT1Ekg00rt2jtzM6ATOVx1Crygw+1/CAq2P2pRf9Rwru33R7arI3qTWjRXGsa2UtRpgl+asbZyfArdGwSXL6JFfV6nrqxXv9/NDIa5oU27OqIn1qJKNn0FAIoooz3m+hbWbNmJgUMWTD50lFqymbW6DrM2nJdaDT2wFk1or02EW3ymOe2ww5S9GbO7kVgHVPPgNi+UK3nku6XW6ag00R6ex9lYiwTFNKUVSSabgBhzTIx3Yo2HLsrgIFBpm22s2dVjnteL5LaSNPR+5qrot2gXCcqogzX+VDV+TgUOI3QZCNwGy/ct4HarkGvaKikTUeR2GJHQjzm3zm9nmlH/8trQhaddOS1LIyyl3tn0BFNEHRJaTrRrdd1WVWTmtWwfZdeq2ZB8gdhVDzeE1bAYMmePcrtVY53K5rZzt0tZKSeeNn1g5MMSM4wlybF8bWvDuipUKrVoVasBMteOqIlrICOh3c8vjS6wJzUtEK5oBRJt/JWyYGtwuNONFxDIO5mLzia19thghRXmyFitK163ne02vv0sEswVG1rZyF3W/zLobtco20QVOe9seRXTNfVS8j4Hdo+N+QdKLjeHAu5LLrD2byfWUk3VQXA1Ma+70RkHeRGGEoiRIDUWhNtgggRxxWKIECPRCQzqHpEi5t2LGDHSWibMgZJ9sc6prmUZ7BDrITrz3kW11GNmLd3BzDhaOZmrCnhcHL9mOg7/6LXRfckzr1ZID335XtaqCNQ6q21U5YezVuoo1G+t1WNZbkJ3eXOdBhnH2GeHCRJEEoiQYMI0qFZpZ0wu7TFlz6Ncf3F1JLn22DVKuYh7J5EiUoxTtsv+Mrj6Mn2no0cW9KymsPNajvSTGuvn9OPqtKxCWcgP7RIAcDTLLYCjWiOgoZaLEu+vLR4oRYYI0aHfyKQ2a6vNyAKPlCBDDIEMGQG5vnKOmVzWaAMCAn80UMs1NSBFWjv31eHt5T1g9JH1Qyrq4PrYsElTpTo+VFNovfD2S5WFDAC0UBPb9Z0ZSFuAIhzytEc6T3mF9SmGmRqlHGusygkAbRDhDYX+B3x3X4MiJHhi1HJb/nhLvG9ArA0MhprHUpo65QSHbRjbGYwPbGJtBCOzyM9vXcL1A4aBs9i15IuyC0dmiLF8VbZbYc9OCRgyzmUy/ar+ZrUslGqJtrQTvYCbx5lYS251AJ45KOaaucKgeGc4m6NHzpRPPqaJcfxVDZZhULwznNOHWObOzGvyqTweBsW7whlZS251gnsYFAPOG/kgn80v8+jj1UzRlysdMBicO6imHPy+HQ2KBQAgMTWxgOHizKwl1yreuqa0s89Bzb1fuAgYBM4fCvi1/HyKGUct11oTC58LuAucnbVkoc2nNb1KPivzRETzbjQDbhE9BDDLZam0H7FQGQEx6ZIZEnCb6Cc2vtSranHg3JEdzBBDRy+sJYumhdnkizZD/Lz0rQf0i54yerR75zhPpDRDxC0+tBlww+gvWaz6nKY5KBasJDh+Boz+vj1d6VU1t7RcM43rHCsXBFwlTmUt4a+iAwRjM0AQkC96IYufwYA6VPSbPd0UIAj5pGxcAqswVxwmXKxVOI61WjisKUAQADBWtKIwVxwmLKzl+pCAXuGu5TAmZ3o+WHNLyxz/UbsxbYLkGh5sUquct9k+JFBmsbXPLGwKEITcaioxNkHnGhzq2WMs2dq+bsFe7XjXJdBnlCsC2PIaeWr3tC3FsN3CRhKUYIxIJVVzY4B9Ka+EzQ5z5DikuW+aE8pJ4Jde5rtw0nOngAfcFAiRdeDrjqfmVeUo7RBdGtL4B4Lfzrass0NXkku0/zRA0LkGgt/kFq9nWOh+DfcKK19broGZY9aqXsDV4//zUeb1ar7WCQAAACJ0RVh0Y29tbWVudABSZW5kZXJlZCBieSBRdWlja0xhVGVYLmNvbSBJ0LYAAAAldEVYdGRhdGU6Y3JlYXRlADIwMjUtMDItMjJUMTk6NDg6MzUrMDk6MDB4Fp1BAAAAJXRFWHRkYXRlOm1vZGlmeQAyMDI1LTAyLTIyVDE5OjQ4OjM1KzA5OjAwCUsl/QAAAABJRU5ErkJggg==;" parent="1" vertex="1">
                    <mxGeometry x="-821.83" y="940" width="202.07" height="65.12" as="geometry"/>
                </mxCell>
                <mxCell id="98" value="" style="shape=image;verticalLabelPosition=bottom;labelBackgroundColor=default;verticalAlign=top;aspect=fixed;imageAspect=0;image=data:image/png,iVBORw0KGgoAAAANSUhEUgAAAS0AAABhCAQAAAApBz/GAAAABGdBTUEAALGPC/xhBQAAACBjSFJNAAB6JgAAgIQAAPoAAACA6AAAdTAAAOpgAAA6mAAAF3CculE8AAAAAmJLR0QA/4ePzL8AAAAJcEhZcwAADsQAAA7EAZUrDhsAAAAHdElNRQfpAhYTMCORbOFhAAANtElEQVR42u1d7ZWjuBK9tWcD0HgzoDOgZyN4OAN6NoJxZ2CfjWAPnYF7IpixM7Angn12BmYieG0y0PthIUpYSOA2bRvrcmYaI1EIUZRK9SFIYmgggQgjCIwg8IARIggAz3J96ZbdF36/dAPODZoisxY8IbDWh+K3Szfg7Bg3HF9dumH3BhragEgREgj8AYEEESv4JItLt+2+MDjWYrcWYad/5PLh0u25NwxvQKwg2H7Qsz4cQ2atz2w/aFofjiGzFlfog9T6cAxZ19rrITFoWhfAYKUWRUzXCjLrAhgsayFh+5tLN+YeMVzWCprWhTFc1or1XiHzSzfmHjFQ1iLBLPFBZl0EA2UtQ9MKNq2LYKisFTSti2Ogdi3a6QGxkJ8u3Zr7xCClVtC0rgGDZK2gaV0DhslaQdO6Atwwa1FCc1rRjiTtaUNTVlRJrWDTuhhuUo0ngQmejRhSACjwVS4BEtjrY0v5dOnW3ituMO2CUnxTrucCr1jhDSOMMYHAgmbyJWhaVwJ5UxsEVvpHVis7lEwwZwejS7f4frebGhApwkaHyoyP8wpphQRAHmxa14DfAZrjixFHfjoKAG8okCPHv8jl9pxNpRg/dTufrAmrz9gBTAf7bw89FtAaca9ScYMM8TkIGe2cNNZaGD+nlx4U7nkj8JSqvlBgjX/eI8NI4JeWWI5ZH8VG2N/jeeXmrYAmKhPzsCjBCEJSL9cR+KKuVC6FkMtHXSpBCcZqXYTImNAvrfQiFgkFFMjxBmAEcWQMqGON7NR1F2jDrupMVuXKYz8deu0wjC+99gSlWNQObSvWOh5SJnrXOrti868M4mjQmmLnlJKbU4ZHZOyHc5CDYD9Wlx4SLrNBYI+9ebCnKyX162DDSi0nTNWORaNhj66RRZCyC8ZIMK81oKMGZGhZe0/d9PTrDGuDYEKiJ9ZSV4qYuPGwVqR2MktZ+ejmntsqZddKn7dhFTZ1eeektmI/POxi2LTOMn245a3qud6vtC+fbHXM4kPUXjeb7jRSf51WblngEQUAIKEUAORSPmKMknKMXyRajuexYV1/9VRnGdP3qcIb+Dj/6dvxIZd7WjiOeRotC5SzOL3alVzLB8w0nbYJXN/Y/ta92gwJpuyHiAeo1/tCV+ot8kGu1cONiM0o5YsOeImohX+PzPnod0/1sMrDFeFU1ipa1Jmrv3/xg3KNcnqaUOalkRq/fJIoxGldEXqM15JLxYBp7fhWD5ZT8tnCOFsWXu2JaWVB07o0+g0FLIdEYR6WS62OO+WWoTu1kUNB07oi9Mta/6q/R7JJPqud1DlT/Gz88mhPFOK0rgr9slY5j/xsKSvl1hfH+SZLBk3rptAva5X6jm11q1LJHzvON87zRrkHTeuq0G8Ac2lIE8dFcksFBGBoU3Xw8zzMYuhljrpqheYH/dGCEV7lTJemGCNSbvocW6zwo25LI4EJxvgMASBHjhwruUQnkMAXdSWhXPwrLE9LEaEET/iswgNy5KdTUvf/WbXqDTm2mJ+cuGI12xtOGqOk9C+2DAxWfxbWso3PCWFEX809V0rYD8NFBYFNdcTwMhq1MdHuKdO9mxm0KlfSjtXaI2ntFEmY02tvUNkh7eReEYZja89CAxaIuFv/BFqStcp7b/qO3D7EHljLGoOgGUc0ns1v1uc95NERyVGJdmvbWUvH3LPARX2vlSc0xh4SO0zKNiNiHs4WbIFIP4QFr49E3+umdd9Wdzyv7hgRpooxWJaAl9aE0Yo1s6WaWRee86+MtTIfLYNdPA+Ou78tJbWuQcwkYqbc6YujIKGKDaf611E8CGMu4WljGYSys7nOGZt6mZSx6MrWf0bPeVlLs+DumJam5AxRugRr7R2sVd5Q4wPhYSFe1qp2N8ZxYWcIdkaGFRqkou6yPaLD/5Y6VdBP5mxhyaiOh6QZfuKkJPSAtfBezcta+po7+5PQz8lxd9cmtRa+2zYC+9ydzYdOU9M6dLGl0/Tj2aNRk2OD4h6NYTp62Ng5WhhrOqK5FqPVqN+wkKWNkxJjLketSr41jx5lTzXH6F2MtVxqvDO4jymmrndmYvw05BsWaGLtinZjG4x3v3Ei0SYuSj8e5ytiTEdEQ41qKPdEpFV32FijkriOaZLu32YZaWGtS675cDAWuKe2Wa22bcKcaBvZAQUrE0iBowjuOpqjwBgth1NK12ryLVBWGlKkJ+JMrnWPfLNSSrRPdum13hXwobqGy+X2Q/1N20bZAT2bTLXz2cI+OtTGmSsoX3X3JPbbohSr2hV4WNoEQOF7nI5gnYpW3sq+M7IdJIFysZM2XoKyTmp13lcs4Asx8oJi/cI6704Wun8TH80K/Uqtsmts6WilF9EnUarEsL8tnZNhASDHI3to+oGQwN8A/vG2sw3TuOq8ec6d6L02vs2qznO9iMevdTXTWlDR98m/svzP9sT7ZS39TtQLSKjuLnzpY3KNF7U7NRY6AiW0wRTAGo+y0PGrPBDnGwQK+QIPWn0p8T3BwH91olLVSY/K0k6UfKj8t/96arqC2hvQr6On5PHjQa+UVT/8ROSM/qeGgYz+xBw5IsR6EaTZgXXkll7UsJNShu8YIUMMLvXeh+Id57I17DtdKSJRY/s/O1HyQei9Zxo7a0ZHZ/jR5wyxNBA2zjj2bTN7EBsZQXpWY57PTAXW2WLX+VNbmxUzfdjsXtyE0iLLSGdUWeqzXli0oKRre6/Tdpt6rvQxM0RKFY/Xhjya6hndrO1He+VWPmKMV+QocEj0n+GTfDbPly/4hJm63hav+HQGfeT96DCIADA1t/q5wlrrNAi2/yip1eZVLir0OSCWajdT1Ekg00rt2jtzM6ATOVx1Crygw+1/CAq2P2pRf9Rwru33R7arI3qTWjRXGsa2UtRpgl+asbZyfArdGwSXL6JFfV6nrqxXv9/NDIa5oU27OqIn1qJKNn0FAIoooz3m+hbWbNmJgUMWTD50lFqymbW6DrM2nJdaDT2wFk1or02EW3ymOe2ww5S9GbO7kVgHVPPgNi+UK3nku6XW6ag00R6ex9lYiwTFNKUVSSabgBhzTIx3Yo2HLsrgIFBpm22s2dVjnteL5LaSNPR+5qrot2gXCcqogzX+VDV+TgUOI3QZCNwGy/ct4HarkGvaKikTUeR2GJHQjzm3zm9nmlH/8trQhaddOS1LIyyl3tn0BFNEHRJaTrRrdd1WVWTmtWwfZdeq2ZB8gdhVDzeE1bAYMmePcrtVY53K5rZzt0tZKSeeNn1g5MMSM4wlybF8bWvDuipUKrVoVasBMteOqIlrICOh3c8vjS6wJzUtEK5oBRJt/JWyYGtwuNONFxDIO5mLzia19thghRXmyFitK163ne02vv0sEswVG1rZyF3W/zLobtco20QVOe9seRXTNfVS8j4Hdo+N+QdKLjeHAu5LLrD2byfWUk3VQXA1Ma+70RkHeRGGEoiRIDUWhNtgggRxxWKIECPRCQzqHpEi5t2LGDHSWibMgZJ9sc6prmUZ7BDrITrz3kW11GNmLd3BzDhaOZmrCnhcHL9mOg7/6LXRfckzr1ZID335XtaqCNQ6q21U5YezVuoo1G+t1WNZbkJ3eXOdBhnH2GeHCRJEEoiQYMI0qFZpZ0wu7TFlz6Ncf3F1JLn22DVKuYh7J5EiUoxTtsv+Mrj6Mn2no0cW9KymsPNajvSTGuvn9OPqtKxCWcgP7RIAcDTLLYCjWiOgoZaLEu+vLR4oRYYI0aHfyKQ2a6vNyAKPlCBDDIEMGQG5vnKOmVzWaAMCAn80UMs1NSBFWjv31eHt5T1g9JH1Qyrq4PrYsElTpTo+VFNovfD2S5WFDAC0UBPb9Z0ZSFuAIhzytEc6T3mF9SmGmRqlHGusygkAbRDhDYX+B3x3X4MiJHhi1HJb/nhLvG9ArA0MhprHUpo65QSHbRjbGYwPbGJtBCOzyM9vXcL1A4aBs9i15IuyC0dmiLF8VbZbYc9OCRgyzmUy/ar+ZrUslGqJtrQTvYCbx5lYS251AJ45KOaaucKgeGc4m6NHzpRPPqaJcfxVDZZhULwznNOHWObOzGvyqTweBsW7whlZS251gnsYFAPOG/kgn80v8+jj1UzRlysdMBicO6imHPy+HQ2KBQAgMTWxgOHizKwl1yreuqa0s89Bzb1fuAgYBM4fCvi1/HyKGUct11oTC58LuAucnbVkoc2nNb1KPivzRETzbjQDbhE9BDDLZam0H7FQGQEx6ZIZEnCb6Cc2vtSranHg3JEdzBBDRy+sJYumhdnkizZD/Lz0rQf0i54yerR75zhPpDRDxC0+tBlww+gvWaz6nKY5KBasJDh+Boz+vj1d6VU1t7RcM43rHCsXBFwlTmUt4a+iAwRjM0AQkC96IYufwYA6VPSbPd0UIAj5pGxcAqswVxwmXKxVOI61WjisKUAQADBWtKIwVxwmLKzl+pCAXuGu5TAmZ3o+WHNLyxz/UbsxbYLkGh5sUquct9k+JFBmsbXPLGwKEITcaioxNkHnGhzq2WMs2dq+bsFe7XjXJdBnlCsC2PIaeWr3tC3FsN3CRhKUYIxIJVVzY4B9Ka+EzQ5z5DikuW+aE8pJ4Jde5rtw0nOngAfcFAiRdeDrjqfmVeUo7RBdGtL4B4Lfzrass0NXkku0/zRA0LkGgt/kFq9nWOh+DfcKK19broGZY9aqXsDV4//zUeb1ar7WCQAAACJ0RVh0Y29tbWVudABSZW5kZXJlZCBieSBRdWlja0xhVGVYLmNvbSBJ0LYAAAAldEVYdGRhdGU6Y3JlYXRlADIwMjUtMDItMjJUMTk6NDg6MzUrMDk6MDB4Fp1BAAAAJXRFWHRkYXRlOm1vZGlmeQAyMDI1LTAyLTIyVDE5OjQ4OjM1KzA5OjAwCUsl/QAAAABJRU5ErkJggg==;" parent="1" vertex="1">
                    <mxGeometry x="-204.59000000000003" y="940" width="202.07" height="65.12" as="geometry"/>
                </mxCell>
                <mxCell id="99" value="" style="shape=image;verticalLabelPosition=bottom;labelBackgroundColor=default;verticalAlign=top;aspect=fixed;imageAspect=0;image=data:image/png,iVBORw0KGgoAAAANSUhEUgAAAS0AAABhCAQAAAApBz/GAAAABGdBTUEAALGPC/xhBQAAACBjSFJNAAB6JgAAgIQAAPoAAACA6AAAdTAAAOpgAAA6mAAAF3CculE8AAAAAmJLR0QA/4ePzL8AAAAJcEhZcwAADsQAAA7EAZUrDhsAAAAHdElNRQfpAhYTMCORbOFhAAANtElEQVR42u1d7ZWjuBK9tWcD0HgzoDOgZyN4OAN6NoJxZ2CfjWAPnYF7IpixM7Angn12BmYieG0y0PthIUpYSOA2bRvrcmYaI1EIUZRK9SFIYmgggQgjCIwg8IARIggAz3J96ZbdF36/dAPODZoisxY8IbDWh+K3Szfg7Bg3HF9dumH3BhragEgREgj8AYEEESv4JItLt+2+MDjWYrcWYad/5PLh0u25NwxvQKwg2H7Qsz4cQ2atz2w/aFofjiGzFlfog9T6cAxZ19rrITFoWhfAYKUWRUzXCjLrAhgsayFh+5tLN+YeMVzWCprWhTFc1or1XiHzSzfmHjFQ1iLBLPFBZl0EA2UtQ9MKNq2LYKisFTSti2Ogdi3a6QGxkJ8u3Zr7xCClVtC0rgGDZK2gaV0DhslaQdO6Atwwa1FCc1rRjiTtaUNTVlRJrWDTuhhuUo0ngQmejRhSACjwVS4BEtjrY0v5dOnW3ituMO2CUnxTrucCr1jhDSOMMYHAgmbyJWhaVwJ5UxsEVvpHVis7lEwwZwejS7f4frebGhApwkaHyoyP8wpphQRAHmxa14DfAZrjixFHfjoKAG8okCPHv8jl9pxNpRg/dTufrAmrz9gBTAf7bw89FtAaca9ScYMM8TkIGe2cNNZaGD+nlx4U7nkj8JSqvlBgjX/eI8NI4JeWWI5ZH8VG2N/jeeXmrYAmKhPzsCjBCEJSL9cR+KKuVC6FkMtHXSpBCcZqXYTImNAvrfQiFgkFFMjxBmAEcWQMqGON7NR1F2jDrupMVuXKYz8deu0wjC+99gSlWNQObSvWOh5SJnrXOrti868M4mjQmmLnlJKbU4ZHZOyHc5CDYD9Wlx4SLrNBYI+9ebCnKyX162DDSi0nTNWORaNhj66RRZCyC8ZIMK81oKMGZGhZe0/d9PTrDGuDYEKiJ9ZSV4qYuPGwVqR2MktZ+ejmntsqZddKn7dhFTZ1eeektmI/POxi2LTOMn245a3qud6vtC+fbHXM4kPUXjeb7jRSf51WblngEQUAIKEUAORSPmKMknKMXyRajuexYV1/9VRnGdP3qcIb+Dj/6dvxIZd7WjiOeRotC5SzOL3alVzLB8w0nbYJXN/Y/ta92gwJpuyHiAeo1/tCV+ot8kGu1cONiM0o5YsOeImohX+PzPnod0/1sMrDFeFU1ipa1Jmrv3/xg3KNcnqaUOalkRq/fJIoxGldEXqM15JLxYBp7fhWD5ZT8tnCOFsWXu2JaWVB07o0+g0FLIdEYR6WS62OO+WWoTu1kUNB07oi9Mta/6q/R7JJPqud1DlT/Gz88mhPFOK0rgr9slY5j/xsKSvl1hfH+SZLBk3rptAva5X6jm11q1LJHzvON87zRrkHTeuq0G8Ac2lIE8dFcksFBGBoU3Xw8zzMYuhljrpqheYH/dGCEV7lTJemGCNSbvocW6zwo25LI4EJxvgMASBHjhwruUQnkMAXdSWhXPwrLE9LEaEET/iswgNy5KdTUvf/WbXqDTm2mJ+cuGI12xtOGqOk9C+2DAxWfxbWso3PCWFEX809V0rYD8NFBYFNdcTwMhq1MdHuKdO9mxm0KlfSjtXaI2ntFEmY02tvUNkh7eReEYZja89CAxaIuFv/BFqStcp7b/qO3D7EHljLGoOgGUc0ns1v1uc95NERyVGJdmvbWUvH3LPARX2vlSc0xh4SO0zKNiNiHs4WbIFIP4QFr49E3+umdd9Wdzyv7hgRpooxWJaAl9aE0Yo1s6WaWRee86+MtTIfLYNdPA+Ou78tJbWuQcwkYqbc6YujIKGKDaf611E8CGMu4WljGYSys7nOGZt6mZSx6MrWf0bPeVlLs+DumJam5AxRugRr7R2sVd5Q4wPhYSFe1qp2N8ZxYWcIdkaGFRqkou6yPaLD/5Y6VdBP5mxhyaiOh6QZfuKkJPSAtfBezcta+po7+5PQz8lxd9cmtRa+2zYC+9ydzYdOU9M6dLGl0/Tj2aNRk2OD4h6NYTp62Ng5WhhrOqK5FqPVqN+wkKWNkxJjLketSr41jx5lTzXH6F2MtVxqvDO4jymmrndmYvw05BsWaGLtinZjG4x3v3Ei0SYuSj8e5ytiTEdEQ41qKPdEpFV32FijkriOaZLu32YZaWGtS675cDAWuKe2Wa22bcKcaBvZAQUrE0iBowjuOpqjwBgth1NK12ryLVBWGlKkJ+JMrnWPfLNSSrRPdum13hXwobqGy+X2Q/1N20bZAT2bTLXz2cI+OtTGmSsoX3X3JPbbohSr2hV4WNoEQOF7nI5gnYpW3sq+M7IdJIFysZM2XoKyTmp13lcs4Asx8oJi/cI6704Wun8TH80K/Uqtsmts6WilF9EnUarEsL8tnZNhASDHI3to+oGQwN8A/vG2sw3TuOq8ec6d6L02vs2qznO9iMevdTXTWlDR98m/svzP9sT7ZS39TtQLSKjuLnzpY3KNF7U7NRY6AiW0wRTAGo+y0PGrPBDnGwQK+QIPWn0p8T3BwH91olLVSY/K0k6UfKj8t/96arqC2hvQr6On5PHjQa+UVT/8ROSM/qeGgYz+xBw5IsR6EaTZgXXkll7UsJNShu8YIUMMLvXeh+Id57I17DtdKSJRY/s/O1HyQei9Zxo7a0ZHZ/jR5wyxNBA2zjj2bTN7EBsZQXpWY57PTAXW2WLX+VNbmxUzfdjsXtyE0iLLSGdUWeqzXli0oKRre6/Tdpt6rvQxM0RKFY/Xhjya6hndrO1He+VWPmKMV+QocEj0n+GTfDbPly/4hJm63hav+HQGfeT96DCIADA1t/q5wlrrNAi2/yip1eZVLir0OSCWajdT1Ekg00rt2jtzM6ATOVx1Crygw+1/CAq2P2pRf9Rwru33R7arI3qTWjRXGsa2UtRpgl+asbZyfArdGwSXL6JFfV6nrqxXv9/NDIa5oU27OqIn1qJKNn0FAIoooz3m+hbWbNmJgUMWTD50lFqymbW6DrM2nJdaDT2wFk1or02EW3ymOe2ww5S9GbO7kVgHVPPgNi+UK3nku6XW6ag00R6ex9lYiwTFNKUVSSabgBhzTIx3Yo2HLsrgIFBpm22s2dVjnteL5LaSNPR+5qrot2gXCcqogzX+VDV+TgUOI3QZCNwGy/ct4HarkGvaKikTUeR2GJHQjzm3zm9nmlH/8trQhaddOS1LIyyl3tn0BFNEHRJaTrRrdd1WVWTmtWwfZdeq2ZB8gdhVDzeE1bAYMmePcrtVY53K5rZzt0tZKSeeNn1g5MMSM4wlybF8bWvDuipUKrVoVasBMteOqIlrICOh3c8vjS6wJzUtEK5oBRJt/JWyYGtwuNONFxDIO5mLzia19thghRXmyFitK163ne02vv0sEswVG1rZyF3W/zLobtco20QVOe9seRXTNfVS8j4Hdo+N+QdKLjeHAu5LLrD2byfWUk3VQXA1Ma+70RkHeRGGEoiRIDUWhNtgggRxxWKIECPRCQzqHpEi5t2LGDHSWibMgZJ9sc6prmUZ7BDrITrz3kW11GNmLd3BzDhaOZmrCnhcHL9mOg7/6LXRfckzr1ZID335XtaqCNQ6q21U5YezVuoo1G+t1WNZbkJ3eXOdBhnH2GeHCRJEEoiQYMI0qFZpZ0wu7TFlz6Ncf3F1JLn22DVKuYh7J5EiUoxTtsv+Mrj6Mn2no0cW9KymsPNajvSTGuvn9OPqtKxCWcgP7RIAcDTLLYCjWiOgoZaLEu+vLR4oRYYI0aHfyKQ2a6vNyAKPlCBDDIEMGQG5vnKOmVzWaAMCAn80UMs1NSBFWjv31eHt5T1g9JH1Qyrq4PrYsElTpTo+VFNovfD2S5WFDAC0UBPb9Z0ZSFuAIhzytEc6T3mF9SmGmRqlHGusygkAbRDhDYX+B3x3X4MiJHhi1HJb/nhLvG9ArA0MhprHUpo65QSHbRjbGYwPbGJtBCOzyM9vXcL1A4aBs9i15IuyC0dmiLF8VbZbYc9OCRgyzmUy/ar+ZrUslGqJtrQTvYCbx5lYS251AJ45KOaaucKgeGc4m6NHzpRPPqaJcfxVDZZhULwznNOHWObOzGvyqTweBsW7whlZS251gnsYFAPOG/kgn80v8+jj1UzRlysdMBicO6imHPy+HQ2KBQAgMTWxgOHizKwl1yreuqa0s89Bzb1fuAgYBM4fCvi1/HyKGUct11oTC58LuAucnbVkoc2nNb1KPivzRETzbjQDbhE9BDDLZam0H7FQGQEx6ZIZEnCb6Cc2vtSranHg3JEdzBBDRy+sJYumhdnkizZD/Lz0rQf0i54yerR75zhPpDRDxC0+tBlww+gvWaz6nKY5KBasJDh+Boz+vj1d6VU1t7RcM43rHCsXBFwlTmUt4a+iAwRjM0AQkC96IYufwYA6VPSbPd0UIAj5pGxcAqswVxwmXKxVOI61WjisKUAQADBWtKIwVxwmLKzl+pCAXuGu5TAmZ3o+WHNLyxz/UbsxbYLkGh5sUquct9k+JFBmsbXPLGwKEITcaioxNkHnGhzq2WMs2dq+bsFe7XjXJdBnlCsC2PIaeWr3tC3FsN3CRhKUYIxIJVVzY4B9Ka+EzQ5z5DikuW+aE8pJ4Jde5rtw0nOngAfcFAiRdeDrjqfmVeUo7RBdGtL4B4Lfzrass0NXkku0/zRA0LkGgt/kFq9nWOh+DfcKK19broGZY9aqXsDV4//zUeb1ar7WCQAAACJ0RVh0Y29tbWVudABSZW5kZXJlZCBieSBRdWlja0xhVGVYLmNvbSBJ0LYAAAAldEVYdGRhdGU6Y3JlYXRlADIwMjUtMDItMjJUMTk6NDg6MzUrMDk6MDB4Fp1BAAAAJXRFWHRkYXRlOm1vZGlmeQAyMDI1LTAyLTIyVDE5OjQ4OjM1KzA5OjAwCUsl/QAAAABJRU5ErkJggg==;" parent="1" vertex="1">
                    <mxGeometry x="932.9999999999999" y="940" width="202.07" height="65.12" as="geometry"/>
                </mxCell>
                <mxCell id="100" value="" style="shape=image;verticalLabelPosition=bottom;labelBackgroundColor=default;verticalAlign=top;aspect=fixed;imageAspect=0;image=data:image/png,iVBORw0KGgoAAAANSUhEUgAAAS0AAABhCAQAAAApBz/GAAAABGdBTUEAALGPC/xhBQAAACBjSFJNAAB6JgAAgIQAAPoAAACA6AAAdTAAAOpgAAA6mAAAF3CculE8AAAAAmJLR0QA/4ePzL8AAAAJcEhZcwAADsQAAA7EAZUrDhsAAAAHdElNRQfpAhYTMCORbOFhAAANtElEQVR42u1d7ZWjuBK9tWcD0HgzoDOgZyN4OAN6NoJxZ2CfjWAPnYF7IpixM7Angn12BmYieG0y0PthIUpYSOA2bRvrcmYaI1EIUZRK9SFIYmgggQgjCIwg8IARIggAz3J96ZbdF36/dAPODZoisxY8IbDWh+K3Szfg7Bg3HF9dumH3BhragEgREgj8AYEEESv4JItLt+2+MDjWYrcWYad/5PLh0u25NwxvQKwg2H7Qsz4cQ2atz2w/aFofjiGzFlfog9T6cAxZ19rrITFoWhfAYKUWRUzXCjLrAhgsayFh+5tLN+YeMVzWCprWhTFc1or1XiHzSzfmHjFQ1iLBLPFBZl0EA2UtQ9MKNq2LYKisFTSti2Ogdi3a6QGxkJ8u3Zr7xCClVtC0rgGDZK2gaV0DhslaQdO6Atwwa1FCc1rRjiTtaUNTVlRJrWDTuhhuUo0ngQmejRhSACjwVS4BEtjrY0v5dOnW3ituMO2CUnxTrucCr1jhDSOMMYHAgmbyJWhaVwJ5UxsEVvpHVis7lEwwZwejS7f4frebGhApwkaHyoyP8wpphQRAHmxa14DfAZrjixFHfjoKAG8okCPHv8jl9pxNpRg/dTufrAmrz9gBTAf7bw89FtAaca9ScYMM8TkIGe2cNNZaGD+nlx4U7nkj8JSqvlBgjX/eI8NI4JeWWI5ZH8VG2N/jeeXmrYAmKhPzsCjBCEJSL9cR+KKuVC6FkMtHXSpBCcZqXYTImNAvrfQiFgkFFMjxBmAEcWQMqGON7NR1F2jDrupMVuXKYz8deu0wjC+99gSlWNQObSvWOh5SJnrXOrti868M4mjQmmLnlJKbU4ZHZOyHc5CDYD9Wlx4SLrNBYI+9ebCnKyX162DDSi0nTNWORaNhj66RRZCyC8ZIMK81oKMGZGhZe0/d9PTrDGuDYEKiJ9ZSV4qYuPGwVqR2MktZ+ejmntsqZddKn7dhFTZ1eeektmI/POxi2LTOMn245a3qud6vtC+fbHXM4kPUXjeb7jRSf51WblngEQUAIKEUAORSPmKMknKMXyRajuexYV1/9VRnGdP3qcIb+Dj/6dvxIZd7WjiOeRotC5SzOL3alVzLB8w0nbYJXN/Y/ta92gwJpuyHiAeo1/tCV+ot8kGu1cONiM0o5YsOeImohX+PzPnod0/1sMrDFeFU1ipa1Jmrv3/xg3KNcnqaUOalkRq/fJIoxGldEXqM15JLxYBp7fhWD5ZT8tnCOFsWXu2JaWVB07o0+g0FLIdEYR6WS62OO+WWoTu1kUNB07oi9Mta/6q/R7JJPqud1DlT/Gz88mhPFOK0rgr9slY5j/xsKSvl1hfH+SZLBk3rptAva5X6jm11q1LJHzvON87zRrkHTeuq0G8Ac2lIE8dFcksFBGBoU3Xw8zzMYuhljrpqheYH/dGCEV7lTJemGCNSbvocW6zwo25LI4EJxvgMASBHjhwruUQnkMAXdSWhXPwrLE9LEaEET/iswgNy5KdTUvf/WbXqDTm2mJ+cuGI12xtOGqOk9C+2DAxWfxbWso3PCWFEX809V0rYD8NFBYFNdcTwMhq1MdHuKdO9mxm0KlfSjtXaI2ntFEmY02tvUNkh7eReEYZja89CAxaIuFv/BFqStcp7b/qO3D7EHljLGoOgGUc0ns1v1uc95NERyVGJdmvbWUvH3LPARX2vlSc0xh4SO0zKNiNiHs4WbIFIP4QFr49E3+umdd9Wdzyv7hgRpooxWJaAl9aE0Yo1s6WaWRee86+MtTIfLYNdPA+Ou78tJbWuQcwkYqbc6YujIKGKDaf611E8CGMu4WljGYSys7nOGZt6mZSx6MrWf0bPeVlLs+DumJam5AxRugRr7R2sVd5Q4wPhYSFe1qp2N8ZxYWcIdkaGFRqkou6yPaLD/5Y6VdBP5mxhyaiOh6QZfuKkJPSAtfBezcta+po7+5PQz8lxd9cmtRa+2zYC+9ydzYdOU9M6dLGl0/Tj2aNRk2OD4h6NYTp62Ng5WhhrOqK5FqPVqN+wkKWNkxJjLketSr41jx5lTzXH6F2MtVxqvDO4jymmrndmYvw05BsWaGLtinZjG4x3v3Ei0SYuSj8e5ytiTEdEQ41qKPdEpFV32FijkriOaZLu32YZaWGtS675cDAWuKe2Wa22bcKcaBvZAQUrE0iBowjuOpqjwBgth1NK12ryLVBWGlKkJ+JMrnWPfLNSSrRPdum13hXwobqGy+X2Q/1N20bZAT2bTLXz2cI+OtTGmSsoX3X3JPbbohSr2hV4WNoEQOF7nI5gnYpW3sq+M7IdJIFysZM2XoKyTmp13lcs4Asx8oJi/cI6704Wun8TH80K/Uqtsmts6WilF9EnUarEsL8tnZNhASDHI3to+oGQwN8A/vG2sw3TuOq8ec6d6L02vs2qznO9iMevdTXTWlDR98m/svzP9sT7ZS39TtQLSKjuLnzpY3KNF7U7NRY6AiW0wRTAGo+y0PGrPBDnGwQK+QIPWn0p8T3BwH91olLVSY/K0k6UfKj8t/96arqC2hvQr6On5PHjQa+UVT/8ROSM/qeGgYz+xBw5IsR6EaTZgXXkll7UsJNShu8YIUMMLvXeh+Id57I17DtdKSJRY/s/O1HyQei9Zxo7a0ZHZ/jR5wyxNBA2zjj2bTN7EBsZQXpWY57PTAXW2WLX+VNbmxUzfdjsXtyE0iLLSGdUWeqzXli0oKRre6/Tdpt6rvQxM0RKFY/Xhjya6hndrO1He+VWPmKMV+QocEj0n+GTfDbPly/4hJm63hav+HQGfeT96DCIADA1t/q5wlrrNAi2/yip1eZVLir0OSCWajdT1Ekg00rt2jtzM6ATOVx1Crygw+1/CAq2P2pRf9Rwru33R7arI3qTWjRXGsa2UtRpgl+asbZyfArdGwSXL6JFfV6nrqxXv9/NDIa5oU27OqIn1qJKNn0FAIoooz3m+hbWbNmJgUMWTD50lFqymbW6DrM2nJdaDT2wFk1or02EW3ymOe2ww5S9GbO7kVgHVPPgNi+UK3nku6XW6ag00R6ex9lYiwTFNKUVSSabgBhzTIx3Yo2HLsrgIFBpm22s2dVjnteL5LaSNPR+5qrot2gXCcqogzX+VDV+TgUOI3QZCNwGy/ct4HarkGvaKikTUeR2GJHQjzm3zm9nmlH/8trQhaddOS1LIyyl3tn0BFNEHRJaTrRrdd1WVWTmtWwfZdeq2ZB8gdhVDzeE1bAYMmePcrtVY53K5rZzt0tZKSeeNn1g5MMSM4wlybF8bWvDuipUKrVoVasBMteOqIlrICOh3c8vjS6wJzUtEK5oBRJt/JWyYGtwuNONFxDIO5mLzia19thghRXmyFitK163ne02vv0sEswVG1rZyF3W/zLobtco20QVOe9seRXTNfVS8j4Hdo+N+QdKLjeHAu5LLrD2byfWUk3VQXA1Ma+70RkHeRGGEoiRIDUWhNtgggRxxWKIECPRCQzqHpEi5t2LGDHSWibMgZJ9sc6prmUZ7BDrITrz3kW11GNmLd3BzDhaOZmrCnhcHL9mOg7/6LXRfckzr1ZID335XtaqCNQ6q21U5YezVuoo1G+t1WNZbkJ3eXOdBhnH2GeHCRJEEoiQYMI0qFZpZ0wu7TFlz6Ncf3F1JLn22DVKuYh7J5EiUoxTtsv+Mrj6Mn2no0cW9KymsPNajvSTGuvn9OPqtKxCWcgP7RIAcDTLLYCjWiOgoZaLEu+vLR4oRYYI0aHfyKQ2a6vNyAKPlCBDDIEMGQG5vnKOmVzWaAMCAn80UMs1NSBFWjv31eHt5T1g9JH1Qyrq4PrYsElTpTo+VFNovfD2S5WFDAC0UBPb9Z0ZSFuAIhzytEc6T3mF9SmGmRqlHGusygkAbRDhDYX+B3x3X4MiJHhi1HJb/nhLvG9ArA0MhprHUpo65QSHbRjbGYwPbGJtBCOzyM9vXcL1A4aBs9i15IuyC0dmiLF8VbZbYc9OCRgyzmUy/ar+ZrUslGqJtrQTvYCbx5lYS251AJ45KOaaucKgeGc4m6NHzpRPPqaJcfxVDZZhULwznNOHWObOzGvyqTweBsW7whlZS251gnsYFAPOG/kgn80v8+jj1UzRlysdMBicO6imHPy+HQ2KBQAgMTWxgOHizKwl1yreuqa0s89Bzb1fuAgYBM4fCvi1/HyKGUct11oTC58LuAucnbVkoc2nNb1KPivzRETzbjQDbhE9BDDLZam0H7FQGQEx6ZIZEnCb6Cc2vtSranHg3JEdzBBDRy+sJYumhdnkizZD/Lz0rQf0i54yerR75zhPpDRDxC0+tBlww+gvWaz6nKY5KBasJDh+Boz+vj1d6VU1t7RcM43rHCsXBFwlTmUt4a+iAwRjM0AQkC96IYufwYA6VPSbPd0UIAj5pGxcAqswVxwmXKxVOI61WjisKUAQADBWtKIwVxwmLKzl+pCAXuGu5TAmZ3o+WHNLyxz/UbsxbYLkGh5sUquct9k+JFBmsbXPLGwKEITcaioxNkHnGhzq2WMs2dq+bsFe7XjXJdBnlCsC2PIaeWr3tC3FsN3CRhKUYIxIJVVzY4B9Ka+EzQ5z5DikuW+aE8pJ4Jde5rtw0nOngAfcFAiRdeDrjqfmVeUo7RBdGtL4B4Lfzrass0NXkku0/zRA0LkGgt/kFq9nWOh+DfcKK19broGZY9aqXsDV4//zUeb1ar7WCQAAACJ0RVh0Y29tbWVudABSZW5kZXJlZCBieSBRdWlja0xhVGVYLmNvbSBJ0LYAAAAldEVYdGRhdGU6Y3JlYXRlADIwMjUtMDItMjJUMTk6NDg6MzUrMDk6MDB4Fp1BAAAAJXRFWHRkYXRlOm1vZGlmeQAyMDI1LTAyLTIyVDE5OjQ4OjM1KzA5OjAwCUsl/QAAAABJRU5ErkJggg==;" parent="1" vertex="1">
                    <mxGeometry x="1448" y="940" width="202.07" height="65.12" as="geometry"/>
                </mxCell>
                <mxCell id="101" value="" style="shape=image;verticalLabelPosition=bottom;labelBackgroundColor=default;verticalAlign=top;aspect=fixed;imageAspect=0;image=data:image/png,iVBORw0KGgoAAAANSUhEUgAAAS0AAABhCAQAAAApBz/GAAAABGdBTUEAALGPC/xhBQAAACBjSFJNAAB6JgAAgIQAAPoAAACA6AAAdTAAAOpgAAA6mAAAF3CculE8AAAAAmJLR0QA/4ePzL8AAAAJcEhZcwAADsQAAA7EAZUrDhsAAAAHdElNRQfpAhYTMCORbOFhAAANtElEQVR42u1d7ZWjuBK9tWcD0HgzoDOgZyN4OAN6NoJxZ2CfjWAPnYF7IpixM7Angn12BmYieG0y0PthIUpYSOA2bRvrcmYaI1EIUZRK9SFIYmgggQgjCIwg8IARIggAz3J96ZbdF36/dAPODZoisxY8IbDWh+K3Szfg7Bg3HF9dumH3BhragEgREgj8AYEEESv4JItLt+2+MDjWYrcWYad/5PLh0u25NwxvQKwg2H7Qsz4cQ2atz2w/aFofjiGzFlfog9T6cAxZ19rrITFoWhfAYKUWRUzXCjLrAhgsayFh+5tLN+YeMVzWCprWhTFc1or1XiHzSzfmHjFQ1iLBLPFBZl0EA2UtQ9MKNq2LYKisFTSti2Ogdi3a6QGxkJ8u3Zr7xCClVtC0rgGDZK2gaV0DhslaQdO6Atwwa1FCc1rRjiTtaUNTVlRJrWDTuhhuUo0ngQmejRhSACjwVS4BEtjrY0v5dOnW3ituMO2CUnxTrucCr1jhDSOMMYHAgmbyJWhaVwJ5UxsEVvpHVis7lEwwZwejS7f4frebGhApwkaHyoyP8wpphQRAHmxa14DfAZrjixFHfjoKAG8okCPHv8jl9pxNpRg/dTufrAmrz9gBTAf7bw89FtAaca9ScYMM8TkIGe2cNNZaGD+nlx4U7nkj8JSqvlBgjX/eI8NI4JeWWI5ZH8VG2N/jeeXmrYAmKhPzsCjBCEJSL9cR+KKuVC6FkMtHXSpBCcZqXYTImNAvrfQiFgkFFMjxBmAEcWQMqGON7NR1F2jDrupMVuXKYz8deu0wjC+99gSlWNQObSvWOh5SJnrXOrti868M4mjQmmLnlJKbU4ZHZOyHc5CDYD9Wlx4SLrNBYI+9ebCnKyX162DDSi0nTNWORaNhj66RRZCyC8ZIMK81oKMGZGhZe0/d9PTrDGuDYEKiJ9ZSV4qYuPGwVqR2MktZ+ejmntsqZddKn7dhFTZ1eeektmI/POxi2LTOMn245a3qud6vtC+fbHXM4kPUXjeb7jRSf51WblngEQUAIKEUAORSPmKMknKMXyRajuexYV1/9VRnGdP3qcIb+Dj/6dvxIZd7WjiOeRotC5SzOL3alVzLB8w0nbYJXN/Y/ta92gwJpuyHiAeo1/tCV+ot8kGu1cONiM0o5YsOeImohX+PzPnod0/1sMrDFeFU1ipa1Jmrv3/xg3KNcnqaUOalkRq/fJIoxGldEXqM15JLxYBp7fhWD5ZT8tnCOFsWXu2JaWVB07o0+g0FLIdEYR6WS62OO+WWoTu1kUNB07oi9Mta/6q/R7JJPqud1DlT/Gz88mhPFOK0rgr9slY5j/xsKSvl1hfH+SZLBk3rptAva5X6jm11q1LJHzvON87zRrkHTeuq0G8Ac2lIE8dFcksFBGBoU3Xw8zzMYuhljrpqheYH/dGCEV7lTJemGCNSbvocW6zwo25LI4EJxvgMASBHjhwruUQnkMAXdSWhXPwrLE9LEaEET/iswgNy5KdTUvf/WbXqDTm2mJ+cuGI12xtOGqOk9C+2DAxWfxbWso3PCWFEX809V0rYD8NFBYFNdcTwMhq1MdHuKdO9mxm0KlfSjtXaI2ntFEmY02tvUNkh7eReEYZja89CAxaIuFv/BFqStcp7b/qO3D7EHljLGoOgGUc0ns1v1uc95NERyVGJdmvbWUvH3LPARX2vlSc0xh4SO0zKNiNiHs4WbIFIP4QFr49E3+umdd9Wdzyv7hgRpooxWJaAl9aE0Yo1s6WaWRee86+MtTIfLYNdPA+Ou78tJbWuQcwkYqbc6YujIKGKDaf611E8CGMu4WljGYSys7nOGZt6mZSx6MrWf0bPeVlLs+DumJam5AxRugRr7R2sVd5Q4wPhYSFe1qp2N8ZxYWcIdkaGFRqkou6yPaLD/5Y6VdBP5mxhyaiOh6QZfuKkJPSAtfBezcta+po7+5PQz8lxd9cmtRa+2zYC+9ydzYdOU9M6dLGl0/Tj2aNRk2OD4h6NYTp62Ng5WhhrOqK5FqPVqN+wkKWNkxJjLketSr41jx5lTzXH6F2MtVxqvDO4jymmrndmYvw05BsWaGLtinZjG4x3v3Ei0SYuSj8e5ytiTEdEQ41qKPdEpFV32FijkriOaZLu32YZaWGtS675cDAWuKe2Wa22bcKcaBvZAQUrE0iBowjuOpqjwBgth1NK12ryLVBWGlKkJ+JMrnWPfLNSSrRPdum13hXwobqGy+X2Q/1N20bZAT2bTLXz2cI+OtTGmSsoX3X3JPbbohSr2hV4WNoEQOF7nI5gnYpW3sq+M7IdJIFysZM2XoKyTmp13lcs4Asx8oJi/cI6704Wun8TH80K/Uqtsmts6WilF9EnUarEsL8tnZNhASDHI3to+oGQwN8A/vG2sw3TuOq8ec6d6L02vs2qznO9iMevdTXTWlDR98m/svzP9sT7ZS39TtQLSKjuLnzpY3KNF7U7NRY6AiW0wRTAGo+y0PGrPBDnGwQK+QIPWn0p8T3BwH91olLVSY/K0k6UfKj8t/96arqC2hvQr6On5PHjQa+UVT/8ROSM/qeGgYz+xBw5IsR6EaTZgXXkll7UsJNShu8YIUMMLvXeh+Id57I17DtdKSJRY/s/O1HyQei9Zxo7a0ZHZ/jR5wyxNBA2zjj2bTN7EBsZQXpWY57PTAXW2WLX+VNbmxUzfdjsXtyE0iLLSGdUWeqzXli0oKRre6/Tdpt6rvQxM0RKFY/Xhjya6hndrO1He+VWPmKMV+QocEj0n+GTfDbPly/4hJm63hav+HQGfeT96DCIADA1t/q5wlrrNAi2/yip1eZVLir0OSCWajdT1Ekg00rt2jtzM6ATOVx1Crygw+1/CAq2P2pRf9Rwru33R7arI3qTWjRXGsa2UtRpgl+asbZyfArdGwSXL6JFfV6nrqxXv9/NDIa5oU27OqIn1qJKNn0FAIoooz3m+hbWbNmJgUMWTD50lFqymbW6DrM2nJdaDT2wFk1or02EW3ymOe2ww5S9GbO7kVgHVPPgNi+UK3nku6XW6ag00R6ex9lYiwTFNKUVSSabgBhzTIx3Yo2HLsrgIFBpm22s2dVjnteL5LaSNPR+5qrot2gXCcqogzX+VDV+TgUOI3QZCNwGy/ct4HarkGvaKikTUeR2GJHQjzm3zm9nmlH/8trQhaddOS1LIyyl3tn0BFNEHRJaTrRrdd1WVWTmtWwfZdeq2ZB8gdhVDzeE1bAYMmePcrtVY53K5rZzt0tZKSeeNn1g5MMSM4wlybF8bWvDuipUKrVoVasBMteOqIlrICOh3c8vjS6wJzUtEK5oBRJt/JWyYGtwuNONFxDIO5mLzia19thghRXmyFitK163ne02vv0sEswVG1rZyF3W/zLobtco20QVOe9seRXTNfVS8j4Hdo+N+QdKLjeHAu5LLrD2byfWUk3VQXA1Ma+70RkHeRGGEoiRIDUWhNtgggRxxWKIECPRCQzqHpEi5t2LGDHSWibMgZJ9sc6prmUZ7BDrITrz3kW11GNmLd3BzDhaOZmrCnhcHL9mOg7/6LXRfckzr1ZID335XtaqCNQ6q21U5YezVuoo1G+t1WNZbkJ3eXOdBhnH2GeHCRJEEoiQYMI0qFZpZ0wu7TFlz6Ncf3F1JLn22DVKuYh7J5EiUoxTtsv+Mrj6Mn2no0cW9KymsPNajvSTGuvn9OPqtKxCWcgP7RIAcDTLLYCjWiOgoZaLEu+vLR4oRYYI0aHfyKQ2a6vNyAKPlCBDDIEMGQG5vnKOmVzWaAMCAn80UMs1NSBFWjv31eHt5T1g9JH1Qyrq4PrYsElTpTo+VFNovfD2S5WFDAC0UBPb9Z0ZSFuAIhzytEc6T3mF9SmGmRqlHGusygkAbRDhDYX+B3x3X4MiJHhi1HJb/nhLvG9ArA0MhprHUpo65QSHbRjbGYwPbGJtBCOzyM9vXcL1A4aBs9i15IuyC0dmiLF8VbZbYc9OCRgyzmUy/ar+ZrUslGqJtrQTvYCbx5lYS251AJ45KOaaucKgeGc4m6NHzpRPPqaJcfxVDZZhULwznNOHWObOzGvyqTweBsW7whlZS251gnsYFAPOG/kgn80v8+jj1UzRlysdMBicO6imHPy+HQ2KBQAgMTWxgOHizKwl1yreuqa0s89Bzb1fuAgYBM4fCvi1/HyKGUct11oTC58LuAucnbVkoc2nNb1KPivzRETzbjQDbhE9BDDLZam0H7FQGQEx6ZIZEnCb6Cc2vtSranHg3JEdzBBDRy+sJYumhdnkizZD/Lz0rQf0i54yerR75zhPpDRDxC0+tBlww+gvWaz6nKY5KBasJDh+Boz+vj1d6VU1t7RcM43rHCsXBFwlTmUt4a+iAwRjM0AQkC96IYufwYA6VPSbPd0UIAj5pGxcAqswVxwmXKxVOI61WjisKUAQADBWtKIwVxwmLKzl+pCAXuGu5TAmZ3o+WHNLyxz/UbsxbYLkGh5sUquct9k+JFBmsbXPLGwKEITcaioxNkHnGhzq2WMs2dq+bsFe7XjXJdBnlCsC2PIaeWr3tC3FsN3CRhKUYIxIJVVzY4B9Ka+EzQ5z5DikuW+aE8pJ4Jde5rtw0nOngAfcFAiRdeDrjqfmVeUo7RBdGtL4B4Lfzrass0NXkku0/zRA0LkGgt/kFq9nWOh+DfcKK19broGZY9aqXsDV4//zUeb1ar7WCQAAACJ0RVh0Y29tbWVudABSZW5kZXJlZCBieSBRdWlja0xhVGVYLmNvbSBJ0LYAAAAldEVYdGRhdGU6Y3JlYXRlADIwMjUtMDItMjJUMTk6NDg6MzUrMDk6MDB4Fp1BAAAAJXRFWHRkYXRlOm1vZGlmeQAyMDI1LTAyLTIyVDE5OjQ4OjM1KzA5OjAwCUsl/QAAAABJRU5ErkJggg==;" parent="1" vertex="1">
                    <mxGeometry x="2240" y="940" width="202.07" height="65.12" as="geometry"/>
                </mxCell>
                <mxCell id="102" value="" style="shape=image;verticalLabelPosition=bottom;labelBackgroundColor=default;verticalAlign=top;aspect=fixed;imageAspect=0;image=data:image/png,iVBORw0KGgoAAAANSUhEUgAAAS0AAABhCAQAAAApBz/GAAAABGdBTUEAALGPC/xhBQAAACBjSFJNAAB6JgAAgIQAAPoAAACA6AAAdTAAAOpgAAA6mAAAF3CculE8AAAAAmJLR0QA/4ePzL8AAAAJcEhZcwAADsQAAA7EAZUrDhsAAAAHdElNRQfpAhYTMCORbOFhAAANtElEQVR42u1d7ZWjuBK9tWcD0HgzoDOgZyN4OAN6NoJxZ2CfjWAPnYF7IpixM7Angn12BmYieG0y0PthIUpYSOA2bRvrcmYaI1EIUZRK9SFIYmgggQgjCIwg8IARIggAz3J96ZbdF36/dAPODZoisxY8IbDWh+K3Szfg7Bg3HF9dumH3BhragEgREgj8AYEEESv4JItLt+2+MDjWYrcWYad/5PLh0u25NwxvQKwg2H7Qsz4cQ2atz2w/aFofjiGzFlfog9T6cAxZ19rrITFoWhfAYKUWRUzXCjLrAhgsayFh+5tLN+YeMVzWCprWhTFc1or1XiHzSzfmHjFQ1iLBLPFBZl0EA2UtQ9MKNq2LYKisFTSti2Ogdi3a6QGxkJ8u3Zr7xCClVtC0rgGDZK2gaV0DhslaQdO6Atwwa1FCc1rRjiTtaUNTVlRJrWDTuhhuUo0ngQmejRhSACjwVS4BEtjrY0v5dOnW3ituMO2CUnxTrucCr1jhDSOMMYHAgmbyJWhaVwJ5UxsEVvpHVis7lEwwZwejS7f4frebGhApwkaHyoyP8wpphQRAHmxa14DfAZrjixFHfjoKAG8okCPHv8jl9pxNpRg/dTufrAmrz9gBTAf7bw89FtAaca9ScYMM8TkIGe2cNNZaGD+nlx4U7nkj8JSqvlBgjX/eI8NI4JeWWI5ZH8VG2N/jeeXmrYAmKhPzsCjBCEJSL9cR+KKuVC6FkMtHXSpBCcZqXYTImNAvrfQiFgkFFMjxBmAEcWQMqGON7NR1F2jDrupMVuXKYz8deu0wjC+99gSlWNQObSvWOh5SJnrXOrti868M4mjQmmLnlJKbU4ZHZOyHc5CDYD9Wlx4SLrNBYI+9ebCnKyX162DDSi0nTNWORaNhj66RRZCyC8ZIMK81oKMGZGhZe0/d9PTrDGuDYEKiJ9ZSV4qYuPGwVqR2MktZ+ejmntsqZddKn7dhFTZ1eeektmI/POxi2LTOMn245a3qud6vtC+fbHXM4kPUXjeb7jRSf51WblngEQUAIKEUAORSPmKMknKMXyRajuexYV1/9VRnGdP3qcIb+Dj/6dvxIZd7WjiOeRotC5SzOL3alVzLB8w0nbYJXN/Y/ta92gwJpuyHiAeo1/tCV+ot8kGu1cONiM0o5YsOeImohX+PzPnod0/1sMrDFeFU1ipa1Jmrv3/xg3KNcnqaUOalkRq/fJIoxGldEXqM15JLxYBp7fhWD5ZT8tnCOFsWXu2JaWVB07o0+g0FLIdEYR6WS62OO+WWoTu1kUNB07oi9Mta/6q/R7JJPqud1DlT/Gz88mhPFOK0rgr9slY5j/xsKSvl1hfH+SZLBk3rptAva5X6jm11q1LJHzvON87zRrkHTeuq0G8Ac2lIE8dFcksFBGBoU3Xw8zzMYuhljrpqheYH/dGCEV7lTJemGCNSbvocW6zwo25LI4EJxvgMASBHjhwruUQnkMAXdSWhXPwrLE9LEaEET/iswgNy5KdTUvf/WbXqDTm2mJ+cuGI12xtOGqOk9C+2DAxWfxbWso3PCWFEX809V0rYD8NFBYFNdcTwMhq1MdHuKdO9mxm0KlfSjtXaI2ntFEmY02tvUNkh7eReEYZja89CAxaIuFv/BFqStcp7b/qO3D7EHljLGoOgGUc0ns1v1uc95NERyVGJdmvbWUvH3LPARX2vlSc0xh4SO0zKNiNiHs4WbIFIP4QFr49E3+umdd9Wdzyv7hgRpooxWJaAl9aE0Yo1s6WaWRee86+MtTIfLYNdPA+Ou78tJbWuQcwkYqbc6YujIKGKDaf611E8CGMu4WljGYSys7nOGZt6mZSx6MrWf0bPeVlLs+DumJam5AxRugRr7R2sVd5Q4wPhYSFe1qp2N8ZxYWcIdkaGFRqkou6yPaLD/5Y6VdBP5mxhyaiOh6QZfuKkJPSAtfBezcta+po7+5PQz8lxd9cmtRa+2zYC+9ydzYdOU9M6dLGl0/Tj2aNRk2OD4h6NYTp62Ng5WhhrOqK5FqPVqN+wkKWNkxJjLketSr41jx5lTzXH6F2MtVxqvDO4jymmrndmYvw05BsWaGLtinZjG4x3v3Ei0SYuSj8e5ytiTEdEQ41qKPdEpFV32FijkriOaZLu32YZaWGtS675cDAWuKe2Wa22bcKcaBvZAQUrE0iBowjuOpqjwBgth1NK12ryLVBWGlKkJ+JMrnWPfLNSSrRPdum13hXwobqGy+X2Q/1N20bZAT2bTLXz2cI+OtTGmSsoX3X3JPbbohSr2hV4WNoEQOF7nI5gnYpW3sq+M7IdJIFysZM2XoKyTmp13lcs4Asx8oJi/cI6704Wun8TH80K/Uqtsmts6WilF9EnUarEsL8tnZNhASDHI3to+oGQwN8A/vG2sw3TuOq8ec6d6L02vs2qznO9iMevdTXTWlDR98m/svzP9sT7ZS39TtQLSKjuLnzpY3KNF7U7NRY6AiW0wRTAGo+y0PGrPBDnGwQK+QIPWn0p8T3BwH91olLVSY/K0k6UfKj8t/96arqC2hvQr6On5PHjQa+UVT/8ROSM/qeGgYz+xBw5IsR6EaTZgXXkll7UsJNShu8YIUMMLvXeh+Id57I17DtdKSJRY/s/O1HyQei9Zxo7a0ZHZ/jR5wyxNBA2zjj2bTN7EBsZQXpWY57PTAXW2WLX+VNbmxUzfdjsXtyE0iLLSGdUWeqzXli0oKRre6/Tdpt6rvQxM0RKFY/Xhjya6hndrO1He+VWPmKMV+QocEj0n+GTfDbPly/4hJm63hav+HQGfeT96DCIADA1t/q5wlrrNAi2/yip1eZVLir0OSCWajdT1Ekg00rt2jtzM6ATOVx1Crygw+1/CAq2P2pRf9Rwru33R7arI3qTWjRXGsa2UtRpgl+asbZyfArdGwSXL6JFfV6nrqxXv9/NDIa5oU27OqIn1qJKNn0FAIoooz3m+hbWbNmJgUMWTD50lFqymbW6DrM2nJdaDT2wFk1or02EW3ymOe2ww5S9GbO7kVgHVPPgNi+UK3nku6XW6ag00R6ex9lYiwTFNKUVSSabgBhzTIx3Yo2HLsrgIFBpm22s2dVjnteL5LaSNPR+5qrot2gXCcqogzX+VDV+TgUOI3QZCNwGy/ct4HarkGvaKikTUeR2GJHQjzm3zm9nmlH/8trQhaddOS1LIyyl3tn0BFNEHRJaTrRrdd1WVWTmtWwfZdeq2ZB8gdhVDzeE1bAYMmePcrtVY53K5rZzt0tZKSeeNn1g5MMSM4wlybF8bWvDuipUKrVoVasBMteOqIlrICOh3c8vjS6wJzUtEK5oBRJt/JWyYGtwuNONFxDIO5mLzia19thghRXmyFitK163ne02vv0sEswVG1rZyF3W/zLobtco20QVOe9seRXTNfVS8j4Hdo+N+QdKLjeHAu5LLrD2byfWUk3VQXA1Ma+70RkHeRGGEoiRIDUWhNtgggRxxWKIECPRCQzqHpEi5t2LGDHSWibMgZJ9sc6prmUZ7BDrITrz3kW11GNmLd3BzDhaOZmrCnhcHL9mOg7/6LXRfckzr1ZID335XtaqCNQ6q21U5YezVuoo1G+t1WNZbkJ3eXOdBhnH2GeHCRJEEoiQYMI0qFZpZ0wu7TFlz6Ncf3F1JLn22DVKuYh7J5EiUoxTtsv+Mrj6Mn2no0cW9KymsPNajvSTGuvn9OPqtKxCWcgP7RIAcDTLLYCjWiOgoZaLEu+vLR4oRYYI0aHfyKQ2a6vNyAKPlCBDDIEMGQG5vnKOmVzWaAMCAn80UMs1NSBFWjv31eHt5T1g9JH1Qyrq4PrYsElTpTo+VFNovfD2S5WFDAC0UBPb9Z0ZSFuAIhzytEc6T3mF9SmGmRqlHGusygkAbRDhDYX+B3x3X4MiJHhi1HJb/nhLvG9ArA0MhprHUpo65QSHbRjbGYwPbGJtBCOzyM9vXcL1A4aBs9i15IuyC0dmiLF8VbZbYc9OCRgyzmUy/ar+ZrUslGqJtrQTvYCbx5lYS251AJ45KOaaucKgeGc4m6NHzpRPPqaJcfxVDZZhULwznNOHWObOzGvyqTweBsW7whlZS251gnsYFAPOG/kgn80v8+jj1UzRlysdMBicO6imHPy+HQ2KBQAgMTWxgOHizKwl1yreuqa0s89Bzb1fuAgYBM4fCvi1/HyKGUct11oTC58LuAucnbVkoc2nNb1KPivzRETzbjQDbhE9BDDLZam0H7FQGQEx6ZIZEnCb6Cc2vtSranHg3JEdzBBDRy+sJYumhdnkizZD/Lz0rQf0i54yerR75zhPpDRDxC0+tBlww+gvWaz6nKY5KBasJDh+Boz+vj1d6VU1t7RcM43rHCsXBFwlTmUt4a+iAwRjM0AQkC96IYufwYA6VPSbPd0UIAj5pGxcAqswVxwmXKxVOI61WjisKUAQADBWtKIwVxwmLKzl+pCAXuGu5TAmZ3o+WHNLyxz/UbsxbYLkGh5sUquct9k+JFBmsbXPLGwKEITcaioxNkHnGhzq2WMs2dq+bsFe7XjXJdBnlCsC2PIaeWr3tC3FsN3CRhKUYIxIJVVzY4B9Ka+EzQ5z5DikuW+aE8pJ4Jde5rtw0nOngAfcFAiRdeDrjqfmVeUo7RBdGtL4B4Lfzrass0NXkku0/zRA0LkGgt/kFq9nWOh+DfcKK19broGZY9aqXsDV4//zUeb1ar7WCQAAACJ0RVh0Y29tbWVudABSZW5kZXJlZCBieSBRdWlja0xhVGVYLmNvbSBJ0LYAAAAldEVYdGRhdGU6Y3JlYXRlADIwMjUtMDItMjJUMTk6NDg6MzUrMDk6MDB4Fp1BAAAAJXRFWHRkYXRlOm1vZGlmeQAyMDI1LTAyLTIyVDE5OjQ4OjM1KzA5OjAwCUsl/QAAAABJRU5ErkJggg==;" parent="1" vertex="1">
                    <mxGeometry x="2804.71" y="940" width="202.07" height="65.12" as="geometry"/>
                </mxCell>
                <mxCell id="103" value="" style="shape=image;verticalLabelPosition=bottom;labelBackgroundColor=default;verticalAlign=top;aspect=fixed;imageAspect=0;image=data:image/png,iVBORw0KGgoAAAANSUhEUgAAATsAAABhCAQAAAADt85pAAAABGdBTUEAALGPC/xhBQAAACBjSFJNAAB6JgAAgIQAAPoAAACA6AAAdTAAAOpgAAA6mAAAF3CculE8AAAAAmJLR0QA/4ePzL8AAAAJcEhZcwAADsQAAA7EAZUrDhsAAAAHdElNRQfpAhYTMhgSUWrHAAAOb0lEQVR42u1d7ZWbOBd+bs4WoHU6IB0w2Qpe3AHerSCeDuyTCvZ4OmBSQeLpwE4FG7sDkwoy0IHeHxZCAiFhDGGw9XDmDOZDSOJydXW/RBwe14EYAszAMAPDB8wQgAF45Puxa/Z28cfYFegGirAFQw7gFUDecBnDDBBE8DxQTVbYGE8s4MmuERMlO8zBAPnnxsOANTFj93s7ZFqgaQ6yxLDEe5z5WWQgvRwpUskJf+GZ5wPVJEAEhvdgiBAoJ/4c6om3gImSXaURB4TagQV/GaEWAU7yR8o/jN0rbxnvxq7AAHgcg+igD/derrPiNshO43VDTR6c+Kjse8nOihsgO4q0n+PxGXVy4bmdFTdAdpW55Hh8piT/1E8n7LgFsnsT3I4CRbbzvM6BWyA7XbI7jlQLlfgP43XGNDB5svOS3RQxebKraOzGk+zKeuQ8Ha0WE8H0yU6fUIwl2THFQuF5nRPTJzttkH0Tkp3X2TkxcbIjfYj1kt1EMHGyqyhP3oLOzkt2LTB1svOS3SQxdbLzkt0kMWmy85LdVDFpsvu9kh1FlNCOTsQpowOtjPXwkl078Alv2Gk/w8Gew7DCqXY4QyzOlse2Y/fJNLbRK9Bf5Qd7SoxM7GbYIEKICBtxbMWBWLl4OXafTGMbvQJXVD3Ufu4GeQZTOOqmcu58ZolEORiM3SvT2KYaOQb8BsmOAhykO9O8GvfK57RDhASlNOclu5b4A6AEf7cM+3MhB/Aqorb+QzqwQmNgnR2F+C77ZWEMtn7ECVB0dj8Gbe9NIRyUmx6wGUrU13/2XrraL40SG7baz9XYg9dUNoIaZjcUcuzxb7+8j0LNmXLP552LMpXO8FNyuhe+aFmLh3obZRxtINJVzPCj37q+VdBSxA/PirZzKs79wVOaYy7ydgRagLE57C/QPNxyEQQ9A9Pu1cEQI6Y9Nj3mBRlWsvuuiB2fmi/jR9J+GS4JkfRct0mAmLXdtWFjKXeNszJl3rYBqw1MJv2Wuh36GnKH1Nlho/ywDpyazs44l1bUL9brbm0DQ1ZtuXLWcMNK7CyNhTlftNbRISIklcf3IgHpZfbaYapUlzmuVXV2lnYhUD7XuyA7SS8lG3OQXSB2NoZzRTcnjocVPG8n7zsoFxyqfPIq0uj5RWp81PGJaDo7B8cdprZvfyv7szxmsMlK3ZNJVpuJ/1ZZiud4EMm/IooBgL/wB8ylhivET2JXiQ4ftV89SnYUalKjK8OAUg/nlOledXqGdttcAZjlmKMLeY5i9iezv/E9/4C1LOe6oL7hdHZflP2jPcyamDK98p4nTcjrhwbzQOF78SIC1T2JP0mCCegaHtWDnx0diFd5Lunz9K+OInzWk47oSnZ5i2uKCfQ/6kG+lykOI9q0KMUALQIf6EZ0MUKUQkOBWPvl4mDez64jBvS34y+COOPK8aMcgFcUXFRkgT5Csj8DONZsqOonkju5qFKP0TybJ4lh3TyLYZbph/mLFNW78burk+1QiBC1QVST1dqQs5fsOmJYsvtP/K/xNP4oduJOM1pdsuvyyj8DqM9TL5ofk4+g6Ixhya4Ywj4azhWv/O9LC71esiOGGMC+Nk/VPw8v2Q2GYcmuIAlTHt9iwnG5Wfx6yW4JANjWjmv1dPrOecmuM4Z183wV/1n9FD9SDoZq6pw2uD6N4mfAmGxWraeDkDQ5sDPRUYw5IszAAKRIsbs0pzzFmOMjAjDkeEWKI5J2zqYUIMKDfHpx99eO6qgIC3wUDiHnlrxY6mEx4xiMONJe29J5W/wzBrYU5rKLjS2Z+rODsWbTVCfNey5xlBIpPzQzIhgORsNi1WC4VGI0sqbSLDVgmmlOLeGEyHFvoJgAM5y0u7PLIkJq9SidQbYIVMeKGl0MTHZm34ziJbOLGhloPw8XE11xv+HFaN3nssaqXipR7YzBhUAnO+xwDgkK5ctbyUtbxJ8pJvZEKSOWT7GUIfsgQVj2PkKlBqfWb3ij1CNSnrASpKzEmrwNsttcVlatuzlacwbl/jOPzaw14uDnYERnOZXulGdMvFSSHdj5mprjWOnP4uA38lUayEO2otHlQHK62hVayJKDY3IgkL2wM71FrT9/K9llzR0gu461K0vcpbuRO7um4W4juWok7SK7clfjuMI1zOQ0VpLdDg3cVF5jdbiSrTiZ+072bMNHae+/sg72NwMmh+ZGzqo5hr0RbretVqZViZn688J7y6/P7MKqOm1a+Y02HOuS3bmjDS9Mc4BNutWw9TVFLxmcsVytVJzKLPKt4txmFXRUwvvdZGebUmTtShL3XCHZKXyy8T6FNCzDd2Wgj2tP2TnKzlqU3MBtWxJFUY51Mtf0HsvzrXrT5Wd4qpc2Zg6UswLiMi+0jjo7Cumg2IabvfxLY12jYoeiyv25cu6siN7CjmYvvle512StLh2zbIbFb+K/2Qq0wBFAjkWDikP2KzX0AkWyN1+cCpe8fmhQspOGfkPjZIMuiy3VY7ha6ewooC20xfCal4fiz7KTIrPZjmLsKi16VfaXAHLn8lPNDlW5/UZhSwaA1Kad47msYWQ4m/IHTvzPxrXZfsm9JuIvSd7lHGbEsNyuqLQpJLKwyro4gwJaVjrRwSkppBUdcKr4wNgXwisJ+7OhxA22AFI8KJxWvhpi+AzgX2dDuvsZP8o9F48pzv/V4Sm5/bTqldhtWcFhrRTyy6xVnAkDVW435FOE0LJubEKmzi8iM5u+VGsAId/TE85JxFb0iz9pddkgBLDHgue0lv7R/0hC/gKGXL2n4Rl55x4tLdj/Oa60hSbUQAwBAgQirtVlOSo/444f0LBkV3xp9YG04HHfbLcTcwyjkWkIcSB1eazwNf0Sg8iG/kKCFAFCPIoXuD6TFT9K8oxpg6+YCaJcYEgwufdIdmt2ULvDAGL4G3PjQtA2lBw079iOIWeyYhp/apxnZS6dnRZv1seWufRxcr5oenKi11fR6jvmn00zuto1pcnNoNerzOPbbY3WFoRajNwJCZaIEGj2EmN7lL5pY08xzIsH5HYUi2+owl1oJQXStWu44Q8YBfyIB4qwEIbyHD9MRnr+RM9YYo4IwBE/3O25EkzZf7jG64UCbBURKNHbRq5WlPV4RScMOcgWIrkyaSCGjZDqgP1oCw63ggxCsl2T4wlOWa435Mr+rGshAMXKO1m7ZVFrPTphMLKjRHxNx1KWoiU28ks53kcCmj7BUyXjCutaikJ0OR46ZeRLJafsSPwDKVCo5GmfAIAC2lCGRHbWfqzhc+IoiaRb8NN5eC3Qjeh6qMUAZEdLylDkMT/iIyV0wgkr5ftce07XEaWWrGsPluqj9SVER5ESO1KqiC930gXQ4yBLDAEiIV6XqKfZ2uPRp1rtjER+0C1UR8TwGTtVYURMua9Zsma1kgLsAIgxnh8pLfgchV2mNl3JLqFcVG8m0gW2wUvfyRXvDTyll0JZS7HTQrDECoE2MSqDqVLLrPsDXFjLofofp72EmRpi0rS49XaXbjssr83yNPXter0dh+a2dHI+MUPFtUkp3+K9o/jKCL3dWWNo1Ma5vPIUXWN5dGgPlBesMefE5/zC0JQ7BZN7780X8FzJImMNbqctGNKKkqoUb2weNuVEoZipMlTVJgvxm9k8YRrtTEYKFRzKcKaZ22U4YIcdEmyUq/w6DdVe5bD4U7eLp1C88pptEGdH1JovnGJhMHtYn32Gi6uETx9i1PhjK86s23okNdg6qIVxTJpXKi6H0gP24hCbW9vAECJCrBmiDlgiqoTPhIgqH/UGMUKzE6Xis7utE7GMcTCYtrSIt5pvMUJk4Ij1VMLCk3hpKCsr6mp80glci0qTERfXkl0paVS88uXD7nw5JD2aoLJJLmHL+NxQbqBaRhEL8gixLLy2m+JMtBrtSrJGJDyGl1qcBBd1MzIQhZ9lWClUUWRv3dU4XoZTw5hZVMlNdgrDrwi4ylfFxn71o5NdhhNOOOGAAw5iP9PI7oBMu6q4JnNMQJpcJRJbryOoBEKVcboypbnGFe1Dvl6LkrudxFKA9TpuiJsEwfNBw1oP0oz/odS9UeG5+8TX2rVbMdXvec0IDxUUIMICgXBZOMfjf2szfZNx/DMwpPV8AhTgESHyNuVRgBhzpRb7Ul9IBwR4RS7/gK9XczttiqzJIQqjbuVs5Lf72XpQoPBUZiTWHNR5Lo9/uTJBtseNoRe9HX8SmupAW1Ma/FloyJmWiNrj7tGXurhYIGlTSQtbpk+MLyrP46bRE9nxo3R21AfaVBKeH2g9JHozjvG1MLyEtNSOP4sB2A+0HhJ92mSLmKmkwteK436g9RDokez4UXpw+YHWw4pePVD4o77SmDxezmgvyAHgcbvo2/GpGFC/1AbaHAAQ6ZKfx32iZ7Lje+HtX5lAKEvfJR1X3vG4IfTv5vmpWPKJqouWFJKfXzrk7tE72fFcqo4rchx/FCqWgJLLyvS4NQzg1M5figlEjbwKT5QlXZ4yx+OGMEwsRSHHLfVskKrTgFel3DMGITueNyVN5E9SlfJ97KZ7jIeBIsekSawe3VSoUsKuixh7TB/DBSyWSxXrA22unPHGsjvFYGSnyHEVFwC+VyS8jjk0PKaNrmTH3JdI589Qd/4E+JNMIfPdK4/vEcNmBWhy/gRfCB0ew87Pae8PNrLLLcdapdNrcv4EAMxFWYGf094fDGRnW8RE5qptOTTytZy3VlwAeIr/id2QDp7j3RdM3K6YX5oWMSmSSrWPfG1y/gQ/ylJCHLyMd1eoRjAqqQrMy6BlYqf1Sq4yAt0Ud6smRli1LdFvU9+IgyLMEYgUiapCw5y0T106I0WK8yrzh+as68TwUy4VkFvLA54HT7Lv8QZACIyD6eVYNOeW1BLSu+BTV9wB3nVPNF+BRTbjL2i/IJqX8e4A7/gRz9cvb4E97EubfGq59mtp2/C4YfwfzjCIKY6EmmYAAAAidEVYdGNvbW1lbnQAUmVuZGVyZWQgYnkgUXVpY2tMYVRlWC5jb20gSdC2AAAAJXRFWHRkYXRlOmNyZWF0ZQAyMDI1LTAyLTIyVDE5OjUwOjI0KzA5OjAwwJIJXwAAACV0RVh0ZGF0ZTptb2RpZnkAMjAyNS0wMi0yMlQxOTo1MDoyNCswOTowMLHPseMAAAAASUVORK5CYII=;" parent="1" vertex="1">
                    <mxGeometry x="580" y="940" width="194.85" height="60" as="geometry"/>
                </mxCell>
                <mxCell id="104" value="" style="shape=image;verticalLabelPosition=bottom;labelBackgroundColor=default;verticalAlign=top;aspect=fixed;imageAspect=0;image=data:image/png,iVBORw0KGgoAAAANSUhEUgAAAQMAAABhCAQAAAB4kwylAAAABGdBTUEAALGPC/xhBQAAACBjSFJNAAB6JgAAgIQAAPoAAACA6AAAdTAAAOpgAAA6mAAAF3CculE8AAAAAmJLR0QA/4ePzL8AAAAJcEhZcwAADsQAAA7EAZUrDhsAAAAHdElNRQfpAhYTMwlh+nt0AAAMsElEQVR42u1d7XHbOBN+cHMFIL4OmA5oXwUv1QGVVBC5A2mughu5AzoVJFIHUipIpA7EqyAWO8D7QyC4IPFB0aJJyXg4HkMECALgcrHYXSyZwK2BcUS4A8cdOD7iDhE4gEexHbpl48WfQzfg0mBzLI0ZUwQysOKPoRtwcUws5zdDN2zMYLc2KbAICTj+AkeCiGR8EMXQbRsvbo4MSNciHNSPXHwcuj1jxu1NChU4SQe5wIlbJoMHkg6SgRO3TAZUWAzcwIlblg2OaloIkoEHN8sNWERkg8ALPLhZMkBC0ruhGzN23C4ZBMngDNwuGcQqVYh86MaMHTdKBowTDWLgBV7cKBlokkHQGXhxq2QQJIOzcKN6A3ZQk0IhPgzdmvHjJrlBkAzOxU2SQZAMzsVtkkGQDM7EFZMBS1jGNuzABDuyHZuTrIobBJ1BO4grPMAxx6Fx+ohU5lbnVkO39TqOK3RJZSm+SrNRgWds8II7TDADx4otxFOQDDpgaDo8mw9s1I9lLe+UM0NGTkZDt/g6jqvSG7AIO2U+njT3HbANEgB50Bmciz8BluGT5rfXHQWAFxTIkeMncrG/ZFNZjB+qnVPj5pNHHACiM/jVw4jdKOJeuc0OS8QXmQ5oO2fWUivt53xoZnstBwN14+4LBbb49zW8gXH8pzjBWkyt5WLNxeS+eU+1jyGS29vu8EvYtrjcFNhM7t+4K/sumMoTYAkmcp9fpG3wWBtri4glHyiQ4wXAHbh2rQlbLLvuI2Q7clfnxhMq7FTdJPkpVvV2vQcyYBzH+jkyPg22OlNJo5RN5PAleINxm9bz+iTRYYrAsi2j13QGG2OJFMfaqc35Lbq+AxzHes9JruGCuUzMjJWVSevj1AY6RoKsdvszZ2xNKjh6yqbt7oOIkPO7IAP1/KrX3EMGkUwsDXnlMGeem5U8YaOu25ECuzofcda2IT88JKTpDDx85z2SgT6eTjJQJw2KWEVLqedWXHEAVRIJmTCObQmhtpLxXEWJzVtzjVTfy1G9KtU5l2mJO855DDaiQCnNq2gDYis+YqHqaes0/pWk9+5dyYwTQTJYFm0omqd6szCKrXwQESMrC/GkjMARa6HvZ/q65JuneNi12BFdyaBoUSaT/z/Tk2KLe5lM2NJbR6r98r3hwc+gI3r0NxBrSSxp7fxeTRhz5tM1UBIqvAooYlu8rCL71tGv20k5LXD9tFjjWSad/ECb69u830Ey6Ih+yeCn/N9458WjTKR1EtHwoP3yzPYs+Bl0Rr9kUK4nHgx5JT/45LheJ58gGfSGfsmgnJ9N0QVKAdKlz9eu83oVBsmgM/p1QnuR/3kzS+xZAQ5os38d9DrPg9XkiM5EwFJMkOAOHECOHBs8nxdBjaWY4AEROAq8IMceWTu3WBYhwb26e3n1t24kzRJM8SANfqeerB3tcGgRDdo1ZW9o6dwl/xkdQ0uNn+Nq6j2Qee6UkB+aGhwcO6NivK7wninNp26EWbrvTO5DVdm0hgMSz7URUZkfcdCuPtr9K1q1o9LdrhBRQ13jOfVMBmZbX/mQufVq2h2fNYFaIZNGjsEkpZMBNhA4Vk4y4KqvrfybickmI3Wk6i6OOpQVJ0NcjQZi0oJD6xFfknYk5A5zSVozkzJ5SDJY+urSHq3PimG1JmBnfggVGYCfyjQM55W90vM+qqE1PC7VC6vtQnGCRgnNBdfDUQQQqVHYmEZVG883JYOjgwzKoePWq4lR1EsGVXJXG0jLYyRksIGF26gyTgO34msHc19UTy3TC0kmrja4DWvEnGflPJohfiTcYFVvjKFj1Q/n+6hNH7pkcOq4YQA1BxmL5EHenzY8y16mfEAG47evl8TG6pCPiHF/Zy+lE8Jbk4FLRHS/Z9WjcghqGteo8Q2sYCNDYvZuUbOFG7V8SGU9TmHZNq5VvuMOlTjt87M4NGsbcg/jaYHnXkwta6XNS6NMO1GQPI4UaHgf1vFszXlRKZv1ozKEuxTj3+V/s9Z0ij2AAlPLkk4pw5hlFFiiLDdr7wKzaJ7qlQyU4cjQOdUh514C8awanZjVzizFpnaHF5KeASiE/TGfYDdgF+4LWazIM3dpB0ShWpgYcnNxL5j4INaWy3+rlI0YKxL0GeON6JcblI02ucCXVgXfm1o5o//TzGRLrADkuCfqYzVUjOMfAP9629l91/OjSvnewTL/7w53KdzZ1CvDSkpO9KtFVG9Ko+Ecs1MHfS7rYsuecNq0Pme/xROpI8ESMYAtpqJgC+XP9Fm51n8FR0Gvsdyj6NzDyiLy01OyHAOfab0cnwgRIrmvIPYUr0z5HQm6XzIoKb/J+Ese8N1fiViw35LpLdnfyJAjQoxHOaCL02MWe0UuKVviG+4kkUz9d3gFuEo9Mvduh6hxhQGM4xMmSM7cTFhxmKJjP/pcKchl0sEqN5/jmLoznM7064nWzSPf2yTmRplKRW3QKyjt3zmHVRuKWPPBPiDDDAkiTZ9p7A8Zmzb6TsO6o0duwFJJ0zW2Tz6KtWjLjsUe9yzBVBpeCvwyGX3EE3vGDBMkAPb41b7+juAkff+qzXkRVmQKzfS+MV8vqna8oBP6nBRKkY4IgYxjKaUCYOuV4DUoJ1dXmQJP8MoCF0NB0nfdq9E21C38soyzHZ3QGxmwTFL3vhIC2QxLRbn76985KHKySZJ3rYUQQYH7TrGacsVJOhJjTwtGVr3zXwCARWzJjsjUYG3FfaeKx4bqobVaATTBIsIJuhHBBVrRAxmwGTuijEu2xwPL2AEHzMn7srh+TiBRrdK79qjSgC7OIQKWEN/LSmXkW1racKmVAjhizDVZ13xsxhKP6PUrBX2t0OKOHMuaLwQ1K3HrdY2Vwum+pr74d4xfcqWQsQKn+bD8GnIbrF8X7GJ8EDlbl8oblno1eDPMEWmCbuWsmztWNf4vRS3U1PLZq8/kpo504wbnHhvMztnFfC3cQHufD947HlEzJZP6HeZh8q5buAF5x31eCUb+1beFcY0FJoKJiTjTtXMk4Cr1l7mAKMiuTPfmmxU48toiuZIGXBbUSvArVwIc9WXiVP7mLksn45YdHBfjBkfssMEGGZak1EjkAEcvBdrNyi5fwsorwa4jPDnGNGZuogE0elRIn6KylPRpQNrkH604l66LVU+nKxnICpRIWHO5UB45Tk+YQR4+R4wEqSbM7jBDUnMHjZHUiH6JFLFZBCM+PasmUSkfQYMqWPOobvgeIcYRAqkeikh6Gs0MdR3tJCXjS1CvZyWuv5YMqpmx5kWnbnaWc/UbkEHqyFRvkSuCk6XeiGr2kcrHFWNWelnZXEq1Fm0qMkMiPYpmmp+hkG0zvmDkfT9iTp5SGW1m0+AIRxwsPL49GRCGWBOQCJXzoR99Y9CPOOCAA3bYYSfTR40MdjhqpcoyR49AubNkZa5RQFSL51jtk1AhwzSu4Z6i9FZUb/9BhhZvtnFpDJYrTxoCxSmz0MdK1aGC1T2JhVZ2JZdS7yLgnOp1hARTRNIEdtov9L2NeKz2Gd2BI2/ud2IRHhGjaFMfi5BiQlqxxaZU6rMdIrygUH/At1dzA20Jos2bpvhH4RjncYEFo8hVRCPNoUwU6vxX5/b1gMFxEb2BeJKaq0j7xgnEs9SYcS2QVcDocCn10Rf5f1kLY1OFs0jPqi/gTXEhMhB75eyhTwy5IoQwMYwYF1Mmi4VUjMZspp1/lhNGmBhGjEvaFEof4Kz23pfnw8QwWlyQDMRebQILE8OV4aIWRvEorVyJ/t6TFYNvj1LAILi0obmcAL42JoYCAJDokkPAOHBhMhBb6Z1XEwhJKO3MGxk14M1xebeTL2WIXC1cJcRWSQ4hdOXocHEyEIVSJdXkAPEol5QRy86rM6Bv9OCEJtalQNh43KWlccaSs6oM6Bn9+CKWcsBMj85BjVBh6Tgm9EIGorAFsRBPaun4Y+iuB1ToyTNZqZCb3rrl0jFu8VGNgDdCfw7q1acz9ImhIDlBuTwS9PetpUoOqJmUxJZICF333AVcFF3JgPuLKGeUWHdGAcST2gL6IyiTxoB+dy3ZnFEgplKHwLEJa4bh4SKDwnGuVTgFmzMKAGAi64rCmmF4GMjAFdRSxdZpycrFQq0LaiYlkeN/MhmzXeAIw8LEDUr53RTUstw03X7ngc0ZBWKvaomxCzLCoGjsRKi2UpnDOJd7D1p+c4QEdTbte2j5hfVw9HswAZZggkiGrKALOHPQBhq6MUeO01eBdvaoZozjPxUar3DWBzz3HsQuwIguIR5NhysQZXpGPe/s++njOP7oHsitQU5WiDXaB3QOMsIQEECmfeer27HxfgDGHxxLQO26DcfbHv8HFrt0G5VWb2gAAAAidEVYdGNvbW1lbnQAUmVuZGVyZWQgYnkgUXVpY2tMYVRlWC5jb20gSdC2AAAAJXRFWHRkYXRlOmNyZWF0ZQAyMDI1LTAyLTIyVDE5OjUxOjA5KzA5OjAwDKIE3AAAACV0RVh0ZGF0ZTptb2RpZnkAMjAyNS0wMi0yMlQxOTo1MTowOSswOTowMH3/vGAAAAAASUVORK5CYII=;" parent="1" vertex="1">
                    <mxGeometry x="440" y="73" width="152.2" height="57" as="geometry"/>
                </mxCell>
                <mxCell id="105" value="" style="shape=image;verticalLabelPosition=bottom;labelBackgroundColor=default;verticalAlign=top;aspect=fixed;imageAspect=0;image=data:image/png,iVBORw0KGgoAAAANSUhEUgAAAbQAAABhCAQAAAAUuZzlAAAABGdBTUEAALGPC/xhBQAAACBjSFJNAAB6JgAAgIQAAPoAAACA6AAAdTAAAOpgAAA6mAAAF3CculE8AAAAAmJLR0QA/4ePzL8AAAAJcEhZcwAADsQAAA7EAZUrDhsAAAAHdElNRQfpAhYTNAPObgStAAASDklEQVR42u1d7ZmjOBJ+tc8FwPREcEwG9FwEhzPwzEYw7gzcz0SwjzsD90ZwY2eAN4JZnIE9EexABrofCKES+gJDe7qtlx8GI4SQqkqlklTFOCLeLliGOyS4Q4IP8izFB36+dsluDf+6dgEi5gPLUVy7DBENfrt2ASIixoPlrGScndjm2iXxljSqjm8XLMFnJHiPDDm58UZUR7ZGx2Bn/uHa5XGWNTLaLUBTIt8Eo7EUJ/LHE3+8dpnsiKrjTYAfcLh2GSZHrl0vr10gFyKj3QqO1y7A5Ei067trF8iFyGi3gn+uXYDJoYuOv69dIBcio0W8UvCDxmq/tOUxMlrE68UndEadB/5Lj0LjhHXEqwU/4wPLkaHG4Ve3o0ZGi3jVeC321Kg6RkS8ACKjRUS8ACKjRUS8ACKjRUS8ACKjRUS8ACKjRUS8ACKjRUS8ACKjRUS8AOKENQCAZfgdGe6QIkGNM874jv2lqw1Yht+RIhW5/sQZNc74jgOvA3PIsUCKBClSADV+4ohiynUQ4ss/IgFE+Qp8Cy3fBO9PkGOBj8KfCVDjjL9R8L24v8Vn3NPvZQlS4f3kPRLRanc48E8vVepe/fkph/+iB3JwVDih1I4TTqjAcRrw1AkVlpb3pNiishTihA2SUaVPsLHmysGxQ+bJIcXWcfuE1cASrZWLVPy3QmlJXtrqa9I2zrCz3qywRoICHFwvCzbmOrW+pxhVvMpXB442LvX2mb0yRzdC7klwGviUodKQKMR8wgZL5MiQY6X8X2E9uOxrcrnDBiussMYGhdI0W0cOK/n2AmsskSFFhiURCl5CsJYp5UCGk7hq39B8d5d/iXzWFt7K96yRtwINCTKsZdmMbTeY0coRxePg2DhbqKupAitkyLDERnlX2Qo0jl+Z0VJssCWE2R0ltmbyR2qUXqWpB1GYsjT1L1jKd5/UKvOWuyMSIysgkyRmIQ3BFJZei7DMNrhchNHk1brfYxMS2oTmP7h9S/GNFmaWooajz2iZEFuUHe2MRmloJwRLJtT67shIusquzShUVui0gaVSLklXM1XjpE2y1v7wyFkkRIJtzUyi5Lpy5NSqNlWYdCc9qpUJFIVp6czDQuaEIHYh5dJqsTCTiLEGi3HKs6c0TQ2cXHkjddVSryZdjNadOrUTreeziYBEYaS1N0Umy+AYoww9KjE+2mGDpW8UMrhZmuMUkL4jREvFKqqhTw/fhabkwFK52ATkyFEa7hf+XAhDB43WeuLKw6CqCjRVO/ZK76v7pS+dwowhjOakSG1MbKOcJKS/RypTiX4RWnc59VFicznDkerkQU+4K6tTSwLGXwrJuRsqsJ+hl8Pvi1QquyYBX0EZrfCmVwkqsNcMbs8ytCVFz+BgSH+dIxEnToFEhGTYeM9ZhwqNbTk4NCKe6aj8VjZPhatS3ivBxTdZJLHSG1RB7+4YyKW1J2Rs5kpH/nCSDoeViQhbB4ykCKMFaAVarznYIOTMObj2RakvY7TU/zatu7HWDzHD+OzGHT2kjeqYY4MdChT64NJ4UD22QokCBUrtWdNRjLdikUb3komQJjYdu5KngSZyhc3tkk7tYdyys1IuTp77PCifcJJtjkC2IW2djG27Xq6SqIPTuhitq4WdMw+XBTEhdV5Zx65BiqqhxrcGY4jS5ZmNCJ0m25tjMhhm9aMc27ORfH3mkBJWdlQJLvjdKpsbyz9EuSX2tNxz38ESpJdP3O/UGC1UwKglCbZvDqhNb08s+v/LGG3poxnNUp0HpfOP2BWaMFodZZMYmkNRfKwMo5jFOTLkPWPLKDWENLpbO87sxEQUt+BBvv8p0p95SRJLlKjsPbwwsHtm8Mjg3Su+CKMFzr9pam7wFIcnV1Uo+YcBFdxM0tGWjdEaykmsOdBZOWudU/Uy6Eu7spnmd2VFGOSNHDI6iUkZrxQKaXUJyjGKCGFXR6NjB6syRchtwBwR6U/7M3KUIF9gTUWPQLxK+RhG0757snEaudi5GRiJ535HFc5ZSevzgUYQTbB5jUkcpAdcGxYVy3VaqWFpV+sN1hkOiNe4Rw0AyNkSAPie32MhnYNl+MGSwcvKnpVzq5d1lmCppVXxu3J+QjiOljwafCZXr8JZzCTfPRZ75XyJEyvYimVmiuD1xes63wOCGntgKXbK5dm5WlJt5bAydbW3cK3eTxz/eV7Ea7RFlm4t+YF/kAySoBxcYX8o5ytrqq+9tBIsQTa4svpp+z7e1eY5v9yC3BfAd+U8GyEczdDFZI4tSlSsYgXbsHxUnnb8g6NZ+LFE6zAW9kxYSvghjHo7UX432zYZ6QYsZQpx8yf5MSkbGCSP16okZDZWWwHYW4idNuHPAS9XHWqnPYJT853NvyDL2Ipt2I4VrGQnVmE915usX/Nxmkz52aKRJMixRsE4K9l6KrbmT/ze0lPtiNa2cPadlHbCWrmjsMSsW1r1UKnpBwyMpfarjYWUQeXAlXRkOHpyvNNiGtAmbQcM7okpRstfq8SJJ3c5sMTOO3ky1xiNDuIH7hhw5rwJSLQNsKZWY2s+1AhipJ2hRzXjxk++F5qxpmrxo1S11iwdlONR0XpTo4rxFcCZ2yKnTBWqjsYtod8wpJ/0gOVsxzh2WMp3HPCET1jgA97habo3BWLCUH/8EQvbyElihR9spmBMbEk0gj331eZl3/5t3h3WrfKY0L/5XhorhgYm2CrnPfWDZciceU4V2IeyFs21nuYVbMlOKKSQqvGMe874gj/yPT/wlxoJUrGRTJk1P/B3ePTUV4Idm0FFHmQEaUBb+QNng46HeRmtHUr3+i3+IE6WwzRx/qw0TN7rD78CqPnzkBwnwOTEyBJWKOOHGg/8HX/g14hwRslriJ02CPyJv8M9HnFwMNyGrcJzDMEQI4jEhZrKvIzWDhlNg+iWHT4H5qU/B2h9msewr5anQTLgrTQtzacmVxf3mizDD2Xovce/X1x02FBfnIMB/Mif+IK/wzss8GRkue1k9s4GAUYQtmYlU/UnWqrB5ZmX0VoZbNJv248IkSYqiJGfNMCqd18HlchDWOI9uSINw8ezrwEsQ6nk8cQ/XXW6gOoMs0Zs4TU/8Ee+4O+wIDNtwKSxz9iGWBAfLeGe/oOMfP142gEwN6O13W3Sv8WPQkZkoZmJ54iRn8ynfYXdsN9goh6tJwHVdw4y7+hgCRk7PF89/DkVkRPF1GRrt4mDH/gnzoixZzLlUTOCHKxGkMYZku3bB7fyrIwmid7M/+dxRSZ91tf2hC2RwN2fQZNdQ96spu1LwG9qyovUnK/Km85yJHs9qN99nKZvZTk22PlriT+qCwHYQIFsebduBLHrUymIYJYdQ4P7oW9+Gb+OifFf8RlDCZMY+RMpG78COHoNBmpv+J8BL1VHmbveXfrPJSsbVGk7qjdjCStZOQ1Zat+yHZ2LCQF9FN8rvdo0k+WBRhCWIIEe91sVp4Pb+JoOVFt5Mdx80OvThGHfTwpqiuDK0pbffNPvczqADx51spSVTBl9UIWK7z2P23rkDNk0Exksc3/3RQhbOflHUKrQ7ymCV4I0bE3vq7QzQG9pWnluRqsd99qiDjacyqlwAMhYhmDDPgkwngRPl6ss+WRUoNTeZxXcCBtkZDpfLY/f8DB+NBjKhiozPE1slAlaOclrWQ8XLwRg6yAjSINGaaVGr6PVOuDGBhmWczNa4rgnmntUA5I+LcCw30GdmgxVzrp0tdk8wZ9Jo3z1ZQjI6Qi18VTTg5/RxquHQSMMliiKbD2DWSaMVOvg+nB/TU4slwfPSpDP5N0t1DoIamOApaKVjeu6mp8L1zoqORlXoYkdakF+O3rP0vWFzU4h77o4wxq3gGfIjiW7PybqdSIk316pyXq6ckCplLWOomZ6ax+1tXrh5ePm/MYfcv1kmMeWyp02bK2j5hnH4wyjrVvDncEOIcSetDkXFSs57Rz3Rjoz6zmTHrCkVHV/6U2r+pNw73hWFx57v0qQ28bwX3skzuctvnwFw/faR2M0f/lUwTGta57uK/170VNfSuXU0ZZabfm2mooWN95V6S50Kffa4kDVXvBhjObcq9025EhfFD03eYN8kSj7vUP3ioeQhdpXOhlf+P3rSVZCEC6X4VtwFEqfI9M27O5oOS6+3V2+LKwco1pOFSc+z47tFybW9ukurMJDE8pO9lA8Tdu8zqieQ9wsu+zKZU7Q/FzOaG2VmryPtFU43jMWcY4w8NmEOHW2NWOmEH7Qlh6q/FnzzYVPkH6/QxVCy7YUbMFRISGpE6VWds6SJaLvtXv0UvN1uQca3GiEKprD5Xin1RHsvqSp01Oz4yTal7u9YamiMoxx7WVr8hLemF0VeDmjtan7I4ZWEo0aoRnIYYSfDqUBqr4Pei2aS7A40MjI5ClsJ95p9jJGd75tDc+X4KgaolIEwQkrLIX4MEUSkN72lSuD53sSvcDjCH14o2k1VIGDY2cSSEglOfdYAytssMHWELyiwBYb9QmtPSqssCRHG36kv+fPNeYjrqIMtdj635fC1lWBlzNaW1W9ipSNeZFa0rldHvl8RtSAAlusscIaW6rCDXMlRGLUNJXdRJPZKPnuHF6Zcs3L4FaJVdI8L33WG/1MG4WOaLmq95Ymik6GFDnWhHS9IauGV7l4c3O1VvSKJqJMEzMnx1ppF5M25I0OY6DB4Yd7UEHDqVQyZtBG+V/JwVWBlzOaaMre/11QoiQkH2v+bT4XDNY1ZqNHZQuR4c01dTRwQDgkrKx7qitKesgIW5ae3eUKEzpiuFVhwmV4xXBIRhNESGKv6IeF1UWffjLEwRPR80hNVsPLGUZVzvhuWggRxk22fy7mGnprHNhazEZ88PsmYkuxNOmZrtmTeQAPl24AYVt8niLSI8vxCamII1njjJ844n+X7gBjORbIlFzP+I7n4GifKXLcK6VqyrS3vCfBCQd7iVmCFOjfZyvcI8VH+d2FK5cpwBL8wDeVJkjU0Ro/UeOAgr8Sb2I92jHHTHVIqkt9hrQdvCK/iVoV5BsvHvF4C8dsK0PYVqxcOHaSia3wQ64HOPKhO9EiIl4tZgoWzzaSob4AAEvxgJWyIOsQ2SziljADo7EVNpKljvjIHpBrC2AfvT6HIiLeFCZjNJYgRY6Ftvkk621dOeDhYifPERGvDGMZbctqNGvz75DgLtAtwB5/XMWXU0TElTGW0YbuMD1gZzB5RkTcCGYyhkjs8V21O0ZE3CamY7RmuhM4o8Y/ckr6MY7HIiLGM5pYGcIKoUTqqz/ei925u+H+giIi3h4unbBuFz+taMgJ3vpUz6Z25xwR8RpxIaPxGm1PppvxWxac2p1zRMQrxMVLsPiz8CuVMuK2mR+k25nd0DwjIt4apljr2EU7o36ZvtA41hERt4sJGE0JlEr6Ll7L//+M6mPEbWOS1fv8SaqPJGgcfxZ+6hP8ee0PjYi4JqbaJvNF/G40779dwMGoPkbcMCZiNH6U4Qio+niWrBbVx4gbxmQbP/mjcNqszZxJq2RUHyNuGFPusLbNnLX/R/Ux4mYxIaPxowwzEdXHiAiCSX2G8AfzzJlifYyT1xE3iamd87Rq4p899bEGAORx7WPELWJiRpMLrzTTB6+VEdxF4dQjIl4jpnc31y68Wmrr+Q9yBFcMzDEi4tVjckbjtZy81sZj/EFMAKRs2rDjERG/PGZwoMr3remjx1CtL0dt91pExFvHPJ6Ku+2gZD2/uvw4GvojbgmzMJqyHVRXH5+kof+va396RMTLYSbf+7btoOgM/VnvTkTEm8VsQS5s20EVQ/86LsmKuBXMxmjKeExbTMwPykgtG5JnRMRrxVhGS/xJ5HbQjG4HBfiT9CfyV5y+jrgFzKc6AvbtoOCfxJxagiLaHyPePlyMVjv+uwvJ3LYdFACwEHml0f4Y8fZhYDTZ+5icef8Uv4EKn92RKj/jv+I0Y2Xs1SLeNkw9WmsLPBnutUGXwuN1Wh2p8qPMJUMZx2oRbxp6UGss5akxIDwqcbIJDZONnTgxBZ9fKhfrawf0jkc85joYB8uxQCqCCqrm9r2RM3PF4njGGUCNnyj5s42VWYIf4pmDYdyXEwvmMx5jFLWItweG1KgiDscnvrfdYssBO6tjGPmIN4jfAoPi+uEYY/E99lPkExHxWvEbP+LZaMgfhm5bpxlfEBb1s1tPEhHxhvB/Qdu3q9omInQAAAAidEVYdGNvbW1lbnQAUmVuZGVyZWQgYnkgUXVpY2tMYVRlWC5jb20gSdC2AAAAJXRFWHRkYXRlOmNyZWF0ZQAyMDI1LTAyLTIyVDE5OjUyOjAzKzA5OjAwQ+XgkQAAACV0RVh0ZGF0ZTptb2RpZnkAMjAyNS0wMi0yMlQxOTo1MjowMyswOTowMDK4WC0AAAAASUVORK5CYII=;" parent="1" vertex="1">
                    <mxGeometry x="3250" y="940.43" width="256.74" height="57.13" as="geometry"/>
                </mxCell>
                <mxCell id="106" value="" style="shape=image;verticalLabelPosition=bottom;labelBackgroundColor=default;verticalAlign=top;aspect=fixed;imageAspect=0;image=data:image/png,iVBORw0KGgoAAAANSUhEUgAAAUMAAABhCAQAAADmKQsFAAAABGdBTUEAALGPC/xhBQAAACBjSFJNAAB6JgAAgIQAAPoAAACA6AAAdTAAAOpgAAA6mAAAF3CculE8AAAAAmJLR0QA/4ePzL8AAAAJcEhZcwAADsQAAA7EAZUrDhsAAAAHdElNRQfpAhYTNhkBOp9VAAANOklEQVR42u1d/5HiOBN9vXUB6LgMPBl45iL4TAae2wiWyQDqItgyGcBEsDtkABvBLmSAN4IbnIG+P5BlyciSAZkfHj3X1Mi2aGS5abWkpxZx9A3EEGEAhgEYHjBABAbgha+uXbKAJvxx7QL4Bo2RGW88I6jhzeLTtQvgHcOG68trFyygGdS3RpkiJGD4CwwJIuXGn7y4dtkCmtA7NVQeLcJWnuT84drlCWhG/xrlCkxJB7/wptFnNXxS0sEzvGn0WQ3VzkqwhjeNPvuGO9ksB8/wxtFba0iR4hsGW3jj6K0aIlHS62sXJsCO/qph8AzvCP1Vw1imCp5fuzABdvRUDYkpMyjBFt48eqqGmmcYxgxvHn1Vw+AZ3hV6Om5IW9koF/zPa5cmwIVeWsPgGd4beqmGwTO8N/RTDYNneGe4YzWkhGa0pC1x2tGaxsqtyhqGMcO7wF12UYhhhBeNWw0ABb7wBUAMO3ltwZ+vXdoAN+5wSRSleBW0hQJzLPGOAYYYgeGNJnwaPMM7BL+rAwxLeZLV7u3vjDBTLkbXLnE42hx31ShThLWkbw0P1x3TEgmAPIwZ3hv+AGiGf7R1G6ejAPCOAjly/ETONz6LSjF+yHI+Gxe/v2ALKD7jrw5qLKATxJ1a2zUyxD4EaeUcNeZ6007H125swtHuIKjLKLtCgRW+nmMbieG3tISW3i/FGsX18fA75TrmSIQXGeAXb1pif2HQSKywHpSl43Qr0jp+cg5KMBRxXiJtEGRh/ESkMPmAAjneAQzADgZQ6lghOzWODK2Vb7UufFedXVO1U4q3ernOV0OK8YoYG3zli5NlqANNlie4hrTOcdCsjWTS2MtU+qEZWO1ejDG2Vuu7PqWJRqacWBtaMOVkacyRYle7tDy+RAfPXZ2kJ0th2NXLdkaZvErr+jBdGouEwQNTXnOjOmkvOkaCWa06jvTYtJe8c+RN230PIuXndL4aqh7p9kxZTDEEZyuOX2ndHeZXtE9khnvla545Hr60iUv5ubWSYV23o1ZpS+XEocLamKHD7srE+WqoPpuHl109sZdX7FVaN4dhTlnOwpp8vYH4b52d4AUeUQAAEkoBgC/4I4YoJcf4Tayd00CxNisyd2RXIjU4u0T+ZpvzhrQPebcmrRPYqA3Mcs3xaLxA2ZuV0Qb5ij9gIuW0XbT5qqQ39qhcxJSOzCWZNRMl/eJBXnG2hO6kdYLOGDZ8JRQhIqVnzaeShBVRi/le0vvl3xzZrxS1hud4wAo5Vqa5nQA3TlXDokWemfj/Wb3IV3gUyYQyp4xUO3O94qvxDHnOh/yBByU8ER3yDflCKGtau76RDfaYXGONqgoXTm9P8SL9TiQGdItuaa9ls8z0y3whuxpWe6j5em3s23U8w4Cz0a0a/hT/D2weLx351NpjftLOHN4eBZ7h3aJbNSz700+Ge6U9/MfyeV19b9YzDDgX3aph6Z+ZoguWHRjbfK72OeeqkuAZ3i26XQTwLv6zw1t8QwUYoHl/daifcyiW5keerISUYogEAzAAOXIsMXeMVZY8lnJLoJw/tvoqUIJnPAlKyP67Fqcv4PIpjVIM8YQIDAXekWODWbMswVl6kFsiDTDnciSVEjwjEqSZ5hq1THMZJrnkfHNLcr3492abArN8Wp2rnTm+KVFOtGlIMKyNE5P1CceRnPvWSQGZ5VvZwaV1i1ph2qTjTqGDvCFSqRyt6tijtANZVXqLpOEz6cGlTNboVkqy1uhl1NDMdSmVjDV+Wq0S12yyysJJDu4YKBG6GmIJjl1F0gWTz9rwMxK5drVLTjVUSjqrSooIYyFLWU3TooY9SlNoEDOlHlJZU2Zz0qCGx9ToNdUwc8nSVMtBoFLpBYY7hgqs1BBsn+eAuFZV8Mj63aoNsaohIlnOpem5tSd2Ko5naeUzbA9lSUmNNBDEStuVCXJL6xo9UnmOVsNdc+HlY7PGTyskJacaVklNEUSzaSKtVWq4RIO1rRqVlk9qVUPFdjbbV822WL/Rr7RSibbm9yHfls1FqdTwyBq1ibtQo2yt6OrEbo/U5lv3DPcvwlC1GkG3wfNU7InjiaW0RjVU6G92i6mojrVufEpr8ZxS6WNnjt2xNXqZ4CGF8WpkubfvPhUKk8eypQSNMFJOf2o3PwNYOfbLK3gTL6ZapxPDjgIuvMpx0C+2bHzRiprlURrFKEOvzC2967L3+29jjmpk5MgavWYMm30x7JWU1XIbQIkcg9yjUO4xpMDB6pM6mlmM7zLlmv12gBI5t75wjmoWjvuepSlkOtvk6nfxP23BFT2yRjtVQ0lcMKiapH9Z1xLzuazExPzwlGJZ+4Z3JT0CUHAXWbaZQFbAF6oX7KKrXVgaxfInnttGGpW2KXHJPLZGu7WGpRqalqCWRttlqarFoIbGgDK8AcjxqEzfyV8ZMfwL4KuznJ3zk1Xe5Olr97qRphB1XXa1vP+3U+aRNdqtGspfWf0GMeHNFS6GHl9hKpJjLXgcKKE1xgBWeOSFwoCuyGGvYCj4FA5cYKfliuzmQ+X9Sqtm9X86ctqWh2g4tka7ncwrfzWHDW9pA7+7hfAJ/ScaoYz+xgw5IsQysNxkr2Z8Q1PhaKeU4RsGyBBDtabXRGU/ipuTxmTqhewrtqODT3hCt2q49yHy+m+DRuJOoa3iaASf0gqviAGkGol2jkklW1HXsez5Pd8IH7qyHz7sl0dpGvE4atkR806j61ANKRW/mpoi0Fg62JO2xptv8EgJngXtoMAv0xQ5n9IcIwyRANjgV3v5nYPJ1PvpQjqRxpT047WYSV1aw7JLoXRCiCGTY3wrZw9Wg1xkZctTYAqnL3gFFDcrTZU1OFXIueisi0Iz0UHZVM0ijfBbKuHmVgIYXQRV4+njVXuUpg3RsAvWiIaO1JAqm/cFACiijHaYyQddtWXl9QTVyz5zGPzmpZ2EDtSQRrSTXYQNnmhGW2wxVn5rkw9lCQF1ONc1KXh5adXI49Xeijc1JEYxjWlJXLF5QIwZRtqvbIUH90he38A3lc2hs1XHrzRlKtQ9OwJilFGLfMfh1C7KjArsfYmS+t0Gi/OCbd41JrKr9tk5W8EuKY3ntCiHwSh1zsqMMEbkfcnZiUSvY48lRsdE8brEURG9LHmqpQUu9ndJQF07c+zsNSEjqtlL5lGaQqhzhsXDDo2ku9NrtGuGzQITDDnxIZ/fzBjeMWAy9dfZsp7F4Aiz8ViItRwc9iiNF0pkIXsAgzcw5McNtNXAZEqtUaPGCgtmuNNsDXdYY4klZsiUXDe8L4mSbLQnbdajKFaCw8rTdttWsRyhOqKLSRu5pElycTPt9eQatYlrwb6WIRxrXFvJsW2xTu2yBxhiJEi14J1rjJAgrioPMWIktR9dhhSx/hKM0t4O8ymqsyulGe9uwbFVllktHYroU1rF0347VCO57uVgMYaPGj1XDSuvorZ8UD68lbx/BTVMLTelHbBF8G4prcHLUizUDmOlHst4uMsDG7bDtoW98yEtUvK+IUUklGwkru9Mi0R91OiZk3m8oBfR4Z/VaPrPwiuZ0feb8woLMRdbKN6K3tsvxFZDZa4yj6nfWeaspFnmNniBR0qQIQZDhoyAXH53jglfALWA/QysyTP1LC2X0gSJRPvs3DJHf2aNGjcrExcNGzVIWsJDNQkkN4uYco0vQ29iGMDDhg/9A0VIMRSxHgrkWGFZTnvSGhHeUcg/4Jt9oMu7tH2shVJajiW6NSbnNcrClJfJut9UNswnb9IQjo9xeBiw4blkDWqEfoUR/do24HrAx4SXcUM+FSP5kU7T53Mx2s60QOoBATX4Gr4u18pmtTDCVTjN9Ch5AR8KntSQbyTZVG+Yc6mIoWEOaIS3yTw+EayPmEba9blosEPDHNAIn3PK5Rq4Wc3ulddDwxzQAI9qyDcyZERomAOOgleGDX/Rd8qT16sesytGQ8CHhG+iV9kAvx40zAUAINE9x4AAwLsa8pVY2VDrkChbOc6cO0MFfDj4p71+Kbco01cs8JX0HMPWOQE1eFdDXsih7JofyF/EkE5Es+NkBvQdHSwC4IuyQ3KgbiXTZuR/bVfAPaObtSilHzjSly+qJIgwdBNQoRM15EVTEE0+lUM3P6796AG3g45W5skpvMOVXuXQTdxiU++AD4LuFohWW3frDXOh3AmTewEAOlRDxQ+sURr4SvEQfcRgCbh7nKqGzJ1FkmFjnQwL8KkM3/MjDGYHdB2CvYkMC/4sxhAZlqHPHGBTw8JyrVV4xyYyLABgKGRFoc8cYFBD26Y6MtZyy6aUT2S/uEZp4Dn+J5IxrYNF/NgwWcOy/2raVKdc39p+5XETGRZ8I6XEWAcf8UOjvmJUCQVhjHdii5piPuQWqaZ1z2rgiXFbieHo20EclGCISAS9UAdQzAEXE6WXnCPHPnDEujnYGDH8lltTFFZ59gAVAb0FITI2vsfjuTlOKKVHsK5DqJEPiE/eNiGw+HZ8gfYbDAYf8QPiE99g7mG7lxXsEUC/tIyWnLfbviygX/g/N/8sTmOOAFoAAAAidEVYdGNvbW1lbnQAUmVuZGVyZWQgYnkgUXVpY2tMYVRlWC5jb20gSdC2AAAAJXRFWHRkYXRlOmNyZWF0ZQAyMDI1LTAyLTIyVDE5OjU0OjI1KzA5OjAwbw6ikQAAACV0RVh0ZGF0ZTptb2RpZnkAMjAyNS0wMi0yMlQxOTo1NDoyNSswOTowMB5TGi0AAAAASUVORK5CYII=;" parent="1" vertex="1">
                    <mxGeometry x="1870" y="940.55" width="214.61" height="64.45" as="geometry"/>
                </mxCell>
                <mxCell id="107" value="" style="shape=image;verticalLabelPosition=bottom;labelBackgroundColor=default;verticalAlign=top;aspect=fixed;imageAspect=0;image=data:image/png,iVBORw0KGgoAAAANSUhEUgAAAGMAAABCCAQAAADpwqCNAAAABGdBTUEAALGPC/xhBQAAACBjSFJNAAB6JgAAgIQAAPoAAACA6AAAdTAAAOpgAAA6mAAAF3CculE8AAAAAmJLR0QA/4ePzL8AAAAJcEhZcwAADsQAAA7EAZUrDhsAAAAHdElNRQfpAhkWES2k4ws4AAAFc0lEQVRo3s2a7XWjOBSGH3K2AJ1JB6QDJh2stwN2O1hPB0wNTAdJKth1OiBTQQZ3gLeCBHeg/WGMJXElJOwcR/wwwvq4X3r16kLGig0K2APvw++hKODLeLfTdzgl21DC2Nfueeh7uPumHxFKltOQC3Oroe+e3/WWqPKAjrumj2J78iA/Zj3bs4ybIEPxF4rb4dcte36xY88bL1O7ZCsK4JaClWCgHVt2vLHjRe8RS7bmTuy95xdbXvVznC9s63TLbKFh5TxoyWP7alA0RrWPn1eMC2qrWi8eSFMkC9KHAzB83Viu6azaa6RDjyFk+jhyYRrlXwAe9bfknuCo8W7VviSNtF8yvVHugZdlSrhq2KLcJYzjmCBTaWJkBQXw51IbhLyRJoptgjRPwhPw3YdnqWpY8Z0oyhkmyEoKdvrHUiUcNRxrJIlyljeegIWrQlDDKQmiZIr1UhNkFYpn/XKOGj701mj6BNR3KU2VsPVpdMpmOb9v2BEebdEsd3wBt9F2fAJ+6F10+yhvtGY12qIN2mEAkXsxRZrXIzkEG6uqooYo0bRDcByvTeT0LZr15dWwYzwqYunQFM5QTbwBzldiujb2Vi2PWBcVOc8TDhXRc1gXf5+5KsS1UVnVWcI8hJLSpKMcdXzwneeN+Z2j5kQiklAuU1QX88VEDRv4ZoTJCtYGiUgDzTNZVFgNmxnNof8T8H2sWSKFOW5WULI/h0WF1bCtE1yoWUnBi3Fafo/ve8HFLaqRwlNdQmebILCusjUF2+h0QboaTqyGRKlQPFok4i3aBDUX9QXTVJMFm10QaHt7l3eyTt69mZqFiYPoXdxJ8njRn81UUCfJ4+G45Ked5iPViCCHFJKnKKyqL1PYkEDjh3FrWno0PR0N1TR9JE9zukSr0aJZeex8vMT9mRWBUBXbd+IfnR0LcricLoEcUiJSP4fjiuSQTjKAV4mDLC3lQQ4UpWFmIzM57WpzXCH7R4+H+1oVgbmyJpL7jj7vhQAqjcrKp4ZNDqehU+NNi9puF7zlNYDHE60nqE0wKWQ1grBJTgi/rDgWDRB7KiwJriHjrNnJapRW1cEUCWidMPCocTBALNDSM7OGjP2tltSw0d8KHwqCp7UQytEQfVxlxeyp0PBHL6kRQH9agil/P8qlAe0IM43fe5acq+nfXthkzcxpzY9yiUB7Cs7Q+jBiJvy35Vp6ZkiEM9x4BE4DWofXeZHNAJTNzQxzHHlqVqNmT2v2a56BH2eKmrQcrcmb372tTrKom+DfJ1FyqojTmnxaqVGJecF/xruXgOGUcR90lj7CJg0xeRIB5cI7jXekih7NJhTERuhJL8Vt9EfFAaBGRrkUoE1S1CSipdRgApvHvGDS0Jom3gAL1DDZhpIaOLDJmkgS4QzXxhtggRqnmJF28SlszgOt0desdFRcLC/ozGOGr5LVsDluT8pLl37yKNIAi31RTcw3NHE/SEk5rblntaQvHaJnOUn4IETB8MhlKNEkYoJyF3gBI8xxApKRGUjNbNhMIBETjpv8CUuSqUyiFNRWk/hy0UK5jwHa43ZgmVdqaMJmYmxbKPcBQDuO7+Cf3Ph4s4REHG8vnBfUGEt7Yly5eT/cJJMIA0PUxZU4Ug5hxckdDrC5ILbHqZLyglEjH/Czl0NV7nLAggWxPaBcwk6TpETnAxz5YUW/1J50tJde3INxfFmrtXAW/3zXoEQT+Pdh7hB79ZIV/ASe9R+eBvdA98nVyHJ+onjU/s/3vgLbq4dMMJzyeX59yAtfXdRZJYJ71wHgNZm+dtz4wknxH4p94KMBNby03uqvv11bXK8SLQpQFLONd+FvDa+rRNw3QACvn1QNNglKfF5vcJ/Uegv/A6SHYbV/rzaqAAAAInRFWHRjb21tZW50AFJlbmRlcmVkIGJ5IFF1aWNrTGFUZVguY29tIEnQtgAAACV0RVh0ZGF0ZTpjcmVhdGUAMjAyNS0wMi0yNVQyMjoxNzo0NSswOTowMJTeAZoAAAAldEVYdGRhdGU6bW9kaWZ5ADIwMjUtMDItMjVUMjI6MTc6NDUrMDk6MDDlg7kmAAAAAElFTkSuQmCC;" vertex="1" parent="1">
                    <mxGeometry x="2110" y="364.75" width="99" height="66" as="geometry"/>
                </mxCell>
                <mxCell id="109" value="" style="shape=image;verticalLabelPosition=bottom;labelBackgroundColor=default;verticalAlign=top;aspect=fixed;imageAspect=0;image=data:image/png,iVBORw0KGgoAAAANSUhEUgAAAGIAAABCCAQAAAAGAMuzAAAABGdBTUEAALGPC/xhBQAAACBjSFJNAAB6JgAAgIQAAPoAAACA6AAAdTAAAOpgAAA6mAAAF3CculE8AAAAAmJLR0QA/4ePzL8AAAAJcEhZcwAADsQAAA7EAZUrDhsAAAAHdElNRQfpAhkWERtrWZ6hAAAE0ElEQVRo3u2b7XHjNhCGH9ykAMTugO6Akw6idMCkg+g6kCclyB3IriCxO5A6OEsdiB1YYgfID9ESFwTBBUn5fDO3/GEtRyD33S+8AGTDjGcsUAGH+u9JLHBz/lS6OzwxzxRwHitHnsaePn11jwTEZKzJAu+29diK390Ohaxwuqt9SzuSVfg2896RhebxBstfWG7rv75UvFJS8cam7RMzIwduyZkF3FOyo+SNko2rCIqZcxccXfHKjm/uRRMH6Zn9ED84HMy8G1sy7VgHlnVDPerfG8gIlkJdDn6QI08zw8Exnnqx64sIy15o31ShvCRPM76qchTyHwCP7mvySA/EQWg3SU+q0l8u5DdgMwSCD0IacpfwHM8BxqaZYXJy4M9h+GORSDNEOiAtivAE3Hf1sDQQIq8TDRnhAFOQU7qHYRA8EJ4nkgwZFYknYFA1BEB4kmCIscyHOsAssLy4zXAQXd3a4TgmdHmfvCwSJjqHS5ka++YJmdlqb5rMiwPcqr34BDy4Uv19RSS2TVXtzTXOm+2V8y55WsRVbIFnoVrVIwoc2zot3q9n5eu3OOZTg5C5rcpU9jhy71FrPfyxENo1UQktU9TDgoyXFldSjKzr4e9R1RCsiYVQeylxnUTWkd7ZWOrTbkwk+meKJRe6kNTZjGUxURxaIGSr6zHF5MwbdCGtTY5iS3EQkgH1dfsn4P6sCYPiPNbkFFTD2VIchPRMtDxNQc6msQo+6MdOVtJBEClc1Kdt0gGRejJzcnbKTYB0EF6OxgxZYHkUdOFN7YAlE8aB9taRaJT7aGs9yhnd20XqnIdZMmg7QD1je9s2nd2e57aZ3rZNB48lu8ws1wOhoIDkoSiRC7Vr129NAlFvOWDvxz8MYi3UoMfY4ph1+Pj9Cs7FzIgkaQ+EWZ3q7TcHE+VyBSggBUGC5/HYIAVkHzJCASBvOLc1/pdWpfc32Y4VsatMT2czczI22oWosdxgyfiDWc+s08IsKWA7dEs6NziF0q4ZyxH1QtTrddtGhigiUQnN84DJWFC5+w6PlI3vt333T2tmiUvFgYpXtmxcaYr6LEQViUKoXh8JtVav4M9XoOyPw1trw65WJL4E8DdFUECTU7ALn/oA8a3MFZOxVl/aIGKF3UfbpImN0jYzZpQR+BODkDnbyGwzJw8sRHUOWDFqjy8RRIQC9tM2OfbsgLTWOgEIT+zZkCW2N6flIU3tAGNZcsU4hEE0DX035NRa+1Zi4XRaYkfv8SWDCC34V2hWAJXQbmv488jMcjUQwhRj696iWYmFIrGiuQ7/MBDtoxZdHAKFXcO/UmuNgfD8aeZkPKrOQ9sHl1r4k4OohJadNsg0D/NPmjq2OKeXAEuRPPZIypHJsXVrMFsaw538SNikI8GDpz9chy1J6S/stGlKmnzl1hoDIb2ZRhfk2KuXdDeISmhpdKEZxQn3+NJBNL2ZSheaDvigOARBNEoxPacvW5m6meVaILj4M70sLw74kJKOgTgl1BC68J6KV1qIpoA4GTAkp08VNOLHJtOB+JeK+yE57XaU7Ib+bmmwTEMKrn+l0o4fTn6C+CzyE8RnkR8HRGy//Xu3TlV7tWKv/kgh14vGfW8Pd4o51h9sxxeqOgy/fmYQrjbz0PGF+h9UnPkfc5Kvz6JP8FMAAAAidEVYdGNvbW1lbnQAUmVuZGVyZWQgYnkgUXVpY2tMYVRlWC5jb20gSdC2AAAAJXRFWHRkYXRlOmNyZWF0ZQAyMDI1LTAyLTI1VDIyOjE3OjI3KzA5OjAwxS4ZNAAAACV0RVh0ZGF0ZTptb2RpZnkAMjAyNS0wMi0yNVQyMjoxNzoyNyswOTowMLRzoYgAAAAASUVORK5CYII=;" vertex="1" parent="1">
                    <mxGeometry x="1688" y="360" width="98" height="66" as="geometry"/>
                </mxCell>
            </root>
        </mxGraphModel>
    </diagram>
</mxfile>